<?xml version="1.0" encoding="UTF-8" standalone="no"?>
<svg
   version="1.1"
   id="Layer_1"
   x="0px"
   y="0px"
   viewBox="0 0 399.34201 796.40002"
   xml:space="preserve"
   sodipodi:docname="back.svg"
   inkscape:version="1.3 (0e150ed6c4, 2023-07-21)"
   width="399.34201"
   height="796.40002"
   xmlns:inkscape="http://www.inkscape.org/namespaces/inkscape"
   xmlns:sodipodi="http://sodipodi.sourceforge.net/DTD/sodipodi-0.dtd"
   xmlns="http://www.w3.org/2000/svg"
   xmlns:svg="http://www.w3.org/2000/svg"><defs
   id="defs112" /><sodipodi:namedview
   id="namedview112"
   pagecolor="#ffffff"
   bordercolor="#000000"
   borderopacity="0.25"
   inkscape:showpageshadow="2"
   inkscape:pageopacity="0.0"
   inkscape:pagecheckerboard="0"
   inkscape:deskcolor="#d1d1d1"
   inkscape:zoom="1.0166667"
   inkscape:cx="103.27869"
   inkscape:cy="489.34427"
   inkscape:window-width="1366"
   inkscape:window-height="745"
   inkscape:window-x="-8"
   inkscape:window-y="-8"
   inkscape:window-maximized="1"
   inkscape:current-layer="Layer_1" />&#10;<style
   type="text/css"
   id="style1">&#10;	.st0{fill:#231F20;}&#10;	.st1{fill:none;stroke:#231F20;stroke-miterlimit:10;}&#10;	.st2{fill:none;stroke:#231F20;stroke-width:0.75;stroke-miterlimit:10;}&#10;</style>&#10;&#10;&#10;&#10;&#10;&#10;&#10;&#10;&#10;&#10;&#10;&#10;&#10;&#10;&#10;&#10;&#10;&#10;&#10;&#10;&#10;&#10;&#10;&#10;&#10;&#10;&#10;&#10;&#10;&#10;&#10;&#10;&#10;&#10;&#10;&#10;&#10;&#10;&#10;&#10;&#10;&#10;&#10;&#10;&#10;&#10;&#10;<g
   id="g47"
   transform="translate(-560.52882,-143.3)">&#10;	<path
   class="st0"
   d="m 724,939.7 c -0.6,0 -1.3,-0.2 -1.9,-0.5 -1.4,-1 -2.2,-3.1 -2.6,-5.1 -1.4,1.6 -2.7,2.1 -3.9,1.8 -1.8,-0.6 -2.6,-3.2 -2.9,-8 h 1.6 c 0.2,4.5 1.1,6.3 1.8,6.6 0.5,0.2 1.4,-0.3 2.4,-1.6 l 0.8,-4.7 1.6,0.2 c -0.2,2.1 -0.2,8 1.9,9.5 0.8,0.5 1.9,0.3 3.4,-0.5 2.7,-3.4 5.6,-7.2 7.1,-10.9 -0.5,-0.3 -1.1,-0.5 -1.6,-0.8 -0.6,-0.3 -1.1,-0.6 -1.8,-1 l -1.6,-1 2.4,-0.6 c 1.3,-0.3 2.4,-0.6 3.5,-1.6 0.6,-0.6 1,-1.4 1.3,-2.2 0.2,-0.5 0.3,-1.1 0.6,-1.6 0,-0.2 4.8,-10.8 -0.3,-29.1 -0.2,-0.5 -1.4,-11.1 10.9,-24.2 0.5,-1.8 5.3,-18.1 -1,-21.8 -0.2,-0.2 -5,-4.3 -10.3,-3.7 -2.9,0.3 -5.3,1.9 -7.5,4.8 l -1.3,-1 c 2.4,-3.4 5.3,-5.1 8.7,-5.5 5.9,-0.6 11.1,3.9 11.2,4 7.5,4.5 1.8,23 1.4,23.8 l -0.2,0.3 c -11.9,12.7 -10.8,22.8 -10.8,23 5.3,18.9 0.5,29.7 0.3,30.2 -0.3,0.5 -0.5,1 -0.6,1.4 -0.3,1 -0.6,1.9 -1.6,2.9 -1,0.8 -1.8,1.3 -2.7,1.6 0.5,0.3 1,0.5 1.6,0.8 0.5,0.2 0.8,0.6 0.8,1.1 v 0.8 c -1.6,4 -4.7,8.2 -7.5,11.6 l -0.2,0.2 c -0.9,0.5 -2,0.8 -3,0.8 z"
   id="path46" />&#10;</g>&#10;<g
   id="g48"
   transform="translate(-560.52882,-143.3)">&#10;	<path
   class="st0"
   d="m 711.3,934.2 c -1.1,0 -2.4,-0.6 -3.1,-1.3 -1.1,-1.1 -1.9,-2.9 -2.2,-5.1 -0.2,0 -0.3,-0.2 -0.5,-0.3 -5.6,-3.7 -4,-11.1 -3.2,-13.2 0.2,-0.6 0.5,-1.3 0.6,-1.8 0,-0.2 0.2,-0.3 0.2,-0.5 l 1.6,0.2 c 0,0.2 0,0.5 -0.3,0.8 -0.2,0.3 -0.3,1 -0.6,1.6 -0.5,1.8 -1.9,7.9 2.1,11.1 -0.2,-4.8 1.3,-9.8 1.3,-10 l 1.6,0.3 c -0.3,7.7 -0.8,10 -1.3,10.9 0.2,2.2 0.8,3.9 1.8,4.8 0.6,0.6 1.6,1 2.2,0.8 0.3,0 0.5,-0.2 0.6,-0.5 0.5,-1 0.5,-2.4 0.5,-3.7 v -2.6 h 1.6 v 2.6 c 0,1.4 0,3.2 -0.6,4.5 -0.3,0.8 -1,1.3 -1.8,1.3 0,0.1 -0.1,0.1 -0.5,0.1 z"
   id="path47" />&#10;</g>&#10;<g
   id="g49"
   transform="translate(-560.52882,-143.3)">&#10;	<path
   class="st0"
   d="m 701.1,917.7 c -0.2,0 -0.3,0 -0.5,0 -2.2,-0.5 -2.2,-5.6 -2.2,-5.9 -0.2,-3.5 0.8,-7.2 2.7,-10.4 0.2,-0.3 0.5,-0.6 0.6,-1 0.5,-0.6 0.8,-1.3 1,-1.9 0.3,-1 0.5,-2.1 0.5,-3.2 0.2,-1 0.2,-1.9 0.5,-2.9 0.2,-0.6 0.3,-1.4 0.6,-2.2 0.2,-0.8 0.3,-1.4 0.5,-2.2 0.8,-3.4 1.6,-6.7 2.6,-10.1 0.5,-2.1 1.1,-4 1.6,-6.1 0.6,-2.1 1.1,-4.2 1.8,-6.3 4,-12.5 3.7,-26.7 3.7,-28.1 -8,-26 -9.2,-56.7 -9.2,-59.4 -6.7,-13.3 -7.7,-40.8 -7.7,-55.9 -0.2,-15.6 0.6,-28.4 0.8,-29.9 l -8,-39.5 c -5.3,-21.4 -9,-42.1 -11.2,-63.1 -1.6,-15.7 -2.1,-31 -1.6,-45.1 1.1,-27.8 6.4,-44.2 8.5,-50.1 0.5,-1.3 0.8,-2.1 1,-2.6 -3.1,-13.3 7.2,-58.1 7.5,-60 0.2,-1.1 0,-3.1 -0.2,-5.5 v -0.8 c -1,-11.6 -4,-31.8 -4,-32.1 0.2,-11.7 -0.8,-23.1 -2.7,-33.7 -6.6,-36.3 -23.9,-51.9 -29.1,-55.7 -1,-0.8 -1.4,-1 -1.4,-1.1 l 0.6,-1.4 c 0,0 0.8,0.3 1.8,1.3 6.7,5.1 23.1,20.9 29.7,56.7 1.9,10.8 2.9,22.2 2.7,33.9 0,0 3.1,20.4 4,32.1 v 0.8 c 0.2,2.4 0.3,4.3 0.2,5.8 -0.2,0.5 -10.8,47 -7.5,59.6 v 0.3 l -0.2,0.3 c 0,0 -0.5,1 -1.1,2.6 -2.2,5.8 -7.4,22 -8.5,49.6 -0.5,14.1 0,29.2 1.6,44.8 2.2,21 5.9,41.6 11.2,62.9 l 8,39.8 v 0.2 c 0,0.2 -1,13.5 -0.8,29.9 0,15.1 1,42.4 7.5,55.4 l 0.2,0.2 v 0.2 c 0,0.3 0.8,32.3 9.2,59.2 v 0.2 c 0,0.2 0.6,15.4 -3.7,28.7 -0.5,2.1 -1.1,4.2 -1.8,6.3 -0.5,2.1 -1.1,4 -1.6,6.1 -1,3.4 -1.8,6.7 -2.6,10.1 -0.2,0.6 -0.3,1.4 -0.6,2.2 -0.2,0.8 -0.3,1.4 -0.5,2.2 -0.2,0.8 -0.3,1.8 -0.3,2.6 -0.2,1.1 -0.2,2.4 -0.6,3.5 -0.3,0.8 -0.8,1.6 -1.3,2.4 -0.2,0.3 -0.5,0.6 -0.6,1 -1.8,3.1 -2.6,6.4 -2.4,9.6 0,1.9 0.5,4.2 1,4.3 0.2,0 0.6,-0.2 1.4,-2.1 V 914 c 0.2,-0.5 0.3,-1 0.5,-1.4 l 0.2,-0.8 1.4,0.5 -0.2,0.6 c -0.2,0.6 -0.3,1.1 -0.6,1.6 0,1.1 -0.8,3.2 -2.4,3.2 z"
   id="path48" />&#10;</g>&#10;<g
   id="g50"
   transform="translate(-560.52882,-143.3)">&#10;	<path
   class="st0"
   d="m 716.6,839.6 -1.3,-1 c 0.3,-0.5 7.5,-10.1 17,-10.9 4.5,-0.5 8.5,1.1 12.4,4.8 l -1.1,1.1 c -3.4,-3.2 -7.2,-4.7 -11.1,-4.3 -8.8,0.9 -15.7,10.2 -15.9,10.3 z"
   id="path49" />&#10;</g>&#10;<g
   id="g51"
   transform="translate(-560.52882,-143.3)">&#10;	<path
   class="st0"
   d="m 745.4,838.5 -1.6,-0.2 c 0,-0.5 6.4,-49.9 6.9,-62.6 0,-0.5 4.7,-34 -1.1,-42.1 l -0.2,-0.2 c -0.2,-0.5 -3.7,-11.4 0.5,-27.5 0,0 2.4,-14 -0.5,-23.3 0,-0.5 -2.9,-29.1 2.1,-49 L 752,585 h 1.6 l -0.5,49.1 c -4.8,19.7 -2.1,48.2 -2.1,48.3 2.9,9.5 0.6,23.4 0.5,23.9 -3.9,14.8 -1,25.4 -0.5,26.5 6.1,8.7 1.6,41.6 1.3,43 -0.5,12.6 -6.8,62.1 -6.9,62.7 z"
   id="path50" />&#10;</g>&#10;<g
   id="g52"
   transform="translate(-560.52882,-143.3)">&#10;	<polygon
   class="st0"
   points="607.3,563.7 573.6,542.1 574.4,540.9 608.1,562.4 "
   id="polygon51" />&#10;</g>&#10;<g
   id="g53"
   transform="translate(-560.52882,-143.3)">&#10;	<path
   class="st0"
   d="m 617.7,534.8 c -7.4,0 -22.2,-13 -24.1,-14.6 l 1.1,-1.1 c 5.3,4.7 19.7,16.2 24.2,13.8 l 0.8,1.4 c -0.4,0.3 -1.2,0.5 -2,0.5 z"
   id="path52" />&#10;</g>&#10;<g
   id="g54"
   transform="translate(-560.52882,-143.3)">&#10;	<polygon
   class="st0"
   points="610.7,475.4 611,474.9 610.8,473.9 611.2,473.9 611.5,474.1 645,492.7 644.2,494 "
   id="polygon53" />&#10;</g>&#10;<g
   id="g55"
   transform="translate(-560.52882,-143.3)">&#10;	<path
   class="st0"
   d="m 669.3,449.2 c -2.6,-0.3 -9.6,-4.2 -20.9,-11.4 -7.4,-4.8 -13.8,-9.2 -15.4,-10.4 -0.3,-0.2 -0.6,-0.3 -0.6,-0.5 l 1.1,-1.1 v 0 c 0,0 0.2,0.2 0.3,0.2 l 0.2,0.2 c 1.6,1.3 8,5.8 15.4,10.4 14.6,9.3 18.9,10.9 20.2,11.1 z"
   id="path54" />&#10;</g>&#10;<g
   id="g56"
   transform="translate(-560.52882,-143.3)">&#10;	<polygon
   class="st0"
   points="645.5,378.1 645.3,377.7 646.8,377.1 646.8,377.3 663.8,393.3 683.2,411.9 682.1,413.2 "
   id="polygon55" />&#10;</g>&#10;<g
   id="g57"
   transform="translate(-560.52882,-143.3)">&#10;	<polygon
   class="st0"
   points="675.5,359.9 653.4,425.7 649.2,438.4 627.4,483.7 622.1,494.8 606.3,527.4 604.9,526.7 647.8,437.9 647.9,437 651.9,425.1 674.1,359.3 681.8,337.4 683.2,338.1 "
   id="polygon56" />&#10;</g>&#10;<g
   id="g58"
   transform="translate(-560.52882,-143.3)">&#10;	<path
   class="st0"
   d="m 763.7,258 c -8,0 -18.5,-2.1 -31.3,-8.5 l -0.2,-0.2 c -0.2,0 -0.3,0 -0.5,-0.2 -0.3,-0.2 -0.6,-0.5 -0.6,-1 l 0.5,-14.9 -0.2,-0.3 0.3,-0.5 c 0,0 0.2,-0.2 0.3,-0.2 v 0 0 c 2.9,-2.1 23.6,-14.9 55.4,-1.1 l 0.5,0.2 v 16.9 l -0.2,0.2 c 0.1,0.2 -7,9.6 -24,9.6 z m -30.5,-9.8 c 36.4,17.8 51.5,1.6 53.1,-0.5 v -15.3 c -30.5,-13.2 -50.6,-0.6 -53.1,1 l -0.5,14.4 c 0.2,0.2 0.3,0.2 0.5,0.4 z"
   id="path57" />&#10;</g>&#10;<g
   id="g59"
   transform="translate(-560.52882,-143.3)">&#10;	&#10;		<rect
   x="716.09998"
   y="553.90002"
   transform="matrix(0.04343342,-0.9991,0.9991,0.04343342,95.4741,1281.3888)"
   class="st0"
   width="1.6"
   height="73.900002"
   id="rect58" />&#10;</g>&#10;<g
   id="g60"
   transform="translate(-560.52882,-143.3)">&#10;	&#10;		<rect
   x="691.09998"
   y="651.20001"
   transform="matrix(1,-0.00781179,0.00781179,1,-5.0712,5.6446)"
   class="st0"
   width="57.799999"
   height="1.6"
   id="rect59" />&#10;</g>&#10;<g
   id="g61"
   transform="translate(-560.52882,-143.3)">&#10;	<path
   class="st0"
   d="m 699.1,723.2 -1,-1.3 c 0.2,-0.2 24.2,-18.5 51.1,-3.4 l -0.8,1.4 c -25.8,-14.5 -48.9,3.2 -49.3,3.3 z"
   id="path60" />&#10;</g>&#10;<g
   id="g62"
   transform="translate(-560.52882,-143.3)">&#10;	&#10;		<rect
   x="706.20001"
   y="775.70001"
   transform="matrix(0.9992,-0.03903569,0.03903569,0.9992,-29.7566,29.0384)"
   class="st0"
   width="45.099998"
   height="1.6"
   id="rect61" />&#10;</g>&#10;<g
   id="g63"
   transform="translate(-560.52882,-143.3)">&#10;	<rect
   x="678.29999"
   y="543.40002"
   class="st0"
   width="73.900002"
   height="1.6"
   id="rect62" />&#10;</g>&#10;<g
   id="g64"
   transform="translate(-560.52882,-143.3)">&#10;	&#10;		<rect
   x="720.70001"
   y="872"
   transform="matrix(0.06332444,-0.998,0.998,0.06332444,-209.5824,1551.0342)"
   class="st0"
   width="1.6"
   height="30.299999"
   id="rect63" />&#10;</g>&#10;<g
   id="g65"
   transform="translate(-560.52882,-143.3)">&#10;	<path
   class="st0"
   d="m 562.8,569.1 c -0.8,0 -1.3,-0.3 -1.4,-0.5 l -0.2,-0.2 c -3.9,-5.6 10.4,-26.7 12,-29.1 l 7.9,-8 c 7.7,-4 11.9,-11.4 11.9,-11.6 l 0.2,-0.3 0.3,-0.2 c 4.3,-1.8 9,-10.8 12.7,-24.9 2.6,-9.5 4,-18.3 4,-18.5 0,-0.2 0,-0.5 0.2,-0.6 0,-0.2 0,-0.3 0,-0.5 2.1,-16.7 17.7,-41.3 22.3,-48.5 l 1,-1.4 c 4,-5.9 10,-37.9 11.7,-47.5 1.1,-5.8 1.8,-9.6 1.8,-9.6 0.2,-2.2 0.3,-5.1 0.5,-8.3 0.8,-14.1 2.7,-35.2 2.7,-35.3 0.2,-7.7 2.1,-14.8 5.6,-21.2 10.3,-18.9 32.1,-25.7 32.3,-25.7 13.3,-4.5 39.8,-26.5 42.9,-29.1 v -4.8 l -0.3,-18 -7.9,-0.6 -1.3,-1.9 -1,-12 c -0.5,-0.8 -2.9,-4.8 -4.2,-8.7 l -0.5,-1.4 c -0.5,-1.6 0,-2.6 0.5,-3.1 1.1,-1.3 3.4,-1.4 4.8,-1.4 -1.8,-6.9 -1,-11.2 -0.8,-12 -0.5,-11.7 2.7,-21.4 9.3,-28.3 11.6,-12.2 29.4,-12.4 30.2,-12.4 v 1.6 c -0.2,0 -18,0.3 -29.1,11.9 -6.4,6.7 -9.3,15.9 -9,27.1 v 0.2 0.2 c 0,0 -1,4.8 1.1,12.5 l 0.3,1.1 -1.3,-0.2 c -0.8,-0.2 -3.5,-0.3 -4.5,0.8 -0.2,0.2 -0.5,0.5 -0.2,1.6 l 0.5,1.4 c 1.4,4 4,8.5 4.2,8.5 l 0.2,0.2 1,12 0.6,1 8.5,0.6 0.3,19.6 v 5.5 l -0.3,0.2 c -1.1,1 -29.4,24.7 -43.8,29.5 -0.2,0 -21.4,6.6 -31.3,25 -3.4,6.1 -5.1,13 -5.3,20.6 0,0.3 -1.9,21.2 -2.7,35.3 -0.2,3.2 -0.3,6.3 -0.5,8.5 0,0.2 -0.6,4 -1.8,9.8 -2.2,12.4 -8,42.1 -12,48.2 l -1,1.4 c -4.7,7.1 -20.1,31.5 -22,47.7 0,0.2 0,0.5 -0.2,0.6 0,0.2 0,0.3 0,0.5 0,0.2 -1.4,9.2 -4,18.6 -2.2,8.3 -6.9,22.8 -13.3,25.8 -0.8,1.4 -5,8 -12.4,11.9 l -7.4,7.5 c -5.8,8.3 -14.1,23.1 -12,27 0.5,0.2 3.7,0.5 10.9,-9.5 1.9,-2.6 3.7,-5.5 5.6,-8.7 l 1.4,0.8 c -1.8,3.1 -3.7,6.1 -5.6,8.7 -5.8,7.9 -9.5,10 -11.4,10.1 -0.4,0.5 -0.5,0.5 -0.7,0.5 z"
   id="path64" />&#10;</g>&#10;<g
   id="g66"
   transform="translate(-560.52882,-143.3)">&#10;	<path
   class="st0"
   d="m 566.8,588.9 c -1.6,0 -2.7,-1.4 -2.7,-1.6 -2.6,-5.3 0.6,-15.4 9.5,-30 1.9,-3.2 3.7,-5.8 4.7,-7.2 0.3,-0.6 0.6,-1 0.8,-1.3 0.2,-0.3 0.5,-0.6 1,-0.6 v 1.6 c 0.3,0 0.6,-0.3 0.6,-0.6 v 0.2 l -0.2,0.2 c -0.2,0.3 -0.5,0.8 -1,1.4 -1,1.6 -2.7,4.2 -4.7,7.2 -10.6,17.7 -10.9,25.2 -9.5,28.4 v 0 c 0,0 0.6,0.8 1.4,0.8 0.6,0 2.1,-0.8 3.9,-4.7 0,-0.2 0.2,-0.3 0.3,-0.6 0.2,-0.3 0.3,-0.5 0.3,-0.8 V 581 l 8.2,-16.9 1.4,0.6 -8.2,16.9 c -0.2,0.5 -0.3,0.8 -0.5,1.1 -0.2,0.2 -0.2,0.3 -0.2,0.5 -1.8,3.7 -3.4,5.6 -5.3,5.8 0.4,-0.1 0.2,-0.1 0.2,-0.1 z"
   id="path65" />&#10;</g>&#10;<g
   id="g67"
   transform="translate(-560.52882,-143.3)">&#10;	<path
   class="st0"
   d="m 572,595.8 c -0.6,0 -1.1,-0.3 -1.3,-0.5 -3.4,-2.1 -1.6,-8.7 -0.2,-12.4 1.6,-4.8 4.7,-10.9 8.7,-18.1 l 0.5,-0.8 1.1,1.1 -0.2,0.2 -0.2,0.3 c -4,7.1 -6.9,13.2 -8.5,17.8 -2.1,5.5 -2.2,9.5 -0.5,10.4 l 0.2,0.2 c 0,0 0,0 0.3,0 0.2,0 0.2,0 0.3,0 0.8,-0.2 2.9,-1.4 6.1,-8.2 l 9.3,-15.7 1.4,0.8 -9.3,15.7 c -2.7,5.5 -5.1,8.5 -7.4,9 0,0 -0.2,0.2 -0.3,0.2 z"
   id="path66" />&#10;</g>&#10;<g
   id="g68"
   transform="translate(-560.52882,-143.3)">&#10;	<path
   class="st0"
   d="m 581,596.2 c -0.5,0 -0.8,-0.2 -1.1,-0.3 -0.6,-0.3 -1,-0.8 -1.3,-1.6 -1.1,-3.4 2.1,-11.6 9.2,-24.4 0.3,-0.5 0.5,-0.6 0.5,-1 0,-0.2 0.2,-0.3 0.2,-0.5 v -0.2 l 0.3,-0.3 0.8,0.8 h 0.5 c 0,0.2 0,0.3 -0.2,0.3 v 0 0 0.2 0.3 c -0.2,0.3 -0.3,0.6 -0.6,1.3 -9.5,16.9 -9.5,21.7 -9,23 0.2,0.5 0.3,0.6 0.5,0.6 l 0.3,0.2 c 0,0 2.1,0.5 7.9,-10.9 1.8,-3.4 3.7,-7.7 5.9,-13.3 l 0.2,-0.5 h 0.5 c -0.3,0 -0.6,0.3 -0.6,0.6 h 1.6 c 0,0.3 -0.2,0.5 -0.3,0.8 -2.2,5.6 -4.2,9.8 -5.9,13.2 -4,7.6 -7,11.4 -9.4,11.7 0.1,0 0,0 0,0 z"
   id="path67" />&#10;</g>&#10;<g
   id="g69"
   transform="translate(-560.52882,-143.3)">&#10;	<path
   class="st0"
   d="m 588.8,595.1 c -0.5,0 -0.8,-0.2 -1.3,-0.5 -0.5,-0.5 -2.1,-1.8 1.3,-10.6 1.6,-4.3 3.9,-9.2 5.1,-11.7 0.3,-0.6 0.6,-1.3 0.8,-1.6 0.2,-0.5 0.5,-0.8 1,-0.8 v 1.6 c 0.3,0 0.6,-0.3 0.6,-0.6 v 0.3 c -0.2,0.3 -0.5,1 -0.8,1.8 -1.3,2.6 -3.5,7.2 -5.1,11.6 -2.4,6.1 -2.2,8.3 -1.8,8.8 0.2,0.2 0.6,0.2 1.9,-0.6 0.2,0 5.8,-2.9 9.3,-17.2 l 0.2,-0.2 9.2,-15.7 c 0,0 3.2,-6.6 3.9,-12.8 v -0.2 c 0.2,-0.5 4.2,-11.1 9,-17.8 l 35,-56.2 c 0.2,-0.2 8.8,-14.4 12,-22.6 l 21.4,-56.2 1.4,0.6 -21.4,56.2 c -3.2,8.3 -11.7,22.3 -12,23 l -35,56.2 c -4.5,6.3 -8.3,16.4 -8.7,17.5 -0.8,6.4 -4,13 -4,13.3 l -9.2,15.7 c -3.7,15.1 -9.8,18 -10.1,18.1 -0.6,0 -1.5,0.6 -2.7,0.6 z"
   id="path68" />&#10;</g>&#10;<g
   id="g86"
   transform="translate(-560.52882,-143.3)">&#10;	<g
   id="g70">&#10;		<path
   class="st0"
   d="m 931,595 c -1,0 -2.1,-0.6 -2.6,-1 -0.2,0 -6.3,-3.1 -10,-18 l -9.2,-15.6 c -0.2,-0.3 -3.2,-6.9 -4.2,-13.3 -0.3,-1 -4.2,-11.1 -8.7,-17.3 l -35,-56.2 c -0.3,-0.6 -8.8,-14.6 -12,-23 l -21.4,-56.2 1.4,-0.6 21.4,56.2 c 3.2,8.2 11.9,22.5 12,22.6 l 35,56.2 c 4.8,6.7 8.7,17.3 8.8,17.8 v 0.2 c 0.8,6.3 3.9,12.8 4,12.8 l 9.2,15.7 c 0,0 0,0.2 0.2,0.2 3.5,14.3 9.2,17.2 9.2,17.2 1.3,0.8 1.8,0.8 1.9,0.6 0,0 1.1,-1.1 -1.8,-8.8 -2.2,-5.8 -5.1,-11.7 -5.8,-13 -0.2,-0.2 -0.3,-0.5 -0.3,-0.8 h 1.6 c 0,-0.3 -0.3,-0.6 -0.6,-0.6 0.3,0 0.6,0.2 0.6,0.5 0,0 3.4,6.9 5.9,13.3 2.9,7.9 2.2,9.8 1.3,10.6 0,0.3 -0.4,0.5 -0.9,0.5 z"
   id="path69" />&#10;	</g>&#10;	<g
   id="g71">&#10;		<path
   class="st0"
   d="m 938.8,596.4 v 0 c -2.4,-0.3 -5.5,-4.2 -9.2,-11.7 l -0.3,-0.5 c -1.6,-3.4 -3.5,-7.5 -5.8,-12.8 0,-0.2 0,-0.2 0,-0.3 0,0.3 0.3,0.6 0.6,0.6 v -1.6 c 0.5,0 0.8,0.3 1,0.8 2.1,5.3 4,9.5 5.6,12.7 l 0.2,0.5 c 5,10.1 7.4,10.8 7.7,10.8 0,-0.2 0.2,-0.2 0.3,-0.2 0.2,0 0.3,-0.2 0.5,-0.6 0.5,-1.3 0.3,-6.3 -9,-23.1 l 1.4,-0.8 c 7.2,12.8 10.3,21 9.2,24.4 -0.2,0.8 -0.6,1.3 -1.3,1.6 -0.1,0 -0.4,0.2 -0.9,0.2 z"
   id="path70" />&#10;	</g>&#10;	<g
   id="g72">&#10;		<path
   class="st0"
   d="m 947.7,595.4 c -0.2,0 -0.3,0 -0.5,0 -2.2,-0.3 -4.7,-3.4 -7.4,-9 l -9.3,-15.7 -0.6,-1.3 c -0.2,-0.2 -0.3,-0.3 -0.3,-0.6 v -0.2 h 0.8 V 568 c 0.5,0 0.8,0.3 1,0.6 l 0.6,1.1 9.3,15.7 c 3.4,6.9 5.5,8 6.1,8.2 0.5,0.2 0.6,0 0.6,0 1.8,-1.1 1.6,-4.7 -0.3,-10.6 -1.6,-4.8 -4.5,-10.8 -8.5,-17.8 l -0.3,-0.5 1.4,-0.8 0.3,0.5 c 4,7.2 6.9,13.3 8.7,18.1 1.6,4.7 3.1,10.4 -0.2,12.4 -0.3,0.2 -0.8,0.5 -1.4,0.5 z m -18,-26.4 z"
   id="path71" />&#10;	</g>&#10;	<g
   id="g73">&#10;		<path
   class="st0"
   d="m 953.1,589 v 0 c -2.1,-0.2 -3.7,-1.9 -5.5,-5.6 -0.2,-0.3 -0.2,-0.5 -0.3,-0.6 -0.2,-0.3 -0.3,-0.6 -0.5,-1.1 l -8.2,-16.9 c 0,-0.2 0,-0.2 0,-0.3 0,0.3 0.3,0.6 0.6,0.6 v -1.6 c 0.5,0 0.8,0.3 1,0.6 l 8.2,16.7 v 0.2 c 0.2,0.3 0.2,0.6 0.3,0.8 0.2,0.2 0.2,0.5 0.3,0.6 1.8,3.9 3.2,4.7 3.9,4.7 0.8,0 1.4,-0.8 1.4,-0.8 2.1,-4.7 -1.3,-14.8 -9.5,-28.4 -1.9,-3.1 -3.7,-5.6 -4.7,-7.2 -0.5,-0.6 -0.8,-1.3 -1,-1.4 l 1.4,-0.8 c 0.2,0.3 0.5,0.6 1,1.4 1.1,1.6 2.7,4.2 4.7,7.2 6.1,10 12.7,23.3 9.5,30 0,0.5 -1,1.9 -2.6,1.9 z"
   id="path72" />&#10;	</g>&#10;	<g
   id="g74">&#10;		<path
   class="st0"
   d="m 956.8,568.6 c -0.2,0 -0.3,0 -0.5,0 -1.9,-0.2 -5.6,-2.2 -11.4,-10.1 -1.6,-2.2 -3.4,-5 -5.8,-8.8 -0.2,-0.3 -0.2,-0.5 0,-0.8 0.2,-0.3 0.5,-0.5 0.6,-0.5 v 0 c 0.3,0 0.6,0.3 0.8,0.6 2.2,3.9 4,6.4 5.6,8.5 7.2,10 10.4,9.6 10.9,9.5 2.1,-3.9 -6.3,-18.5 -12.2,-27 l -7.4,-7.5 c -7.4,-4 -11.4,-10.4 -12.2,-11.9 -6.1,-2.6 -10.6,-15.4 -13.3,-25.8 -2.6,-9.6 -4,-18.5 -4,-18.5 0,-0.6 0,-0.8 -0.2,-1.1 -2.1,-16.9 -18.8,-42.9 -22,-47.8 l -1,-1.4 c -4,-5.8 -9.6,-35.6 -12,-48.2 -1,-5.8 -1.8,-9.6 -1.8,-9.6 V 368 c 0,-2.2 -0.2,-5.1 -0.5,-8.5 -1,-14.1 -2.7,-35.2 -2.7,-35.3 -0.2,-7.5 -1.9,-14.4 -5.3,-20.6 -10.1,-18.5 -31.3,-24.9 -31.5,-25 -14.4,-4.8 -42.5,-28.6 -43.8,-29.5 -0.2,-0.2 -0.3,-0.3 -0.3,-0.6 l 0.5,-23.9 c 0,-0.5 0.3,-0.8 0.8,-0.8 l 7.9,-0.6 0.6,-1 1,-11.9 c 0,-0.2 0,-0.3 0.2,-0.3 0,0 2.7,-4.5 4.2,-8.5 l 0.5,-1.4 c 0.3,-1.1 0,-1.4 -0.2,-1.6 -1,-1 -3.7,-0.8 -4.5,-0.6 -0.3,0 -0.5,0 -0.6,-0.3 -0.2,-0.2 -0.3,-0.5 -0.2,-0.8 2.1,-7.7 1.1,-12.4 1.1,-12.5 v -0.2 c 0.5,-11.4 -2.6,-20.6 -9,-27.1 -9.8,-10.1 -24.6,-11.6 -28.1,-11.7 v 158.1 h -1.6 V 144.1 c 0,-0.2 0.2,-0.5 0.2,-0.6 0.2,-0.2 0.3,-0.2 0.6,-0.2 v 0 c 0.8,0 18.6,0.2 30.2,12.4 6.7,6.9 9.8,16.5 9.3,28.3 0.2,0.6 0.8,5 -0.8,12 1.4,-0.2 3.7,0 4.8,1.3 0.5,0.5 1,1.6 0.5,3.2 l -0.5,1.4 c -1.3,3.9 -3.7,7.9 -4.2,8.7 l -1,11.9 c 0,0.2 0,0.3 -0.2,0.3 l -1,1.4 c -0.2,0.2 -0.3,0.3 -0.6,0.3 l -7.4,0.6 -0.3,22.9 c 3.1,2.6 29.5,24.6 43,29.1 0.2,0 22,6.7 32.4,25.7 3.5,6.4 5.5,13.5 5.6,21.2 0,0.2 1.8,21.2 2.7,35.3 0.3,3.4 0.5,6.1 0.5,8.5 0.2,0.6 0.8,4.3 1.8,9.6 1.8,9.6 7.9,41.7 11.7,47.5 l 1,1.4 c 3.4,5.1 20.1,31.3 22.3,48.3 0.2,0.5 0.2,1 0.2,1.4 v 0 c 0,0 1.4,8.8 4,18.3 3.7,14.4 8.2,23.3 12.7,24.9 0.2,0 0.3,0.2 0.5,0.3 0,0 4.2,7.4 11.9,11.6 l 0.2,0.2 7.5,7.7 c 1.8,2.4 16.1,23.6 12.2,29.1 l -0.2,0.2 c -0.7,-0.1 -1.2,0.3 -2.2,0.3 z"
   id="path73" />&#10;	</g>&#10;	<g
   id="g75">&#10;		<path
   class="st0"
   d="m 795.5,939.4 c -1.6,0 -3.4,-1 -4.7,-2.9 -0.5,-0.6 -1,-1.1 -1.4,-1.6 -1,-1.1 -2.1,-2.2 -2.6,-3.7 -0.3,-1 -0.3,-1.9 -0.3,-2.7 0,-0.5 0,-0.8 -0.2,-1.3 -0.2,-2.2 -0.8,-4.3 -1.8,-6.1 -0.3,-0.6 -0.8,-1.1 -1.1,-1.6 -0.8,-1 -1.6,-2.1 -2.1,-3.4 -1.1,-2.7 -1.8,-5.9 -1.9,-9.3 -0.2,-3.5 0.3,-6.7 0.8,-10 0.2,-1.4 0.6,-2.7 1,-4 0.5,-1.6 1,-3.1 1.1,-4.7 0,-0.2 1.3,-10.3 -10.8,-23 -0.2,-0.2 -0.2,-0.2 -0.2,-0.3 -0.3,-0.8 -6.1,-19.3 1.6,-23.9 0.2,-0.2 5.1,-4.7 11.2,-4 3.4,0.3 6.3,2.2 8.7,5.5 l -1.3,1 c -2.1,-2.9 -4.7,-4.5 -7.5,-4.8 -5.3,-0.5 -10.1,3.7 -10.1,3.7 -5.6,3.4 -2.7,16.9 -1.1,22 12.4,13.2 11.1,23.8 11.1,24.1 -0.2,1.6 -0.6,3.2 -1.1,4.8 -0.3,1.3 -0.8,2.6 -1,3.9 -0.5,3.1 -1,6.3 -0.8,9.6 0.2,3.1 0.8,6.3 1.9,8.7 0.5,1.1 1.1,2.1 1.9,3.1 0.5,0.6 0.8,1.1 1.3,1.8 1.1,1.9 1.9,4.3 2.1,6.7 0,0.3 0.2,0.8 0.2,1.3 0,0.8 0.2,1.6 0.3,2.4 0.3,1.1 1.3,2.1 2.1,3.1 0.5,0.6 1.1,1.1 1.6,1.8 1.1,1.6 2.6,2.4 3.7,2.2 1.1,-0.2 1.9,-1.1 2.4,-2.7 0.5,-1.9 0.5,-3.7 0.5,-5.6 V 928 c 0,-0.5 0.3,-0.8 0.8,-0.8 0.5,0 0.8,0.3 0.8,0.6 0,0.6 0.2,1.4 0.3,2.1 0.2,0.6 0.3,1.4 0.3,2.1 0,0.2 0,0.3 0,0.3 0.2,0.3 0.2,0.3 0.5,0.6 0.2,0.2 0.5,0.3 0.6,0.5 0.1,0.2 0.3,0.3 0.5,0.5 0.5,0.3 0.8,0.2 1,0 1.3,-0.6 1.6,-4.8 1.8,-6.1 v -0.3 l 1.6,0.2 v 0.3 c -0.3,3.2 -0.8,6.4 -2.6,7.4 -0.5,0.3 -1.3,0.5 -2.4,-0.2 -0.3,-0.2 -0.6,-0.5 -0.8,-0.6 -0.2,-0.2 -0.3,-0.3 -0.5,-0.5 -0.2,-0.2 -0.3,-0.3 -0.5,-0.5 0,0.5 -0.2,1 -0.3,1.4 -0.6,2.2 -1.9,3.5 -3.7,3.9 -0.5,0.5 -0.6,0.5 -0.9,0.5 z"
   id="path74" />&#10;	</g>&#10;	<g
   id="g76">&#10;		<path
   class="st0"
   d="m 808,934.4 c -0.2,0 -0.2,0 -0.3,0 -0.3,0 -0.5,0 -0.8,-0.3 -0.6,-0.5 -1.3,-1.6 -1.3,-6.3 v -1.9 h 1.6 v 1.8 c 0,3.9 0.5,4.8 0.6,5.1 1.4,0 2.4,-0.5 3.2,-1.6 0.6,-1 1,-2.4 1.1,-4.3 -0.5,-1 -1,-3.2 -1.3,-10.9 0,-0.5 0.3,-0.8 0.6,-0.8 0.5,0 0.8,0.2 1,0.6 0,0.2 1.4,5.3 1.3,10 3.9,-2.9 2.9,-8 2.1,-11.1 -0.2,-0.6 -0.5,-1.3 -0.6,-1.6 -0.2,-0.5 -0.3,-0.6 -0.3,-0.8 h 1.6 c 0,0 0,0 0.2,0.3 0.2,0.5 0.5,1.1 0.6,1.8 0.8,2.9 2.2,9.8 -3.2,13.2 -0.2,0.2 -0.3,0.2 -0.5,0.3 -0.2,1.8 -0.6,3.2 -1.3,4.3 -0.9,1.4 -2.4,2.2 -4.3,2.2 z m 0,-1.6 z m -0.5,0 z m 0,0 z"
   id="path75" />&#10;	</g>&#10;	<g
   id="g77">&#10;		<path
   class="st0"
   d="m 818.6,917.7 c -1.3,0 -2.2,-1.8 -2.7,-3.2 -0.2,-0.5 -0.3,-0.8 -0.3,-1.1 -0.2,-0.3 -0.3,-0.6 -0.5,-1.1 l 1.4,-0.5 c 0.2,0.5 0.3,0.8 0.3,1.1 0.2,0.5 0.3,0.8 0.5,1.3 0.8,1.9 1.3,2.1 1.3,2.1 0.2,-0.2 0.6,-1.3 0.8,-2.2 1,-6.9 -1.4,-10.8 -3.1,-13.2 -1,-1.4 -1.8,-2.7 -1.4,-4 0.3,-1.8 -4.5,-20.1 -7.5,-31.3 -4.3,-13.3 -3.7,-28.6 -3.7,-28.7 v -0.2 c 8.3,-26.8 9.2,-58.9 9.2,-59.2 0,-0.2 0,-0.3 0.2,-0.3 6.6,-12.8 7.5,-40.1 7.5,-55.4 0.2,-16.4 -0.8,-29.7 -0.8,-29.9 v -0.2 l 8,-39.7 c 5.3,-21.4 9,-41.9 11.2,-63.1 1.6,-15.7 2.1,-30.8 1.6,-44.8 -1.1,-27.5 -6.3,-43.8 -8.5,-49.5 -0.6,-1.8 -1.1,-2.6 -1.1,-2.7 -0.2,-0.2 -0.2,-0.3 0,-0.5 3.1,-12.5 -7.4,-59.1 -7.5,-59.6 -0.2,-1.4 0,-3.4 0.2,-5.9 v -0.8 c 1,-11.6 4,-32 4,-32.1 -0.2,-11.6 0.8,-23 2.7,-33.7 6.6,-35.8 23,-51.5 29.7,-56.7 1,-0.8 1.8,-1.1 1.8,-1.1 l 0.6,1.4 c 0,0 -0.6,0.3 -1.4,1 -5.1,3.9 -22.5,19.4 -29.1,55.7 -1.9,10.6 -2.9,22 -2.7,33.6 0,0.3 -3.1,20.6 -4,32.1 v 0.6 c -0.2,2.2 -0.3,4.3 -0.2,5.6 0.5,1.8 10.6,46.6 7.5,59.9 0.2,0.5 0.6,1.3 1,2.6 2.2,5.8 7.4,22.3 8.5,50.1 0.5,14.1 0,29.4 -1.6,45.1 -2.2,21.2 -5.9,41.7 -11.2,63.3 l -8,39.5 c 0.2,1.3 1,14.3 0.8,29.9 0,15.3 -1,42.7 -7.7,55.9 0,2.7 -1.1,33.4 -9.2,59.4 0,1.3 -0.3,15.6 3.7,28.1 1.3,4.8 8,29.2 7.5,32 -0.2,0.6 0.5,1.6 1.3,2.9 1.8,2.7 4.3,6.9 3.2,14.3 -0.2,0.8 -0.9,3.2 -2.3,3.2 0.1,0 0,0 0,0 z"
   id="path76" />&#10;	</g>&#10;	<g
   id="g78">&#10;		<path
   class="st0"
   d="m 803,839.6 c 0,-0.2 -7.1,-9.5 -15.9,-10.3 -3.9,-0.3 -7.7,1.1 -11.1,4.3 l -1.1,-1.1 c 3.9,-3.5 7.9,-5.1 12.4,-4.8 9.5,0.8 16.7,10.6 17,10.9 z"
   id="path77" />&#10;	</g>&#10;	<g
   id="g79">&#10;		<path
   class="st0"
   d="m 774.3,838.5 c 0,-0.5 -6.4,-49.9 -6.9,-62.6 -0.2,-1.3 -4.8,-34.2 1.3,-42.9 0.3,-1.1 3.4,-11.6 -0.5,-26.3 -0.2,-0.6 -2.4,-14.4 0.5,-24.2 0,-0.2 2.7,-28.4 -2.1,-46.6 v -0.2 l -2.1,-53.8 h 1.6 l 2.1,53.6 c 5,18.5 2.1,46.9 2.1,47.2 -2.9,9.5 -0.5,23.4 -0.5,23.6 4.2,16.1 0.6,27 0.5,27.3 0,0 0,0.2 -0.2,0.2 -5.8,8 -1.1,41.6 -1.1,41.9 0.5,12.7 6.9,62.1 6.9,62.6 z"
   id="path78" />&#10;	</g>&#10;	<g
   id="g80">&#10;		<polygon
   class="st0"
   points="912.5,563.7 911.7,562.4 945.4,540.9 946.2,542.1 "
   id="polygon79" />&#10;	</g>&#10;	<g
   id="g81">&#10;		<path
   class="st0"
   d="m 901.9,534.8 c -0.8,0 -1.4,-0.2 -2.1,-0.5 l 0.8,-1.4 c 4.5,2.4 19.1,-9.2 24.2,-13.8 l 1.1,1.1 c -1.8,1.7 -16.6,14.6 -24,14.6 z"
   id="path80" />&#10;	</g>&#10;	<g
   id="g82">&#10;		<path
   class="st0"
   d="m 875.6,494 -0.8,-1.4 33.6,-18.6 c 0.2,0 0.3,-0.2 0.3,-0.2 l 0.2,1 0.3,0.5 z"
   id="path81" />&#10;	</g>&#10;	<g
   id="g83">&#10;		<path
   class="st0"
   d="m 850.7,449.2 -0.2,-1.6 c 2.4,-0.3 10.3,-4.7 20.2,-11.1 7.2,-4.7 13.8,-9.2 15.4,-10.4 0,0 0.2,0 0.2,-0.2 0.2,-0.2 0.3,-0.2 0.3,-0.2 l 1.1,1.1 c 0,0 -0.3,0.2 -0.6,0.5 -1.6,1.3 -8,5.6 -15.4,10.4 -4,2.7 -17.1,11 -21,11.5 z"
   id="path82" />&#10;	</g>&#10;	<g
   id="g84">&#10;		<path
   class="st0"
   d="m 836.7,414.2 -1.1,-1.1 20.4,-19.6 17,-16.2 0.3,0.5 h 1 v 0.2 c 0,0.2 -0.2,0.5 -0.3,0.6 l -16.9,16.1 z"
   id="path83" />&#10;	</g>&#10;	<g
   id="g85">&#10;		<polygon
   class="st0"
   points="845.7,359.3 867.9,425.1 871.7,436.8 872.2,437.9 899.2,494.1 914.9,526.7 913.5,527.4 892.4,483.7 870.8,438.6 870.3,437.5 866.4,425.6 844.3,359.9 836.6,337.9 838,337.3 "
   id="polygon84" />&#10;	</g>&#10;</g>&#10;<g
   id="g87"
   transform="translate(-560.52882,-143.3)">&#10;	&#10;		<rect
   x="765.90002"
   y="590"
   transform="matrix(0.9991,-0.04292726,0.04292726,0.9991,-24.6215,35.0096)"
   class="st0"
   width="73.900002"
   height="1.6"
   id="rect86" />&#10;</g>&#10;<g
   id="g88"
   transform="translate(-560.52882,-143.3)">&#10;	&#10;		<rect
   x="798.90002"
   y="623.09998"
   transform="matrix(0.00832704,-1,1,0.00832704,141.084,1446.287)"
   class="st0"
   width="1.6"
   height="57.799999"
   id="rect87" />&#10;</g>&#10;<g
   id="g89"
   transform="translate(-560.52882,-143.3)">&#10;	<path
   class="st0"
   d="m 821,722.9 c -0.2,-0.2 -23.4,-17.2 -49.6,-3.2 l -0.8,-1.4 c 27.1,-14.4 51.1,3.1 51.2,3.2 z"
   id="path88" />&#10;</g>&#10;<g
   id="g90"
   transform="translate(-560.52882,-143.3)">&#10;	&#10;		<rect
   x="790.09998"
   y="754"
   transform="matrix(0.03900097,-0.9992,0.9992,0.03900097,-16.008,1536.6761)"
   class="st0"
   width="1.6"
   height="45.299999"
   id="rect89" />&#10;</g>&#10;<g
   id="g91"
   transform="matrix(1.0117576,0,0,1,-569.32702,-143.3)">&#10;	<rect
   x="748.29999"
   y="543.40002"
   class="st0"
   width="91.5"
   height="1.6"
   id="rect90" />&#10;</g>&#10;<g
   id="g92"
   transform="translate(-560.52882,-143.3)">&#10;	&#10;		<rect
   x="783.09998"
   y="886.40002"
   transform="matrix(0.9979,-0.06444773,0.06444773,0.9979,-55.5157,53.2853)"
   class="st0"
   width="30.200001"
   height="1.6"
   id="rect91" />&#10;</g>&#10;&#10;<g
   id="g94"
   transform="translate(-560.52882,-143.3)">&#10;	<rect
   x="717.09998"
   y="201.39999"
   class="st0"
   width="85.400002"
   height="1.6"
   id="rect93" />&#10;</g>&#10;<g
   id="g95"
   transform="translate(-560.52882,-143.3)">&#10;	<rect
   x="656.40002"
   y="302.60001"
   class="st0"
   width="206.8"
   height="1.6"
   id="rect94" />&#10;</g>&#10;&#10;&#10;<g
   id="g98"
   transform="translate(-560.52882,-143.3)">&#10;	<rect
   x="688.40002"
   y="358.79999"
   class="st0"
   width="142.89999"
   height="1.6"
   id="rect97" />&#10;</g>&#10;&#10;<g
   id="g100"
   transform="translate(-560.52882,-143.3)">&#10;	<rect
   x="695.29999"
   y="424.60001"
   class="st0"
   width="129.2"
   height="1.6"
   id="rect99" />&#10;</g>&#10;<g
   id="g101"
   transform="translate(-560.52882,-143.3)">&#10;	<rect
   x="686.79999"
   y="493.70001"
   class="st0"
   width="146.10001"
   height="1.6"
   id="rect100" />&#10;</g>&#10;&#10;<g
   id="g103"
   transform="translate(-560.52882,-143.3)">&#10;	<rect
   x="731.70001"
   y="248"
   class="st0"
   width="1.6"
   height="343.29999"
   id="rect102" />&#10;</g>&#10;<g
   id="g104"
   transform="translate(-560.52882,-143.3)">&#10;	<rect
   x="787"
   y="248"
   class="st0"
   width="1.6"
   height="343.29999"
   id="rect103" />&#10;</g>&#10;<g
   id="g105"
   transform="translate(-560.52882,-143.3)">&#10;	&#10;		<rect
   x="722.59998"
   y="590.59998"
   transform="matrix(0.9983,-0.05879933,0.05879933,0.9983,-40.4643,43.7629)"
   class="st0"
   width="1.6"
   height="237.60001"
   id="rect104" />&#10;</g>&#10;<g
   id="g106"
   transform="translate(-560.52882,-143.3)">&#10;	&#10;		<rect
   x="677.70001"
   y="708.5"
   transform="matrix(0.04496324,-0.999,0.999,0.04496324,51.9584,1473.047)"
   class="st0"
   width="237.5"
   height="1.6"
   id="rect105" />&#10;</g>&#10;&#10;&#10;&#10;&#10;<g
   id="g111"
   transform="translate(-560.52882,-143.3)">&#10;	<path
   class="st0"
   d="m 732.4,591.8 c -2.2,0 -4.8,-0.2 -7.4,-0.3 -3.9,-0.3 -7.9,-1 -11.9,-1.8 -1,-0.2 -1.9,-0.3 -2.9,-0.6 -8.8,-3.4 -14.6,-9.2 -17.5,-17 -7.5,-20.9 7.9,-49.5 8.5,-50.7 l 1.4,0.8 c -0.2,0.3 -15.7,29.2 -8.5,49.5 2.7,7.4 8.3,12.8 16.5,16.1 0.8,0.2 1.8,0.3 2.7,0.6 3.9,0.8 7.9,1.3 11.7,1.6 5.9,0.5 10.8,0.5 15.3,-0.2 2.7,-0.3 5,-1 7.1,-1.8 2.6,-1 4.3,-2.2 5.6,-3.9 1.3,-1.6 2.4,-3.7 3.4,-5.9 1.1,-2.9 1.9,-5.8 2.6,-8.8 0.2,-0.6 0.3,-1.4 0.5,-2.1 l 0.2,-0.6 h 1.8 l 0.6,2.7 c 0.8,2.9 1.4,5.9 2.6,8.8 1,2.4 2.1,4.3 3.4,5.9 1.3,1.6 3.1,2.9 5.6,3.9 2.1,0.8 4.3,1.4 7.1,1.8 4.5,0.6 9.3,0.6 15.3,0.2 3.9,-0.3 7.9,-1 11.7,-1.6 1,-0.2 1.9,-0.3 2.7,-0.6 8.2,-3.2 13.6,-8.7 16.4,-16.1 7.4,-20.2 -8.3,-49.1 -8.5,-49.5 l 1.4,-0.8 c 0.6,1.3 16.1,29.9 8.5,50.7 -2.9,7.9 -8.8,13.6 -17.5,17 -1.1,0.3 -2.1,0.5 -2.9,0.6 -4,0.8 -8,1.3 -11.9,1.8 -6.1,0.5 -10.9,0.5 -15.6,-0.2 -2.7,-0.5 -5.1,-1 -7.4,-1.9 -2.7,-1.1 -4.8,-2.4 -6.3,-4.3 -1.4,-1.8 -2.7,-3.9 -3.7,-6.4 -1.1,-2.9 -1.9,-5.9 -2.7,-9 v 0 c -0.8,3.1 -1.4,6.1 -2.7,9 -1,2.6 -2.2,4.7 -3.7,6.4 -1.4,1.9 -3.5,3.2 -6.3,4.3 -2.1,0.8 -4.5,1.4 -7.4,1.9 -2.2,0.3 -4.8,0.5 -7.8,0.5 z"
   id="path110" />&#10;</g>&#10;&#10;&#10;<path
   style="fill:#ffff00;stroke:#000000;stroke-width:0;stroke-linecap:square;stroke-linejoin:bevel;paint-order:fill markers stroke"
   d="M 200.78266,29.77018 V 2.18463 l 3.68852,0.66288 c 10.65378,1.91462 18.87566,6.16702 24.68571,12.76758 6.00603,6.82321 7.52741,12.32724 7.52741,27.23258 0,12.3499 0.0337,12.54111 2.21311,12.54098 1.21721,-7e-5 2.21311,0.4425 2.21311,0.98348 0,0.62375 -7.37704,0.98361 -20.16393,0.98361 h -20.16393 z"
   id="I2" /><path
   style="fill:#ffff00;stroke:#000000;stroke-width:0;stroke-linecap:square;stroke-linejoin:bevel;paint-order:fill markers stroke"
   d="m 157.50397,56.37213 c 0,-0.54098 1.3363,-0.98361 2.96956,-0.98361 2.76716,0 2.918,-0.18436 2.21311,-2.70491 -1.35438,-4.84303 -0.66363,-21.15999 1.12355,-26.54069 4.11337,-12.3842 15.08124,-20.67592 30.87963,-23.34504 l 4.12562,-0.69702 V 29.7283 57.35574 H 178.1597 c -13.11475,0 -20.65573,-0.3591 -20.65573,-0.98361 z"
   id="I1" /><path
   style="fill:#ffff00;stroke:#000000;stroke-width:0;stroke-linecap:square;stroke-linejoin:bevel;paint-order:fill markers stroke"
   d="m 172.60583,83.85646 v -3.65989 l -4.43693,-0.34709 c -2.44031,-0.1909 -4.52584,-0.49095 -4.6345,-0.66677 -0.10866,-0.17583 -0.44225,-2.96862 -0.7413,-6.20622 -0.49734,-5.3844 -0.71244,-6.21168 -2.52154,-9.69802 l -1.97782,-3.81148 h 20.43473 20.43473 v 10.81968 10.81967 h -3.1323 c -6.30784,0 -14.96533,2.14834 -21.08901,5.2332 l -2.33606,1.17681 z"
   id="I3" /><path
   style="fill:#ffff00;stroke:#000000;stroke-width:0;stroke-linecap:square;stroke-linejoin:bevel;paint-order:fill markers stroke"
   d="m 223.24151,86.28335 c -5.22747,-2.22539 -16.57732,-4.82714 -21.0642,-4.82858 l -2.09016,-6.7e-4 V 70.63443 59.81475 h 19.67213 c 14.53605,0 19.67213,0.14817 19.67213,0.5675 0,0.31212 -0.74655,1.91662 -1.65901,3.56557 -1.49738,2.70599 -1.70806,3.58809 -2.16249,9.05402 -0.27692,3.33076 -0.63247,6.18492 -0.79011,6.34256 -0.15765,0.15764 -2.07412,0.44378 -4.25882,0.63587 -2.18471,0.19208 -4.16928,0.54695 -4.41016,0.78859 -0.24088,0.24163 -0.50498,1.78944 -0.58688,3.43956 l -0.14892,3.00022 z"
   id="I4" /><path
   style="fill:#ffff00;stroke:#000000;stroke-width:0;stroke-linecap:square;stroke-linejoin:bevel;paint-order:fill markers stroke"
   d="M 200.78266,98.24959 V 83.42131 l 1.35246,0.002 c 4.3194,0.006 15.8233,2.68229 20.90163,4.86202 l 2.33607,1.00269 v 7.5832 7.5832 l -2.02949,1.83352 c -3.99241,3.6069 -10.52957,5.95696 -18.01149,6.47497 l -4.54918,0.31497 z"
   id="N4" /><path
   style="fill:#ffff00;stroke:#000000;stroke-width:0;stroke-linecap:square;stroke-linejoin:bevel;paint-order:fill markers stroke"
   d="m 190.45479,111.19283 c -5.45949,-1.39814 -7.47083,-2.10146 -13.69951,-4.79035 l -4.60114,-1.9863 0.29245,-1.76792 c 0.16085,-0.97236 0.29489,-4.14425 0.29787,-7.04863 l 0.005,-5.28071 3.31967,-1.66936 c 6.00168,-3.01806 14.8007,-5.22825 20.81428,-5.22825 h 1.93162 v 14.5082 14.5082 l -1.84385,-0.0242 c -1.01434,-0.0133 -3.94672,-0.56261 -6.51639,-1.22069 z"
   id="N3" /><path
   style="fill:#ffff00;stroke:#000000;stroke-width:0;stroke-linecap:square;stroke-linejoin:bevel;paint-order:fill markers stroke"
   d="m 173.24167,133.33934 c 0,-17.54471 0.1639,-25.81967 0.5114,-25.81967 0.28127,0 1.34033,0.42289 2.35348,0.93976 3.27277,1.66965 11.65697,4.37507 16.13477,5.20639 2.39855,0.4453 4.85896,0.90864 5.46757,1.02964 l 1.10655,0.22 v 22.12178 22.12178 h -12.78688 -12.78689 z"
   id="P2" /><path
   style="fill:#ffff00;stroke:#000000;stroke-width:0;stroke-linecap:square;stroke-linejoin:bevel;paint-order:fill markers stroke"
   d="m 200.78266,137.02787 v -22.13115 h 3.15345 c 7.85774,0 14.64448,-2.28536 21.31376,-7.17718 l 1.10656,-0.81164 v 26.12556 26.12556 h -12.78689 -12.78688 z"
   id="P3" /><path
   style="fill:#ffff00;stroke:#000000;stroke-width:0;stroke-linecap:square;stroke-linejoin:bevel;paint-order:fill markers stroke"
   d="m 173.24167,188.17541 v -27.04918 h 26.55738 26.55738 v 27.04918 27.04918 h -26.55738 -26.55738 z"
   id="P6" /><path
   style="fill:#ffff00;stroke:#000000;stroke-width:0;stroke-linecap:square;stroke-linejoin:bevel;paint-order:fill markers stroke"
   d="M 173.24167,249.15902 V 217.1918 h 26.55738 26.55738 v 31.96722 31.96721 h -26.55738 -26.55738 z"
   id="P18" /><path
   style="fill:#ffff00;stroke:#000000;stroke-width:0;stroke-linecap:square;stroke-linejoin:bevel;paint-order:fill markers stroke"
   d="M 228.32364,249.15902 V 217.1918 h 20.40984 c 16.00217,0 20.40895,0.13276 20.40575,0.61476 -0.002,0.33811 -0.33112,3.04918 -0.73083,6.02459 -0.39971,2.97541 -0.96741,10.38934 -1.26157,16.47541 -0.29416,6.08606 -1.07507,15.13249 -1.73537,20.10317 -0.6603,4.97068 -1.46327,11.66535 -1.78438,14.87705 l -0.58385,5.83945 h -17.35979 -17.3598 z"
   id="P19" /><path
   style="fill:#ffff00;stroke:#000000;stroke-width:0;stroke-linecap:square;stroke-linejoin:bevel;paint-order:fill markers stroke"
   d="m 228.32364,188.18075 v -27.05452 h 34.26344 34.26345 l -3.44559,3.56557 c -10.33762,10.69762 -18.42415,26.93069 -22.47806,45.12295 l -1.15071,5.16394 -20.72627,0.12829 -20.72626,0.12829 z"
   id="P7" /><path
   style="fill:#ffff00;stroke:#000000;stroke-width:0;stroke-linecap:square;stroke-linejoin:bevel;paint-order:fill markers stroke"
   d="m 228.32364,133.58525 c 0,-14.06558 0.11585,-25.57377 0.25744,-25.57377 0.1416,0 2.29939,1.62273 4.79509,3.60607 11.44398,9.09457 24.00023,17.77654 30.35731,20.99044 1.75819,0.88888 5.59819,2.56504 8.53333,3.72479 9.61081,3.79752 17.94418,9.52238 23.85052,16.38484 3.31499,3.85162 4.19633,5.24956 3.75741,5.95976 -0.18983,0.30714 -13.20497,0.48164 -35.92439,0.48164 h -35.62671 z"
   id="P4" /><path
   style="fill:#ffff00;stroke:#000000;stroke-width:0;stroke-linecap:square;stroke-linejoin:bevel;paint-order:fill markers stroke"
   d="m 98.715633,158.63833 c -0.86066,-1.39257 7.493027,-10.45569 13.542437,-14.6925 3.59012,-2.51441 11.78791,-6.90889 14.26229,-7.64539 7.5103,-2.23545 20.34254,-10.23841 35.59589,-22.19973 3.75342,-2.94334 7.23885,-5.65516 7.7454,-6.02627 0.89702,-0.65717 0.92101,-7.1e-4 0.92101,25.20492 v 25.87966 h -35.87262 c -24.71098,0 -35.972737,-0.16201 -36.194407,-0.52069 z"
   id="P1" /><path
   style="fill:#ffff00;stroke:#000000;stroke-width:0;stroke-linecap:square;stroke-linejoin:bevel;paint-order:fill markers stroke"
   d="m 128.76186,214.60984 c -0.10266,-0.33812 -0.6703,-2.79579 -1.26141,-5.46149 C 123.6964,191.99357 114.81411,174.45743 104.73349,164.2 l -3.02078,-3.07377 h 34.53497 34.53498 v 27.04918 27.04918 h -20.91708 c -16.30624,0 -20.95822,-0.13551 -21.10372,-0.61475 z"
   id="P5" /><path
   style="fill:#ffff00;stroke:#000000;stroke-width:0;stroke-linecap:square;stroke-linejoin:bevel;paint-order:fill markers stroke"
   d="m 135.37282,279.26965 c 0,-1.02111 -0.6754,-6.9412 -1.50089,-13.15573 -0.83105,-6.25639 -1.81268,-16.9052 -2.1995,-23.86039 -0.38423,-6.90868 -1.0367,-14.96974 -1.44993,-17.91348 -0.41322,-2.94374 -0.75132,-5.75635 -0.75132,-6.25025 0,-0.85521 0.98425,-0.898 20.65574,-0.898 h 20.65574 v 31.96722 31.96721 h -17.70492 -17.70492 z"
   id="P17" /><path
   style="fill:#ffff00;stroke:#000000;stroke-width:0;stroke-linecap:square;stroke-linejoin:bevel;paint-order:fill markers stroke"
   d="m 119.13489,264.76305 c -2.02406,-1.93113 -6.26696,-6.03175 -9.42866,-9.11246 l -5.74857,-5.6013 6.8087,-19.99432 c 9.73223,-28.57951 10.99432,-32.08187 11.41071,-31.66547 0.78339,0.78338 3.86397,13.24585 5.04454,20.40766 1.58699,9.62722 2.24579,17.11806 2.24789,25.55936 l 0.002,6.75488 -3.21961,8.47292 c -1.77078,4.66011 -3.26842,8.52175 -3.32809,8.58141 -0.0597,0.0597 -1.76453,-1.47153 -3.78859,-3.40268 z"
   id="LX6" /><path
   style="fill:#ffff00;stroke:#000000;stroke-width:0;stroke-linecap:square;stroke-linejoin:bevel;paint-order:fill markers stroke"
   d="m 98.731943,245.33928 c -1.89429,-1.82127 -5.35173,-5.11513 -7.6832,-7.31967 l -4.23904,-4.00826 0.88285,-5.336 c 0.48558,-2.93481 1.34889,-12.30732 1.91849,-20.82781 2.19782,-32.87701 2.7611,-37.17852 5.73674,-43.80913 0.84983,-1.89368 1.59811,-2.91218 2.13954,-2.91218 2.05019,0 10.297457,9.04671 15.019517,16.47541 2.40235,3.77937 8.11102,15.46795 8.11151,16.60843 2e-4,0.4789 -2.29422,7.45021 -5.09873,15.49181 -2.8045,8.04159 -6.91718,20.09853 -9.13928,26.7932 -2.22209,6.69467 -4.07709,12.16842 -4.12221,12.16388 -0.0451,-0.005 -1.6319,-1.4984 -3.526187,-3.31968 z"
   id="LX5" /><path
   style="fill:#ffff00;stroke:#000000;stroke-width:0;stroke-linecap:square;stroke-linejoin:bevel;paint-order:fill markers stroke"
   d="m 272.44533,259.35782 -3.33732,-8.96929 0.0193,-6.39345 c 0.0422,-13.96487 2.359,-29.78505 6.22901,-42.53515 l 1.26708,-4.17451 0.93388,2.45319 c 0.51364,1.34926 4.62291,13.28504 9.13172,26.52396 l 8.19783,24.07076 -9.3062,8.98512 c -5.11841,4.94182 -9.41686,8.99042 -9.5521,8.99689 -0.13525,0.006 -1.7477,-4.02442 -3.58323,-8.95752 z"
   id="RX6" /><path
   style="fill:#ffff00;stroke:#000000;stroke-width:0;stroke-linecap:square;stroke-linejoin:bevel;paint-order:fill markers stroke"
   d="m 292.78847,237.68211 c -1.98273,-5.99508 -6.1222,-18.1425 -9.19883,-26.99427 -3.07663,-8.85176 -5.59387,-16.34823 -5.59387,-16.65882 0,-1.17596 6.39619,-13.80264 8.8612,-17.49282 5.11783,-7.66156 12.30037,-15.40997 14.28457,-15.40997 0.91861,0 2.87033,3.99289 4.08669,8.36066 1.1562,4.15174 1.62839,8.81154 3.26425,32.21311 0.83197,11.90164 1.92916,24.07377 2.4382,27.04918 l 0.92553,5.40984 -6.9257,6.63934 c -3.80913,3.65164 -7.28826,6.89687 -7.73139,7.21162 -0.71527,0.50804 -1.21031,-0.65113 -4.41065,-10.32787 z"
   id="RX5" /><path
   style="fill:#ffff00;stroke:#000000;stroke-width:0;stroke-linecap:square;stroke-linejoin:bevel;paint-order:fill markers stroke"
   d="m 283.50113,288.37739 c -3.31839,-8.72174 -6.14714,-16.30034 -6.28611,-16.84132 -0.19926,-0.77572 1.68753,-2.83746 8.92717,-9.75492 5.0489,-4.82421 9.34803,-8.58651 9.5536,-8.36065 0.41991,0.46133 13.28359,38.97691 13.28359,39.77284 0,0.52528 -10.6354,7.05819 -15,9.21392 -4.75692,2.3495 -3.71608,3.74313 -10.47825,-14.02987 z"
   id="RX8" /><path
   style="fill:#ffff00;stroke:#000000;stroke-width:0;stroke-linecap:square;stroke-linejoin:bevel;paint-order:fill markers stroke"
   d="m 304.1863,271.65902 -6.8686,-20.28689 7.4292,-7.20624 c 4.08606,-3.96344 7.47533,-7.16321 7.53171,-7.11061 0.0564,0.0526 0.99888,4.6047 2.09445,10.11578 3.44597,17.33436 6.78696,30.26701 8.91468,34.5078 l 0.89415,1.78215 -6.36863,4.24244 c -3.50274,2.33335 -6.45631,4.24245 -6.56349,4.24245 -0.10718,0 -3.28574,-9.1291 -7.06347,-20.28688 z"
   id="RX7" /><path
   style="fill:#ffff00;stroke:#000000;stroke-width:0;stroke-linecap:square;stroke-linejoin:bevel;paint-order:fill markers stroke"
   d="m 322.34757,316.22252 c -5.76635,-12.05305 -10.41389,-21.96981 -10.32787,-22.03724 0.086,-0.0674 3.17738,-2.12508 6.86969,-4.57256 l 6.71329,-4.44995 4.44588,7.44894 c 7.99973,13.40332 13.83822,26.09278 15.81665,34.37616 0.52568,2.20092 0.90658,4.03515 0.84645,4.07608 -1.22247,0.83197 -13.09492,7.10593 -13.4211,7.09233 -0.2523,-0.0105 -5.17664,-9.88072 -10.94299,-21.93376 z"
   id="RX14" /><path
   style="fill:#ffff00;stroke:#000000;stroke-width:0;stroke-linecap:square;stroke-linejoin:bevel;paint-order:fill markers stroke"
   d="m 307.39671,337.06885 c -8.52991,-13.75369 -10.90067,-17.87094 -14.4236,-25.04913 l -2.68863,-5.47825 4.30646,-2.0728 c 2.36856,-1.14004 6.72548,-3.53879 9.68205,-5.33057 2.95656,-1.79177 5.50754,-3.25777 5.66884,-3.25777 0.29793,0 20.50228,42.00204 20.77442,43.18714 0.0896,0.39031 -2.96722,2.38526 -7.72048,5.03851 -4.32787,2.4158 -8.01256,4.39347 -8.18819,4.39483 -0.17564,10e-4 -3.51053,-5.14302 -7.41087,-11.43196 z"
   id="RX13" /><path
   style="fill:#ffff00;stroke:#000000;stroke-width:0;stroke-linecap:square;stroke-linejoin:bevel;paint-order:fill markers stroke"
   d="m 340.1001,388.97542 c -0.96738,-0.84633 -23.50642,-36.68947 -23.83145,-37.89843 -0.18259,-0.67912 15.40871,-9.54353 15.91631,-9.04919 0.1852,0.18037 4.8801,9.73368 10.43311,21.22958 l 10.09638,20.90164 -1.08885,0.91626 c -1.49006,1.25388 -7.14389,4.05166 -8.99983,4.45353 -1.10586,0.23945 -1.79102,0.0893 -2.52567,-0.55339 z"
   id="RX15" /><path
   style="fill:#ffff00;stroke:#000000;stroke-width:0;stroke-linecap:square;stroke-linejoin:bevel;paint-order:fill markers stroke"
   d="m 344.24933,361.70663 c -5.61069,-11.67258 -10.14293,-21.26001 -10.07166,-21.3054 1.30528,-0.83129 12.85973,-7.10875 12.92289,-7.02093 0.0487,0.0676 0.57491,2.66806 1.16948,5.77872 1.30371,6.8207 4.45114,18.66723 6.17795,23.25309 1.92132,5.10237 4.53247,10.00643 6.46947,12.15047 0.96219,1.06503 1.62327,2.14055 1.46907,2.39005 -0.31628,0.51176 -7.36951,5.97688 -7.7137,5.97688 -0.12224,0 -4.81282,-9.5503 -10.4235,-21.22288 z"
   id="RX16" /><path
   style="fill:#ffff00;stroke:#000000;stroke-width:0;stroke-linecap:square;stroke-linejoin:bevel;paint-order:fill markers stroke"
   d="m 173.24167,316.53607 v -33.44263 h 26.55738 26.55738 v 33.44263 33.44262 h -26.55738 -26.55738 z"
   id="P9" /><path
   style="fill:#ffff00;stroke:#000000;stroke-width:0;stroke-linecap:square;stroke-linejoin:bevel;paint-order:fill markers stroke"
   d="m 128.18052,340.01967 c 0.18167,-11.42963 1.23325,-19.30017 5.24948,-39.28965 1.33904,-6.66463 2.43462,-13.3593 2.43462,-14.87704 v -2.75954 h 17.45902 17.45902 v 33.44263 33.44262 h -21.38022 -21.38021 z"
   id="P8" /><path
   style="fill:#ffff00;stroke:#000000;stroke-width:0;stroke-linecap:square;stroke-linejoin:bevel;paint-order:fill markers stroke"
   d="m 228.32364,316.53607 v -33.44263 h 17.21311 17.21312 v 2.87311 c 0,1.58021 0.6566,5.97063 1.4591,9.7565 4.27218,20.15428 6.53357,37.02359 6.33366,47.24744 l -0.13703,7.0082 h -21.04098 -21.04098 z"
   id="P10" /><path
   style="fill:#ffff00;stroke:#000000;stroke-width:0;stroke-linecap:square;stroke-linejoin:bevel;paint-order:fill markers stroke"
   d="m 173.24167,376.04426 v -23.60655 h 26.55738 26.55738 v 23.60655 23.60656 h -26.55738 -26.55738 z"
   id="P12" /><path
   style="fill:#ffff00;stroke:#000000;stroke-width:0;stroke-linecap:square;stroke-linejoin:bevel;paint-order:fill markers stroke"
   d="m 118.88778,395.36172 c 0.68816,-9.08792 1.83064,-17.86822 3.24439,-24.9342 1.44659,-7.23012 3.58878,-15.44651 4.46594,-17.12916 0.41706,-0.80004 1.98878,-0.86065 22.3166,-0.86065 h 21.86795 v 23.60655 23.60656 h -18.20609 -18.2061 l 0.32636,-1.35246 c 0.64585,-2.67654 3.27848,-9.77071 5.40958,-14.57723 2.09862,-4.73327 2.24746,-6.2291 0.55522,-5.57972 -0.86285,0.3311 -4.98641,9.91684 -7.03145,16.34548 l -1.56449,4.91803 -6.75242,0.13712 -6.75242,0.13713 z"
   id="P11" /><path
   style="fill:#ffff00;stroke:#000000;stroke-width:0;stroke-linecap:square;stroke-linejoin:bevel;paint-order:fill markers stroke"
   d="m 75.864623,344.25637 c -4.46311,-2.50292 -8.07534,-4.72907 -8.02717,-4.94701 0.084,-0.37994 20.80571,-43.59444 20.97677,-43.74638 0.0458,-0.0406 2.40696,1.36287 5.24712,3.1189 2.84017,1.75603 7.135037,4.16558 9.544167,5.35454 2.40913,1.18896 4.47767,2.25918 4.59676,2.37828 0.33989,0.33989 -3.80162,8.80053 -7.45007,15.21965 -2.826317,4.97264 -14.556397,24.0613 -16.226687,26.4061 -0.47224,0.66294 -1.6441,0.15094 -8.66089,-3.78408 z"
   id="LX14" /><path
   style="fill:#ffff00;stroke:#000000;stroke-width:0;stroke-linecap:square;stroke-linejoin:bevel;paint-order:fill markers stroke"
   d="m 105.09992,302.35045 c -4.06753,-1.96702 -14.801787,-8.25424 -15.204187,-8.90534 -0.1263,-0.20435 2.80643,-9.46942 6.51717,-20.58904 l 6.746807,-20.21749 9.1578,8.81553 c 5.03679,4.84854 9.32971,8.65786 9.53982,8.46514 0.21012,-0.19272 0.26694,0.0922 0.12627,0.63321 -0.31912,1.22725 -12.14823,32.2314 -12.61968,33.07623 -0.25551,0.45787 -1.35633,0.12787 -4.264,-1.27824 z"
   id="LX8" /><path
   style="fill:#ffff00;stroke:#000000;stroke-width:0;stroke-linecap:square;stroke-linejoin:bevel;paint-order:fill markers stroke"
   d="m 80.900313,287.7138 -6.43366,-4.31952 0.89185,-1.74878 c 1.9987,-3.91915 5.28984,-16.59215 8.62522,-33.21265 1.24721,-6.21496 2.36547,-11.39774 2.48501,-11.51729 0.11955,-0.11954 3.14933,2.62729 6.73285,6.10407 3.58353,3.47678 6.902027,6.67313 7.374447,7.10301 0.81082,0.73781 0.49043,1.88639 -5.718857,20.50149 -3.6178,10.84594 -6.79052,20.09998 -7.0505,20.56454 -0.41505,0.74164 -1.25727,0.31788 -6.90636,-3.47487 z"
   id="LX7" /><path
   style="fill:#ffff00;stroke:#000000;stroke-width:0;stroke-linecap:square;stroke-linejoin:bevel;paint-order:fill markers stroke"
   d="m 58.405613,334.57518 -6.39345,-3.57881 0.15669,-1.69736 c 0.30165,-3.2678 4.09931,-13.56556 7.69937,-20.8777 2.85758,-5.80406 10.20253,-18.72251 12.93789,-22.75544 0.31376,-0.46259 2.13408,0.52799 7.02786,3.82438 3.63243,2.44676 6.68483,4.68409 6.78311,4.97183 0.26304,0.77013 -20.64854,43.71521 -21.28046,43.70262 -0.29566,-0.006 -3.41462,-1.62118 -6.93101,-3.58952 z"
   id="LX13" /><path
   style="fill:#ffff00;stroke:#000000;stroke-width:0;stroke-linecap:square;stroke-linejoin:bevel;paint-order:fill markers stroke"
   d="m 40.036163,380.19438 c -2.20418,-1.74293 -4.0076,-3.29921 -4.0076,-3.45841 0,-0.15919 0.79342,-1.20987 1.76316,-2.33484 4.46143,-5.17558 9.85069,-20.50897 12.77915,-36.35894 0.48832,-2.64295 1.02358,-4.74541 1.18947,-4.67214 1.74366,0.77015 12.7863,7.09365 12.7891,7.3236 0.002,0.16781 -4.6109,9.83715 -10.25099,21.48741 l -10.25469,21.18229 z"
   id="LX15" /><path
   style="fill:#ffff00;stroke:#000000;stroke-width:0;stroke-linecap:square;stroke-linejoin:bevel;paint-order:fill markers stroke"
   d="m 53.936603,388.92878 c -1.37599,-0.48169 -3.69976,-1.62793 -5.16394,-2.5472 -1.46417,-0.91926 -2.71746,-1.70318 -2.78507,-1.74204 -0.0676,-0.0389 4.32648,-9.23665 9.76467,-20.43953 5.43818,-11.20287 10.08717,-20.88505 10.33109,-21.51594 l 0.44348,-1.14708 3.31644,1.82893 c 11.09975,6.12121 12.95488,7.2512 12.75039,7.76641 -0.16958,0.42724 -23.26948,37.60519 -23.62788,38.02769 -0.49189,0.57987 -3.04794,0.46234 -5.02918,-0.23124 z"
   id="LX16" /><path
   style="fill:#ffff00;stroke:#000000;stroke-width:0;stroke-linecap:square;stroke-linejoin:bevel;paint-order:fill markers stroke"
   d="m 129.2674,445.14215 c -4.84569,-0.22936 -8.88886,-0.49554 -8.98482,-0.59151 -0.58533,-0.58532 -1.20876,-11.64685 -1.4663,-26.01631 l -0.29749,-16.59836 h 6.51312 c 6.50523,0 6.51279,10e-4 6.24732,1.10655 -1.58069,6.58068 -1.61644,18.36756 -0.0712,23.48361 2.21655,7.33883 7.88041,14.23089 14.44877,17.58197 l 3.1329,1.59836 -5.35597,-0.0737 c -2.94578,-0.0405 -9.32061,-0.2613 -14.1663,-0.49066 z"
   id="P14" /><path
   style="fill:#ffff00;stroke:#000000;stroke-width:0;stroke-linecap:square;stroke-linejoin:bevel;paint-order:fill markers stroke"
   d="m 163.06205,446.33962 c -6.37848,-0.61741 -12.43423,-1.90158 -15.2509,-3.23408 -5.50215,-2.60294 -10.26487,-7.14792 -12.82636,-12.24001 -2.2907,-4.55377 -2.81002,-7.4513 -2.72985,-15.2311 0.042,-4.07674 0.37141,-8.69718 0.7363,-10.32787 l 0.66027,-2.95082 18.56557,-0.12887 18.56558,-0.12886 v 22.38296 22.38297 l -1.84427,-0.067 c -1.01434,-0.0369 -3.65869,-0.24264 -5.87634,-0.4573 z"
   id="P14X" /><path
   style="fill:#ffff00;stroke:#000000;stroke-width:0;stroke-linecap:square;stroke-linejoin:bevel;paint-order:fill markers stroke"
   d="m 173.24167,424.54418 v -22.43434 h 26.55738 26.55738 v 22.38134 22.38135 l -2.82787,-0.28484 c -13.25074,-1.3347 -17.68773,-5.18108 -21.09764,-18.28933 -1.16244,-4.4686 -1.4342,-5.04098 -2.39336,-5.04098 -0.95631,0 -1.23933,0.58537 -2.43593,5.03823 -1.6222,6.03665 -4.01392,10.98124 -6.46144,13.35824 -2.65044,2.57407 -7.58766,4.26137 -14.57885,4.98233 l -3.31967,0.34234 z"
   id="P15" /><path
   style="fill:#ffff00;stroke:#000000;stroke-width:0;stroke-linecap:square;stroke-linejoin:bevel;paint-order:fill markers stroke"
   d="m 228.32364,424.52701 v -22.42872 l 19.05365,0.12872 19.05366,0.12873 0.64828,3.19672 c 1.0198,5.02875 1.00771,15.84533 -0.0219,19.57052 -1.47934,5.35248 -3.28834,8.45112 -7.24602,12.4117 -6.1956,6.20017 -11.34441,7.94987 -26.69261,9.07084 l -4.79508,0.35021 z"
   id="P16" /><path
   style="fill:#ffff00;stroke:#000000;stroke-width:0;stroke-linecap:square;stroke-linejoin:bevel;paint-order:fill markers stroke"
   d="m 219.9099,507.48847 -9.64326,-0.15306 -0.33374,-3.80131 c -0.18355,-2.09072 -0.67311,-5.23984 -1.0879,-6.99803 -0.92167,-3.90677 -2.84233,-45.80824 -2.12019,-46.25455 0.51117,-0.31592 32.85961,-1.6658 33.14032,-1.38293 0.0974,0.0982 -0.41246,13.34649 -1.13302,29.44075 l -1.31011,29.2623 -3.93443,0.0199 c -2.16393,0.011 -8.27389,-0.0489 -13.57767,-0.13312 z"
   id="R15" /><path
   style="fill:#ffff00;stroke:#000000;stroke-width:0;stroke-linecap:square;stroke-linejoin:bevel;paint-order:fill markers stroke"
   d="m 239.64163,505.75738 c 0.004,-1.14959 0.55496,-13.93033 1.22529,-28.40164 0.67033,-14.47131 1.22068,-26.88133 1.223,-27.57782 l 0.004,-1.26634 17.82787,-0.74075 c 9.80533,-0.40741 17.90297,-0.68459 17.99475,-0.61595 0.29113,0.21769 -1.39136,12.85121 -3.17058,23.80742 -1.53925,9.47849 -5.74607,30.25124 -7.09638,35.04098 l -0.51992,1.84426 h -13.74738 -13.74737 z"
   id="R16" /><path
   style="fill:#ffff00;stroke:#000000;stroke-width:0;stroke-linecap:square;stroke-linejoin:bevel;paint-order:fill markers stroke"
   d="m 160.45479,507.3606 c 0,-0.29245 -0.7771,-13.61559 -1.72689,-29.60698 -0.94979,-15.99139 -1.66905,-29.10769 -1.59836,-29.14735 0.0707,-0.0396 5.88262,0.1972 12.91541,0.52634 7.03279,0.32914 14.61271,0.61727 16.84426,0.64029 l 4.05738,0.0418 -10e-4,19.54919 c -0.001,17.67012 -0.0981,20.04553 -1.0063,24.71311 -0.55265,2.84016 -1.13962,6.89923 -1.30437,9.02014 -0.16475,2.12092 -0.54183,3.92873 -0.83795,4.01737 -0.29613,0.0886 -6.56915,0.2999 -13.94005,0.46946 -9.46738,0.21779 -13.40164,0.1522 -13.40164,-0.22342 z"
   id="L16" /><path
   style="fill:#ffff00;stroke:#000000;stroke-width:0;stroke-linecap:square;stroke-linejoin:bevel;paint-order:fill markers stroke"
   d="m 129.08919,498.87213 c -3.56851,-15.78793 -6.88048,-35.20987 -8.64573,-50.69996 l -0.15917,-1.39668 3.73279,0.28291 c 2.05303,0.1556 9.81885,0.53536 17.25738,0.84391 7.43852,0.30855 13.55514,0.58844 13.59248,0.62197 0.0374,0.0335 0.75456,12.01179 1.59381,26.61834 0.83925,14.60656 1.65623,27.94058 1.81551,29.63115 l 0.2896,3.07377 h -13.72399 -13.724 z"
   id="L15" /><path
   style="fill:#ffff00;stroke:#000000;stroke-width:0;stroke-linecap:square;stroke-linejoin:bevel;paint-order:fill markers stroke"
   d="m 30.586043,407.81706 c -8.78775,-5.6468 -16.03974,-10.45296 -16.11554,-10.68036 -0.20415,-0.61245 7.53436,-7.85486 11.41952,-10.68743 1.85503,-1.35246 4.43037,-3.83725 5.72296,-5.52175 l 2.35018,-3.06275 2.85768,2.36809 c 6.85666,5.68195 14.86302,10.46414 18.73973,11.19322 0.89087,0.16754 1.5548,0.46108 1.47541,0.6523 -0.0794,0.19122 -1.1619,2.76519 -2.40556,5.71994 -1.24367,2.95474 -2.71761,7.26969 -3.27544,9.58877 -1.04849,4.359 -3.68881,10.81633 -4.39153,10.74019 -0.21983,-0.0238 -7.58967,-4.66342 -16.37741,-10.31022 z"
   id="S92" /><path
   style="fill:#ffff00;stroke:#000000;stroke-width:0;stroke-linecap:square;stroke-linejoin:bevel;paint-order:fill markers stroke"
   d="m 19.954533,450.0737 c -0.57016,-1.48583 1.80901,-8.05038 5.86957,-16.1951 3.64775,-7.31673 3.95547,-8.15139 3.2612,-8.84565 -0.69427,-0.69427 -1.25451,0.0597 -5.93746,7.9906 -2.84397,4.81647 -6.06525,10.30688 -7.1584,12.20091 -2.46922,4.27831 -3.78828,5.57099 -4.94507,4.8462 -2.4027203,-1.50546 -0.71838,-7.79691 5.31102,-19.83798 2.1665,-4.32662 3.93908,-8.17747 3.93908,-8.55745 0,-0.37998 -0.31959,-0.81351 -0.71021,-0.96341 -0.82402,-0.3162 -5.16804,7.62434 -8.6245,15.76494 -1.2171703,2.86666 -2.7487603,5.61196 -3.5668803,6.39344 -1.39704,1.33449 -1.45173,1.34512 -2.13494,0.41492 -2.5347,-3.45101 1.94972,-16.84909 9.2413603,-27.6104 5.04236,-7.44172 5.88939,-8.96989 5.55527,-10.0226 -0.175,-0.55138 -0.53063,-1.00251 -0.79029,-1.00251 -0.25966,0 -2.15859,2.60041 -4.21985,5.77869 -5.5622303,8.57647 -8.8138903,12.18051 -11.8401203,13.12322 -1.01531,0.31628 -1.10588,0.18988 -1.09829,-1.5327 0.005,-1.03257 0.73412,-3.66684 1.62125,-5.85393 1.71878,-4.23736 6.8180503,-13.71421 8.4524503,-15.70861 l 0.98361,-1.20026 15.7377,10.11135 c 8.65574,5.56125 16.05508,10.29206 16.44299,10.51292 0.56351,0.32083 -0.002,1.62933 -2.8153,6.50933 -1.93632,3.35928 -3.9907,7.64326 -4.56528,9.51995 -1.23414,4.03091 -3.87773,9.2629 -5.64129,11.16483 -1.6225,1.74979 -3.6077,3.04437 -4.02641,2.62567 -0.7337,-0.73371 0.9926,-6.12411 4.45134,-13.89937 3.01407,-6.77564 3.54533,-8.33816 3.01523,-8.86826 -0.35392,-0.35392 -0.76716,-0.64348 -0.91833,-0.64348 -0.39478,0 -3.40555,6.09033 -5.43809,11.00042 -2.02257,4.88602 -4.63628,9.49705 -6.74404,11.89766 -1.65263,1.88225 -2.25018,2.07795 -2.70732,0.88666 z"
   id="S93" /><path
   style="fill:#ffff00;stroke:#000000;stroke-width:0;stroke-linecap:square;stroke-linejoin:bevel;paint-order:fill markers stroke"
   d="m 349.80183,415.14845 c -0.83758,-1.75499 -2.18636,-5.78182 -2.9973,-8.94851 -0.81093,-3.1667 -2.35205,-7.63044 -3.42471,-9.91943 -1.07266,-2.289 -1.89297,-4.19766 -1.82291,-4.24149 0.0701,-0.0438 1.12329,-0.36602 2.3405,-0.716 4.43776,-1.27598 10.20654,-4.79437 17.6259,-10.75004 l 3.1177,-2.50265 2.33605,3.04434 c 1.28483,1.67439 3.85591,4.1509 5.71351,5.50336 1.8576,1.35246 5.26816,4.27617 7.57903,6.49713 3.6734,3.53048 4.10884,4.12389 3.46388,4.72039 -0.84962,0.78577 -31.77259,20.50379 -32.15527,20.50379 -0.13943,0 -0.9388,-1.4359 -1.77638,-3.19089 z"
   id="R92" /><path
   style="fill:#ffff00;stroke:#000000;stroke-width:0;stroke-linecap:square;stroke-linejoin:bevel;paint-order:fill markers stroke"
   d="m 375.44708,448.7367 c -2.17072,-2.87959 -6.06273,-10.40192 -8.95112,-17.30037 -1.02848,-2.45638 -2.05235,-4.52334 -2.27525,-4.59324 -0.22289,-0.0699 -0.71523,0.0689 -1.09408,0.30856 -0.55876,0.35339 -0.12535,1.72161 2.29533,7.2461 3.3019,7.53562 4.37448,10.51376 4.84399,13.44992 0.40615,2.5399 -0.2014,2.5343 -2.98063,-0.0275 -2.39238,-2.20522 -5.57,-8.14294 -6.94353,-12.97471 -0.45656,-1.60607 -2.33732,-5.4678 -4.17947,-8.58162 -1.84214,-3.11382 -3.25934,-5.80713 -3.14932,-5.98514 0.22602,-0.36572 32.20852,-20.87377 32.55283,-20.87377 0.12214,0 1.63679,2.32377 3.3659,5.16393 3.78363,6.21483 6.98425,13.30368 7.41041,16.41283 0.28304,2.06505 0.21899,2.2757 -0.69201,2.2757 -2.29578,0 -6.31416,-4.31052 -11.57644,-12.41804 -2.75955,-4.2516 -4.0149,-5.77868 -4.75039,-5.77868 -1.71219,0 -1.15759,1.39282 3.118,7.8305 6.96112,10.48125 11.62004,21.06905 11.62004,26.40754 0,3.68876 -1.38215,5.15328 -3.0785,3.26196 -0.42456,-0.47336 -2.017,-3.72007 -3.53875,-7.21491 -1.52174,-3.49483 -3.79472,-8.25303 -5.05107,-10.57377 -2.77881,-5.13307 -3.68589,-5.98499 -4.21563,-3.95927 -0.16873,0.6452 1.45082,4.54113 4.58173,11.02166 4.97879,10.3054 6.29609,14.39551 5.39754,16.75888 -0.25543,0.67183 -0.78218,1.2215 -1.17057,1.2215 -0.87168,0 -2.83452,-2.28885 -4.57083,-5.33003 -5.98605,-10.48459 -11.63702,-19.7113 -12.2061,-19.92968 -0.40126,-0.15397 -0.81303,0.13126 -0.98876,0.68492 -0.19968,0.62915 1.00027,3.56154 3.5619,8.70441 4.03308,8.09705 5.65875,12.43012 5.73942,15.29792 0.0718,2.55387 -0.88721,2.39615 -3.07464,-0.50559 z"
   id="R93" /><path
   style="fill:#ffff00;stroke:#000000;stroke-width:0;stroke-linecap:square;stroke-linejoin:bevel;paint-order:fill markers stroke"
   d="m 215.88811,631.906 c -6.48967,-0.14551 -6.79702,-0.19877 -7.1827,-1.24458 -0.72003,-1.95248 -1.59155,-14.32114 -1.59756,-22.6729 -0.006,-8.85935 0.4761,-12.37055 2.27204,-16.53442 1.20234,-2.7876 2.22244,-8.63132 2.22244,-12.73138 0,-2.20925 0.0973,-2.37926 1.84426,-3.22129 5.27978,-2.54489 12.22718,-4.21127 17.55749,-4.21127 h 3.59974 l -0.19834,3.07378 c -0.10908,1.69057 -0.63463,13.36475 -1.16788,25.94262 -0.53325,12.57787 -1.1031,24.91598 -1.26634,27.41803 l -0.29679,4.54918 -4.50329,-0.10788 c -2.4768,-0.0593 -7.55418,-0.17628 -11.28307,-0.25989 z"
   id="R21" /><path
   style="fill:#ffff00;stroke:#000000;stroke-width:0;stroke-linecap:square;stroke-linejoin:bevel;paint-order:fill markers stroke"
   d="m 211.11053,572.13937 c 0,-0.9485 -0.45856,-3.90669 -1.01901,-6.57376 -1.48684,-7.07555 -1.80584,-17.43744 -0.70191,-22.80004 0.66279,-3.21968 0.91504,-7.53597 1.09768,-18.78268 l 0.23714,-14.60236 13.10288,0.28435 c 7.20659,0.15639 13.1868,0.35644 13.28936,0.44457 0.10256,0.0881 -0.39984,13.17057 -1.11644,29.07211 -0.7166,15.90153 -1.29847,29.18852 -1.29303,29.52664 0.007,0.44166 -1.10375,0.61475 -3.94528,0.61475 -4.60238,0 -10.09271,1.03656 -14.6857,2.77263 -5.27202,1.99271 -4.96569,1.99001 -4.96569,0.0438 z"
   id="R17" /><path
   style="fill:#ffff00;stroke:#000000;stroke-width:0;stroke-linecap:square;stroke-linejoin:bevel;paint-order:fill markers stroke"
   d="m 256.21814,574.91038 c -4.43004,-2.23431 -11.02805,-4.38373 -15.72652,-5.1232 l -3.81562,-0.60052 0.30871,-5.95644 c 0.16979,-3.27605 0.78026,-16.5794 1.35661,-29.56301 l 1.04789,-23.60655 13.68835,-0.13081 13.68834,-0.1308 -0.29109,1.36031 c -0.1601,0.74817 -1.901,9.43818 -3.86867,19.31113 l -3.57758,17.95082 0.38964,7.37705 c 0.21431,4.05738 0.33234,10.39587 0.2623,14.08555 l -0.12735,6.70849 z"
   id="R18" /><path
   style="fill:#ffff00;stroke:#000000;stroke-width:0;stroke-linecap:square;stroke-linejoin:bevel;paint-order:fill markers stroke"
   d="m 241.02656,632.79287 c -3.69782,-0.15026 -6.81966,-0.38385 -6.93743,-0.5191 -0.27277,-0.31325 2.46028,-60.52085 2.76092,-60.82149 0.37365,-0.37365 6.18708,0.82527 10.38629,2.14199 2.17588,0.68228 5.92647,2.25334 8.33463,3.49126 l 4.37848,2.25075 -0.3175,9.62448 c -0.37565,11.38711 -1.00739,18.78261 -2.2925,26.8376 -0.97829,6.13184 -2.926,13.55913 -4.20357,16.02969 -0.6714,1.29833 -0.95208,1.42056 -3.06257,1.33368 -1.27789,-0.0526 -5.34893,-0.21859 -9.04675,-0.36886 z"
   id="R22" /><path
   style="fill:#ffff00;stroke:#000000;stroke-width:0;stroke-linecap:square;stroke-linejoin:bevel;paint-order:fill markers stroke"
   d="M 167.83116,631.92259 C 167.83078,631.71 167.05793,618.7 166.1137,603.01148 c -0.94423,-15.68853 -1.71851,-29.27564 -1.72063,-30.19358 l -0.004,-1.66899 5.04099,0.27509 c 5.21948,0.28483 9.55952,1.36299 14.7541,3.66521 l 2.82786,1.25331 v 2.35627 c 0,4.14726 1.03503,9.97335 2.22209,12.50796 1.74607,3.72821 2.33504,8.03973 2.318,16.96866 -0.014,7.35183 -0.71773,18.38745 -1.38459,21.71343 l -0.26136,1.3036 -6.73396,0.29716 c -3.70367,0.16344 -8.67042,0.41469 -11.03722,0.55834 -2.36681,0.14365 -4.30359,0.0872 -4.30396,-0.12535 z"
   id="L22" /><path
   style="fill:#ffff00;stroke:#000000;stroke-width:0;stroke-linecap:square;stroke-linejoin:bevel;paint-order:fill markers stroke"
   d="m 183.39468,572.42738 c -4.32469,-1.80811 -9.35689,-2.95659 -14.70219,-3.35543 l -4.79508,-0.35777 -0.0203,-2.27758 c -0.0112,-1.25267 -0.7534,-14.44971 -1.64943,-29.32676 -0.89603,-14.87705 -1.60617,-27.07739 -1.57807,-27.11186 0.0281,-0.0345 6.16539,-0.16529 13.63845,-0.29072 l 13.58739,-0.22804 0.25471,14.55301 c 0.19654,11.22962 0.44656,15.39535 1.09483,18.24154 0.67882,2.98029 0.78761,5.15221 0.5666,11.31148 -0.15044,4.19262 -0.51305,8.44294 -0.8058,9.44514 -0.29275,1.00221 -0.81107,3.75344 -1.15183,6.11384 -0.34075,2.3604 -0.83104,4.33562 -1.08953,4.38939 -0.25849,0.0538 -1.76588,-0.44404 -3.34976,-1.10624 z"
   id="L18" /><path
   style="fill:#ffff00;stroke:#000000;stroke-width:0;stroke-linecap:square;stroke-linejoin:bevel;paint-order:fill markers stroke"
   d="m 138.94936,562.37066 0.29133,-14.93295 -3.81011,-18.81148 -3.8101,-18.81148 h 13.39159 13.39158 l 0.29902,3.56558 c 0.31385,3.74253 3.22753,53.23487 3.22753,54.82356 0,0.75585 -0.62733,1.02643 -3.53632,1.52526 -4.93677,0.84656 -11.7839,3.22054 -16.09157,5.57912 l -3.64428,1.99536 z"
   id="L17" /><path
   style="fill:#ffff00;stroke:#000000;stroke-width:0;stroke-linecap:square;stroke-linejoin:bevel;paint-order:fill markers stroke"
   d="m 144.06878,628.78356 c -3.14265,-9.96161 -5.24639,-26.92224 -5.25134,-42.33696 l -0.002,-6.237 1.46578,-1.04372 c 4.1637,-2.96482 15.13172,-7.03171 20.16709,-7.47787 l 1.71484,-0.15194 1.78607,30.2459 c 0.98233,16.63524 1.74321,30.29941 1.69083,30.36482 -0.0524,0.0654 -4.63399,0.2653 -10.18136,0.44421 l -10.08612,0.32529 z"
   id="L21" /><path
   style="fill:#ffff00;stroke:#000000;stroke-width:0;stroke-linecap:square;stroke-linejoin:bevel;paint-order:fill markers stroke"
   d="m 154.56711,690.3484 c -2.57909,-8.67362 -5.30333,-23.10903 -6.64399,-35.20578 -0.87873,-7.92879 -1.72477,-19.5787 -1.44304,-19.87073 0.21774,-0.22572 19.02754,-1.06004 19.23442,-0.85316 0.10097,0.10097 3.08586,48.33444 3.09853,50.07006 0.001,0.18138 -0.65076,0.47324 -1.44908,0.64858 -1.94512,0.42722 -6.75012,3.57851 -9.55648,6.26748 l -2.27738,2.1821 z"
   id="L25" /><path
   style="fill:#ffff00;stroke:#000000;stroke-width:0;stroke-linecap:square;stroke-linejoin:bevel;paint-order:fill markers stroke"
   d="m 182.48634,687.38475 c -2.36289,-1.86183 -5.8784,-3.12118 -8.86245,-3.17476 l -2.83904,-0.051 -0.0203,-1.72131 c -0.0112,-0.94673 -0.64854,-12.12296 -1.41638,-24.83607 -0.76784,-12.71311 -1.36239,-23.15705 -1.32122,-23.20875 0.10345,-0.12992 21.66026,-1.08342 21.78029,-0.96338 0.31607,0.31606 -2.283,24.75754 -4.91566,46.22666 l -1.07614,8.77584 z"
   id="L26" /><path
   style="fill:#ffff00;stroke:#000000;stroke-width:0;stroke-linecap:square;stroke-linejoin:bevel;paint-order:fill markers stroke"
   d="m 212.68652,670.74644 c -1.8931,-15.99025 -3.11809,-27.44101 -3.68703,-34.46514 l -0.21318,-2.63182 11.36703,0.35373 c 6.25186,0.19456 11.41107,0.39014 11.46491,0.43463 0.0865,0.0715 -2.17459,49.61767 -2.2722,49.78948 -0.0213,0.0376 -1.68036,0.0683 -3.68672,0.0683 -3.64375,0 -6.96352,1.10015 -9.89281,3.27842 -0.99158,0.73735 -1.01673,0.59994 -3.08,-16.82761 z"
   id="R25" /><path
   style="fill:#ffff00;stroke:#000000;stroke-width:0;stroke-linecap:square;stroke-linejoin:bevel;paint-order:fill markers stroke"
   d="m 239.54669,690.57963 c -1.80683,-1.68058 -4.35191,-3.56196 -5.65574,-4.18085 l -2.37059,-1.12524 1.07002,-23.18021 c 0.58851,-12.74912 1.08647,-24.12079 1.10656,-25.27038 l 0.0365,-2.09016 h 3.1195 c 1.71573,0 5.80999,0.14466 9.09836,0.32148 l 5.97886,0.32148 v 2.29128 c 0,3.50835 -1.39854,17.64865 -2.50667,25.34445 -1.22929,8.53718 -3.47973,19.63291 -5.25014,25.88565 l -1.34155,4.73811 z"
   id="R26" /><path
   style="fill:#ffff00;stroke:#000000;stroke-width:0;stroke-linecap:square;stroke-linejoin:bevel;paint-order:fill markers stroke"
   d="m 223.40561,741.99963 c 0,-4.47161 -3.63848,-12.46894 -8.17522,-17.96904 -3.0595,-3.70918 -3.36053,-4.47215 -4.37362,-11.08505 -1.28715,-8.40179 -0.097,-12.12462 4.85021,-15.17176 2.30431,-1.41929 3.48518,-1.80973 5.94769,-1.96653 3.46835,-0.22085 5.12668,0.40973 7.61107,2.89412 1.53904,1.53904 2.99233,1.66967 2.99233,0.26898 0,-1.10681 -4.15186,-4.49147 -6.29845,-5.1346 -2.57226,-0.77067 -4.84758,-0.72913 -7.73979,0.1413 -1.3152,0.39582 -2.43165,0.67245 -2.48099,0.61475 -0.0494,-0.0577 -0.22513,-0.99016 -0.39064,-2.07213 -0.29134,-1.90455 -0.23231,-2.01032 1.85351,-3.32073 3.86501,-2.42819 5.67538,-2.9616 9.19646,-2.70967 4.28187,0.30637 8.47577,2.51792 12.87934,6.79162 1.83201,1.77797 3.43652,3.12709 3.56558,2.99803 0.12905,-0.12906 0.23465,1.45073 0.23465,3.51065 0,4.70661 1.17465,13.79132 2.36668,18.30387 4.8977,18.54072 6.11804,23.40052 5.92465,23.59391 -0.12388,0.12389 -5.30445,0.55989 -11.51238,0.96891 -6.20793,0.40901 -12.44903,0.84314 -13.86912,0.96472 l -2.58196,0.22107 z"
   id="R29" /><path
   style="fill:#ffff00;stroke:#000000;stroke-width:0;stroke-linecap:square;stroke-linejoin:bevel;paint-order:fill markers stroke"
   d="m 161.9302,742.8595 c -6.89754,-0.46275 -13.16451,-0.85763 -13.92659,-0.87748 -1.07414,-0.028 -1.33215,-0.22958 -1.14782,-0.89677 7.01584,-25.39403 7.85956,-29.27039 8.48327,-38.97541 l 0.33188,-5.16394 3.50457,-3.44262 c 6.55349,-6.43764 13.17152,-8.6012 18.84467,-6.16067 1.39062,0.59823 2.91046,1.50985 3.3774,2.02582 0.46695,0.51597 1.16023,0.93813 1.54061,0.93813 0.54481,0 0.61965,0.49589 0.35257,2.33606 -0.18648,1.28484 -0.41217,2.4191 -0.50154,2.52058 -0.0894,0.10149 -1.06138,-0.17515 -2.16005,-0.61475 -4.52957,-1.81238 -9.85385,-0.65506 -13.28835,2.88845 -1.5633,1.61291 -1.62216,1.78693 -0.8616,2.54749 0.76056,0.76056 0.96345,0.68071 2.97011,-1.16897 2.57308,-2.37178 5.13789,-3.32415 7.80408,-2.89781 4.39945,0.7035 9.21945,4.06972 10.20392,7.12627 0.81237,2.52224 0.63695,8.11615 -0.41428,13.21036 -0.82115,3.97926 -1.19192,4.84065 -2.93679,6.82293 -4.66737,5.30241 -7.94711,11.72912 -8.85145,17.34456 -0.27723,1.72141 -0.56696,3.16343 -0.64384,3.20449 -0.0769,0.0411 -5.78323,-0.30396 -12.68077,-0.76672 z"
   id="L29" /><path
   style="fill:#ffff00;stroke:#000000;stroke-width:0;stroke-linecap:square;stroke-linejoin:bevel;paint-order:fill markers stroke"
   d="m 162.04155,793.9541 c -0.80521,-0.98824 -1.58106,-4.36063 -1.58402,-6.88525 -0.002,-1.98264 -0.14699,-2.33606 -0.95621,-2.33606 -0.75708,0 -1.02387,0.46938 -1.29521,2.27881 -0.34127,2.27581 -1.80762,4.40131 -2.66908,3.8689 -0.70651,-0.43665 -1.46991,-3.68663 -1.47294,-6.27066 -0.003,-2.16321 -0.0937,-2.33607 -1.23225,-2.33607 -1.18422,0 -1.22951,0.11669 -1.22951,3.1677 0,3.52912 -0.46726,4.169 -2.21034,3.02688 -1.57733,-1.0335 -2.29228,-3.76151 -1.73854,-6.63366 0.24026,-1.24621 0.56466,-3.87034 0.72088,-5.83141 0.23696,-2.97453 0.16119,-3.56557 -0.45709,-3.56557 -0.40763,0 -0.90712,-0.0133 -1.10999,-0.0295 -0.54561,-0.0437 -1.49645,4.33656 -1.55439,7.16069 l -0.0505,2.45902 -0.96753,-1.46786 c -1.43113,-2.17118 -1.69754,-5.05567 -0.79302,-8.58635 0.96178,-3.75418 0.97847,-3.47038 -0.20416,-3.47038 -0.69577,0 -1.22397,0.59076 -1.78756,1.99933 -1.1445,2.86039 -1.88159,1.75946 -1.84197,-2.75119 0.0295,-3.36006 0.22943,-4.07076 2.3247,-8.26414 1.26083,-2.52336 2.29415,-5.23401 2.29626,-6.02367 0.004,-1.40936 1.64557,-8.90482 2.03604,-9.29529 0.26913,-0.26913 28.45185,1.548 28.75808,1.85424 0.13322,0.13322 0.69325,2.42416 1.2445,5.09098 1.45145,7.02171 1.12813,17.04498 -0.71957,22.30777 -1.47683,4.20643 -2.83032,5.65442 -5.74587,6.14699 -2.45641,0.41501 -2.35356,1.0856 0.40173,2.61937 1.12972,0.62887 2.05404,1.33363 2.05404,1.56613 0,0.789 -5.94341,9.31312 -7.01865,10.06625 -1.29768,0.90893 -2.52461,0.96036 -3.19787,0.13405 z"
   id="L30" /><path
   style="fill:#ffff00;stroke:#000000;stroke-width:0;stroke-linecap:square;stroke-linejoin:bevel;paint-order:fill markers stroke"
   d="m 231.11154,790.91385 c -2.44347,-2.88022 -2.71522,-3.44119 -3.03768,-6.27049 -0.42699,-3.74642 -1.62144,-7.07442 -3.35468,-9.34681 -4.30729,-5.64714 -5.06909,-14.35835 -2.2069,-25.23589 0.5694,-2.16394 1.07719,-3.98985 1.12844,-4.05759 0.0512,-0.0677 5.05415,-0.44655 11.11756,-0.84179 6.06341,-0.39525 12.4785,-0.84726 14.25576,-1.00448 l 3.23139,-0.28584 0.82599,3.84379 c 0.45429,2.11408 0.82656,4.61332 0.82725,5.55386 8.2e-4,1.09859 0.64265,2.76523 1.79494,4.6609 0.98651,1.62295 2.0925,3.92657 2.45775,5.11915 0.73166,2.38898 0.82952,7.11275 0.17922,8.65134 -0.36478,0.86304 -0.5204,0.72739 -1.26955,-1.10656 -0.59645,-1.46015 -1.14508,-2.09016 -1.82014,-2.09016 -0.80236,0 -0.91312,0.2295 -0.65267,1.35246 1.44403,6.22629 1.47277,7.16746 0.29664,9.71311 l -1.1361,2.45902 -0.6946,-4.67213 c -0.71172,-4.78739 -1.59244,-6.61349 -2.66996,-5.53597 -0.43135,0.43135 -0.41789,1.85719 0.0555,5.88056 0.34371,2.92113 0.61127,6.071 0.59458,6.99971 -0.0359,1.99707 -1.5327,4.21308 -2.8457,4.21308 -0.80658,0 -0.94991,-0.44223 -1.07596,-3.31968 -0.12384,-2.82707 -0.27802,-3.31967 -1.03908,-3.31967 -0.73058,0 -1.0012,0.66665 -1.48299,3.65325 -0.66052,4.09454 -1.41295,5.19483 -2.62937,3.84501 -0.42572,-0.4724 -0.90194,-1.46752 -1.05826,-2.21137 -0.15632,-0.74386 -0.39909,-1.90574 -0.53949,-2.58197 -0.16153,-0.77802 -0.59038,-1.22951 -1.16783,-1.22951 -0.79986,0 -0.93958,0.51455 -1.13124,4.16632 -0.16439,3.13196 -0.44282,4.414 -1.12151,5.16394 -1.59221,1.75937 -2.91981,1.26634 -5.83133,-2.16559 z"
   id="R30" /><path
   style="fill:#ffff00;stroke:#000000;stroke-width:0;stroke-linecap:square;stroke-linejoin:bevel;paint-order:fill markers stroke"
   d="m 185.83093,447.94054 c -2.23152,-0.10082 -4.08659,-0.21265 -4.12237,-0.24852 -0.0358,-0.0359 0.0117,-0.0652 0.1055,-0.0652 0.27117,0 2.84505,-0.66557 3.89763,-1.00787 1.97336,-0.64175 3.78742,-1.47911 5.07273,-2.34156 l 0.5818,-0.39039 0.0263,1.6743 c 0.0145,0.92086 0.002,1.87969 -0.028,2.13072 l -0.0543,0.45644 -0.71099,-0.0123 c -0.39105,-0.007 -2.53679,-0.0948 -4.76832,-0.19562 z"
   id="P15X" /><path
   style="fill:#ffff00;stroke:#000000;stroke-width:0;stroke-linecap:square;stroke-linejoin:bevel;paint-order:fill markers stroke"
   d="m 205.98109,447.69202 c -0.0526,-0.59267 -0.2277,-5.12664 -0.2269,-5.87621 l 5e-4,-0.46424 0.36221,0.46424 c 2.05959,2.63967 6.10259,4.69861 11.26352,5.73606 0.29753,0.0598 0.52709,0.12261 0.51015,0.13956 -0.0216,0.0216 -11.12612,0.53254 -11.80294,0.54306 -0.0321,5e-4 -0.08,-0.24361 -0.10654,-0.54247 z"
   id="P15Y" /><path
   style="fill:#ffff00;stroke:#000000;stroke-width:0;stroke-linecap:square;stroke-linejoin:bevel;paint-order:fill markers stroke"
   d="m 228.35892,376.07573 v -23.82139 h 21.71971 21.71971 l 0.85066,2.69512 c 3.68199,11.66556 5.95982,25.06841 7.03312,41.38314 l 0.2345,3.56451 -6.04362,-0.002 -6.04361,-0.002 -0.96282,-3.33399 c -1.76189,-6.10097 -6.87305,-18.57032 -7.61193,-18.57032 -0.16638,0 -0.58676,0.17752 -0.93419,0.3945 -0.58939,0.36808 -0.4984,0.68821 1.35913,4.78166 2.18912,4.8242 3.96381,9.46104 5.30608,13.86356 l 0.87472,2.869 h -18.75073 -18.75073 z"
   id="P13" /><path
   style="fill:#ffff00;stroke:#000000;stroke-width:0;stroke-linecap:square;stroke-linejoin:bevel;paint-order:fill markers stroke"
   d="m 253.05948,444.73245 c 13.68713,-6.61894 19.14594,-19.54102 16.14904,-38.22795 -0.2914,-1.81703 -0.6141,-3.57755 -0.7171,-3.91227 -0.17309,-0.56249 0.24523,-0.60857 5.52463,-0.60857 h 5.71189 l 0.22342,2.13755 c 0.31789,3.04146 0.2736,9.60538 -0.12989,19.24953 -0.29311,7.00567 -1.29595,21.45435 -1.49916,21.59947 -0.0743,0.0531 -26.57509,1.19478 -27.51464,1.1854 -0.37242,-0.004 0.6409,-0.64414 2.25181,-1.42316 z"
   id="P16X" /></svg>
