<?xml version="1.0" encoding="UTF-8" standalone="no"?>
<svg
   version="1.1"
   id="Layer_1"
   x="0px"
   y="0px"
   viewBox="0 0 348.90302 793.13501"
   xml:space="preserve"
   sodipodi:docname="front.svg"
   inkscape:version="1.3 (0e150ed6c4, 2023-07-21)"
   width="348.90302"
   height="793.13501"
   xmlns:inkscape="http://www.inkscape.org/namespaces/inkscape"
   xmlns:sodipodi="http://sodipodi.sourceforge.net/DTD/sodipodi-0.dtd"
   xmlns="http://www.w3.org/2000/svg"
   xmlns:svg="http://www.w3.org/2000/svg"><defs
   id="defs112" /><sodipodi:namedview
   id="namedview112"
   pagecolor="#ffffff"
   bordercolor="#000000"
   borderopacity="0.25"
   inkscape:showpageshadow="2"
   inkscape:pageopacity="0.0"
   inkscape:pagecheckerboard="0"
   inkscape:deskcolor="#d1d1d1"
   inkscape:zoom="1.4377838"
   inkscape:cx="222.56476"
   inkscape:cy="44.860709"
   inkscape:window-width="1366"
   inkscape:window-height="745"
   inkscape:window-x="-8"
   inkscape:window-y="-8"
   inkscape:window-maximized="1"
   inkscape:current-layer="Layer_1" />&#10;<style
   type="text/css"
   id="style1">&#10;	.st0{fill:#231F20;}&#10;	.st1{fill:none;stroke:#231F20;stroke-miterlimit:10;}&#10;	.st2{fill:none;stroke:#231F20;stroke-width:0.75;stroke-miterlimit:10;}&#10;</style>&#10;<g
   id="g1"
   transform="translate(-119.44805,-146.0647)">&#10;	<path
   class="st0"
   d="m 146.5,595.8 c -0.3,0 -0.6,0 -0.8,-0.2 -1.4,-0.6 -1.4,-3.2 -1.4,-3.4 l 1.6,0.2 c 0,0.6 0.2,1.8 0.5,1.9 0,0 0.8,0.3 2.7,-1.6 0,0 12.2,-15.9 22.3,-39.5 l 7.5,-15.1 v -11.6 c -1.4,-1.6 -10.9,-12.2 -21.2,-11.2 l -0.2,-1.6 c 11.9,-1.1 22.3,11.4 22.6,12 0.2,0.2 0.2,0.3 0.2,0.5 v 12 c 0,0.2 0,0.3 -0.2,0.3 l -7.5,15.3 c -10.1,23.9 -22.5,39.8 -22.6,40 -1.2,1.3 -2.5,2 -3.5,2 z"
   id="path1" />&#10;</g>&#10;<g
   id="g2"
   transform="translate(-119.44805,-146.0647)">&#10;	<path
   class="st0"
   d="m 260.5,206.6 c 0,0 -1.1,-1.4 -2.6,-4.2 -4.3,-7.9 -9.6,-24.1 2.7,-44.5 0.2,-0.5 6.3,-10.4 25.4,-11.4 1,-0.2 26,-3.4 40.5,11.1 8.3,8.3 11.4,20.9 9,37.4 0,0.2 -0.6,2.6 -1.1,4.5 -0.8,3.1 -1.4,3.1 -1.8,3.1 v -0.8 l -0.5,-0.6 c 0.2,-0.2 0.5,-1 0.8,-2.1 0.5,-1.9 1.1,-4.3 1.1,-4.3 2.2,-15.7 -0.6,-27.9 -8.7,-35.8 -14,-14 -38.9,-10.6 -39.2,-10.6 -18.3,1 -24.1,10.6 -24.1,10.8 -12,19.7 -6.9,35.3 -2.7,42.9 1.4,2.4 2.4,3.9 2.6,3.9 z"
   id="path2" />&#10;</g>&#10;<g
   id="g3"
   transform="translate(-119.44805,-146.0647)">&#10;	<path
   class="st0"
   d="m 294.4,260 c -0.5,0 -1.1,0 -1.6,-0.2 0,0 -0.6,0 -1.6,-0.2 -5.6,-0.5 -24.4,-4.3 -32,-33.2 -1,0.3 -2.6,0.6 -3.9,0 -1.6,-1 -2.6,-2.9 -2.6,-6.1 0,-0.2 -0.5,-9.5 -3.5,-14 L 249,206 c 0,0 -0.3,-1.9 -0.3,-3.9 0,-3.4 0.6,-5.1 2.2,-5.8 1.9,-0.6 4.5,1 8.3,5.1 0.2,0.3 0.3,0.5 0.5,0.6 0.2,0.2 0.5,0.5 0.6,0.8 l -1.3,1 c -0.2,-0.2 -0.3,-0.3 -0.5,-0.5 -0.2,-0.2 -0.5,-0.5 -0.6,-0.8 -4.3,-4.8 -5.9,-4.8 -6.6,-4.7 -0.3,0.2 -1.1,0.8 -1.1,4.2 0,1.4 0.2,2.9 0.3,3.4 3.2,5 3.7,14.3 3.7,14.8 0.2,2.6 0.6,4.2 1.8,4.8 1.3,0.8 3.2,-0.3 3.2,-0.3 l 1,-0.5 0.3,1.1 c 7.1,28.7 25.4,32.4 30.8,32.9 1,0.2 1.6,0.2 1.6,0.2 10.6,1.1 19.9,-9.5 26,-18.6 5,-7.5 8,-14.6 8.2,-14.6 l 0.2,-0.5 h 0.6 c 4.2,0.3 8.2,-8.2 10.6,-22.6 0.2,-0.8 0.3,-1.4 0.3,-1.9 l -7.9,-0.2 v -1.6 h 2.7 l 7.1,0.2 -0.2,1 c 0,0 -0.2,1.1 -0.5,2.9 -1.8,10.9 -5.3,23.6 -11.7,23.9 -0.8,1.8 -3.7,7.9 -8,14.4 -8.6,12.7 -17.4,19.2 -25.9,19.2 z"
   id="path3" />&#10;</g>&#10;<g
   id="g4"
   transform="translate(-119.44805,-146.0647)">&#10;	<path
   class="st0"
   d="m 137.8,597.4 c -0.5,0 -1.1,-0.2 -1.4,-0.5 -0.6,-0.6 -0.8,-1.8 -0.6,-3.2 -1,1.1 -2.4,2.9 -4.2,2.9 -1,0 -1.6,-0.5 -2.1,-1.1 -1,-1.3 -0.8,-3.5 -0.3,-5.8 -0.2,0.2 -0.3,0.3 -0.5,0.5 l -0.2,0.2 c -0.5,0.3 -1.4,1 -2.4,0.5 -0.8,-0.5 -1.3,-1.4 -1.3,-2.7 -0.2,-6.7 0.6,-12.5 2.4,-18 0.8,-2.2 1.8,-4.7 3.1,-6.9 -2.1,2.1 -6.1,4.3 -8.7,2.7 -4.7,-2.9 -0.5,-10.3 1.3,-13.5 2.9,-5.1 6.6,-10.4 11.9,-16.7 0.5,-0.6 1,-1.3 1.8,-1.9 1.4,-1.1 3.2,-2.2 5,-3.2 1.8,-1 3.5,-2.1 5.1,-3.4 2.1,-1.9 4.7,-4.2 6.6,-6.7 l 0.2,-0.2 c 1,-1.3 3.5,-4.5 3.4,-6.1 -0.3,-5 1.6,-22.3 1.6,-23.1 -0.2,-4.3 0.5,-8.8 1.3,-13 2.9,-14.6 8.5,-28.9 13.5,-41.1 2.2,-5.6 4.7,-11.1 6.9,-15.7 0.6,-1.6 1.4,-3.2 2.2,-4.8 1,-1.9 1.1,-4.3 1.1,-6.7 0,-1 0,-2.1 0.2,-3.2 0.3,-3.7 0.6,-7.4 1.4,-11.2 0.5,-2.2 1.3,-4.3 2.2,-6.4 0.8,-1.8 1.6,-3.7 1.9,-5.6 0.8,-3.4 1.3,-6.7 1.4,-10.1 0.3,-5.1 0.5,-9.8 0.3,-14 -7.5,-49.6 17.8,-65.5 18,-65.7 l 57.5,-30.3 v -18 h 1.6 v 18.5 c 0,0.3 -0.2,0.6 -0.5,0.6 L 209.7,295 c -0.2,0.2 -24.6,15.6 -17.2,64.2 0.2,4.3 0,8.8 -0.3,14.1 -0.2,3.5 -0.6,6.9 -1.4,10.4 -0.5,2.1 -1.3,4 -2.1,5.8 -0.8,2.1 -1.6,4 -2.1,6.1 -0.8,3.7 -1.1,7.4 -1.4,10.9 -0.2,1 -0.2,1.9 -0.2,3.1 0,2.6 0,5.1 -1.3,7.4 -0.8,1.6 -1.6,3.2 -2.2,4.8 -2.2,4.7 -4.7,10.3 -6.9,15.7 -5,12.2 -10.6,26.3 -13.5,40.8 -0.8,4 -1.4,8.5 -1.3,12.8 0,0.3 -1.9,18.1 -1.6,23 0.2,2.2 -2.4,5.5 -3.7,7.2 l -0.2,0.2 c -2.1,2.7 -4.7,5.1 -6.9,7.1 -1.8,1.4 -3.5,2.4 -5.3,3.5 -1.8,1 -3.4,1.9 -4.8,3.1 -0.6,0.5 -1,1 -1.4,1.6 -5.3,6.3 -9,11.4 -11.7,16.2 -1.6,2.9 -5.1,9.3 -1.9,11.4 2.1,1.4 6.6,-1.8 7.7,-3.7 0.6,-1 1.3,-1.9 1.9,-2.9 1.1,-1.8 2.2,-3.5 3.7,-5.1 2.7,-3.1 5.6,-5.3 8.7,-6.9 0.2,0 0.2,-0.2 0.3,-0.2 0.3,-0.2 0.8,0 1.1,0.3 0.3,0.3 0,0.8 -0.3,1.1 -0.2,0 -0.2,0.2 -0.3,0.2 -1.9,1.1 -3.7,3.2 -5.1,5.1 -0.3,0.3 -0.6,0.6 -0.8,1 -5,5.6 -8.5,11.4 -10.4,17 -1.8,5.1 -2.6,10.8 -2.4,17.3 0,0.8 0.2,1.3 0.3,1.4 0.2,0.2 0.6,-0.2 0.8,-0.3 0.8,-0.6 1.6,-1.4 2.4,-2.6 2.1,-6.4 5.1,-12.5 8.3,-18.8 0.2,-0.3 0.6,-0.5 1,-0.3 0.3,0.2 0.6,0.6 0.5,1 -1.6,5.5 -3.7,11.7 -7.4,17.3 -0.3,0.5 -0.6,1.1 -1,1.6 0,0.2 -0.2,0.3 -0.2,0.5 v 0.2 c -0.3,1.3 -1.4,5.3 -0.5,6.7 0.2,0.2 0.3,0.3 0.8,0.3 1,0 2.4,-1.6 3.1,-2.4 0.6,-0.8 1.3,-1.8 1.9,-2.6 2.1,-6.7 7.2,-16.1 9.2,-19.6 0.2,-0.3 0.6,-0.5 1,-0.3 0.3,0.2 0.6,0.5 0.6,0.8 -0.2,2.2 -1.3,4.7 -2.4,6.9 -0.3,0.6 -0.6,1.3 -1,1.9 -1.9,4 -3.7,7.9 -6.1,11.2 -0.8,2.6 -1.1,4.5 -0.5,5.1 0.3,0.3 1.3,0.2 3.4,-1.1 0.2,-0.3 1,-1.1 2.1,-2.4 2.6,-3.2 9.3,-12 9,-17 l 1.6,-0.2 c 0.3,5 -4.8,12.4 -9.3,18.1 -1.3,1.4 -2.1,2.4 -2.1,2.4 l -0.2,0.2 c -1,1 -2.6,1.8 -3.9,1.8 z"
   id="path4" />&#10;</g>&#10;<g
   id="g5"
   transform="translate(-119.44805,-146.0647)">&#10;	<path
   class="st0"
   d="m 180.1,531.7 h -1.6 c 0,-0.6 0.2,-1.3 0.3,-1.9 2.1,-9.5 14.4,-29.2 15.1,-30 1.3,-1.6 2.6,-3.5 3.9,-5.6 16.5,-26 16.4,-58.1 16.2,-61.5 -4.3,-4.8 -8.7,-8.7 -12.8,-11.1 -11.7,-6.9 -18.5,-1.9 -18.6,-1.6 -0.3,0.3 -0.6,0.3 -0.8,0.3 v -1.6 c -0.2,0 -0.2,0 -0.2,0 0.6,-0.5 8.2,-5.8 20.6,1.4 4.3,2.4 8.8,6.4 13.3,11.6 l 0.2,0.2 v 0.3 c 0,0.3 1.1,34.8 -16.5,62.6 -1.3,2.1 -2.6,4 -3.9,5.6 0,0.2 -12.7,20.2 -14.8,29.5 -0.3,0.8 -0.4,1.5 -0.4,1.8 z"
   id="path5" />&#10;</g>&#10;<g
   id="g6"
   transform="translate(-119.44805,-146.0647)">&#10;	<path
   class="st0"
   d="m 215.2,433.3 -1,-1.3 c 0,0 2.9,-2.2 4.2,-6.7 3.4,-11.4 5.3,-23.6 5.8,-36.4 0,-0.3 2.2,-12.5 1,-29.1 -1,-14 -4,-26.8 -9.2,-37.7 -3.7,-8.3 -8.2,-15.4 -13.5,-21.5 l -0.2,-0.2 1.1,-1.1 0.2,0.2 c 5.5,6.3 10,13.3 13.8,21.8 5.1,11.2 8.2,24.1 9.2,38.4 1.3,16.7 -1,29.2 -1,29.4 -0.3,12.8 -2.2,25.2 -5.8,36.8 -1.2,5 -4.4,7.2 -4.6,7.4 z"
   id="path6" />&#10;</g>&#10;<g
   id="g7"
   transform="translate(-119.44805,-146.0647)">&#10;	<path
   class="st0"
   d="m 257.5,925.9 c -0.3,0 -0.6,0 -1.1,-0.2 -1.4,-0.6 -2.2,-2.6 -2.6,-6.1 -0.5,0.5 -0.8,0.8 -1.4,1 -1.9,0.6 -3.9,-0.8 -3.9,-0.8 l -0.2,-0.2 -0.2,-0.2 c -3.5,-9.3 4.3,-34.2 5,-36.3 l 2.4,-36.6 c -0.8,-2.1 -9.2,-22.8 -14.9,-59.9 -4.2,-26.5 -3.1,-34.5 -1.8,-43.8 0.6,-4.7 1.3,-9.6 1.3,-17.3 0.3,-23.6 -6.4,-75.3 -12.8,-88.8 -6.4,-13.6 -7.7,-33.9 -7.7,-34 l 0.5,-35 c -1.1,-47.4 3.7,-66.6 6.6,-73.9 0.8,-1.9 1.4,-3.1 1.8,-3.5 -6.6,-27.1 2.4,-56.7 3.4,-59.9 l -0.3,-1 c -0.5,-1.3 -1.1,-2.7 -1.6,-4.3 -3.2,-10 -6.7,-25.2 -6.7,-25.4 l 1.6,-0.3 c 0,0.2 3.5,15.4 6.7,25.4 0.5,1.6 1,2.9 1.6,4.2 l 0.6,1.4 -0.2,0.3 c -0.2,0.3 -10.3,31.5 -3.4,59.6 l 0.2,0.3 -0.3,0.3 c 0,0 -0.8,1 -1.8,3.5 -2.4,5.8 -7.7,24.4 -6.6,73.2 l -0.5,35 c 0,0.2 1.3,20.1 7.7,33.4 6.4,13.5 13.2,65.7 12.8,89.4 -0.2,7.9 -0.8,13 -1.4,17.5 -1.1,9.2 -2.2,17.2 1.8,43.3 5.9,38.7 14.8,59.6 14.9,59.7 v 0.2 l -2.4,37.2 c -0.2,0.3 -8.2,25.8 -5.1,35 0.3,0.2 1.3,0.8 2.2,0.5 1,-0.3 1.4,-1.6 1.8,-2.7 0,-3.4 0.5,-6.4 0.5,-6.6 l 1.1,-7.9 0.5,7.9 c 0.2,3.2 -0.2,5.3 -0.5,6.7 0,6.3 1.1,7.5 1.8,7.7 0.6,0.3 1.6,-0.3 2.2,-1 l 0.2,-0.2 c 0,0 3.2,-1.8 2.7,-11.6 h 1.6 c 0.5,10.3 -2.9,12.7 -3.5,13 -0.9,1.3 -1.8,1.8 -2.6,1.8 z"
   id="path7" />&#10;</g>&#10;<g
   id="g8"
   transform="translate(-119.44805,-146.0647)">&#10;	<path
   class="st0"
   d="m 266.1,930 c -0.3,0 -0.8,0 -1,-0.2 -1.1,0.2 -2.2,-0.2 -3.1,-1 -3.5,-3.5 -1.3,-16.1 -1.1,-17.3 l 1.6,0.3 c -0.6,3.5 -1.9,13.5 0.6,15.9 0.5,0.5 1,0.6 1.8,0.5 h 0.3 l 0.3,0.2 c 0,0 0.6,0.3 1.6,-0.2 1.3,-0.8 3.4,-3.9 3.4,-15.3 h 1.6 c 0,9.5 -1.4,15.1 -4.2,16.7 -0.7,0.3 -1.3,0.4 -1.8,0.4 z"
   id="path8" />&#10;</g>&#10;<g
   id="g9"
   transform="translate(-119.44805,-146.0647)">&#10;	<path
   class="st0"
   d="m 274,933.6 c -0.2,0 -0.3,0 -0.5,0 h -0.2 c 0,0 -5.5,-2.4 -4.5,-10.1 l 1.6,0.2 c -0.8,5.9 2.7,8 3.4,8.3 0.8,0 1.3,-0.2 1.9,-0.6 3.1,-3.1 2.6,-14.3 2.1,-18.3 l 1.6,-0.2 c 0,0.6 1.6,15.4 -2.6,19.6 -0.9,0.8 -1.8,1.1 -2.8,1.1 z"
   id="path9" />&#10;</g>&#10;<g
   id="g10"
   transform="translate(-119.44805,-146.0647)">&#10;	<path
   class="st0"
   d="m 282.5,939.2 c -0.5,0 -1.1,-0.2 -1.6,-0.3 -3.2,-1.6 -2.9,-8.2 -2.7,-9 l 1.6,0.2 c -0.2,1.6 0,6.4 1.9,7.4 1.3,0.6 3.2,-0.6 4.7,-1.8 0.6,-0.8 5.6,-8.7 4.8,-23.4 l -0.5,-11.9 c -0.6,-1.9 -8.2,-23.6 -5.3,-36.1 0,-0.2 3.4,-12.8 -2.7,-20.2 l -0.2,-0.2 v -0.3 c 0,-0.5 0.8,-41.4 4.8,-75.9 0,-0.5 2.1,-45.6 -2.4,-57.5 V 710 709.8 L 291,595 l 1.6,0.2 -6.1,114.6 c 4.5,12.2 2.4,56 2.4,58 -3.9,33.1 -4.7,71.9 -4.8,75.6 6.4,8 3.1,20.9 2.9,21.4 -2.7,12.4 5.1,35.2 5.3,35.3 v 0.2 l 0.5,12 c 1,16.4 -4.8,24.2 -5.1,24.6 l -0.2,0.2 c -2,1.3 -3.6,2.1 -5,2.1 z"
   id="path10" />&#10;</g>&#10;<g
   id="g11"
   transform="translate(-119.44805,-146.0647)">&#10;	<path
   class="st0"
   d="m 268.9,494.8 h -1.6 v -0.3 l -0.3,-69 -0.2,-70.5 -0.3,-90.9 1.6,-0.2 c 0,0.2 2.9,13.8 24.4,27.3 1.9,0 17.7,-1.4 27.9,-27.5 l 1.4,0.6 c -11.2,28.7 -28.9,28.4 -29.7,28.4 H 292 l -0.2,-0.2 C 276.9,283 270.6,273.7 268.2,268.4 l 0.3,94.9 0.2,62 z"
   id="path11" />&#10;</g>&#10;<g
   id="g12"
   transform="translate(-119.44805,-146.0647)">&#10;	<polygon
   class="st0"
   points="280.7,550.8 227.7,493.7 294.4,493.7 294.4,545.5 292.8,545.5 292.8,495.3 231.4,495.3 281.9,549.8 "
   id="polygon11" />&#10;</g>&#10;<g
   id="g13"
   transform="translate(-119.44805,-146.0647)">&#10;	&#10;		<rect
   x="207.5"
   y="355.29999"
   transform="matrix(0.7105,-0.7037,0.7037,0.7105,-206.2663,256.289)"
   class="st0"
   width="1.6"
   height="47"
   id="rect12" />&#10;</g>&#10;<g
   id="g14"
   transform="translate(-119.44805,-146.0647)">&#10;	&#10;		<rect
   x="184.39999"
   y="447"
   transform="matrix(0.3247,-0.9458,0.9458,0.3247,-319.1872,492.3935)"
   class="st0"
   width="1.6"
   height="45.400002"
   id="rect13" />&#10;</g>&#10;<g
   id="g15"
   transform="translate(-119.44805,-146.0647)">&#10;	<polygon
   class="st0"
   points="216.2,321.4 217.8,321.4 217.8,321.5 209.3,379 209.1,380.5 202.2,422 186.2,470.2 170.6,517.3 169.1,516.6 184.7,469.6 200.8,421.6 200.8,420.8 207.5,380.3 207.7,378.7 216.2,321.4 "
   id="polygon14" />&#10;</g>&#10;<g
   id="g16"
   transform="translate(-119.44805,-146.0647)">&#10;	<rect
   x="222.89999"
   y="619.40002"
   class="st0"
   width="67.400002"
   height="1.6"
   id="rect15" />&#10;</g>&#10;<g
   id="g17"
   transform="translate(-119.44805,-146.0647)">&#10;	&#10;		<rect
   x="257"
   y="517.20001"
   transform="matrix(0.9982,-0.05973335,0.05973335,0.9982,-36.2964,16.4962)"
   class="st0"
   width="1.6"
   height="196.2"
   id="rect16" />&#10;</g>&#10;<g
   id="g18"
   transform="translate(-119.44805,-146.0647)">&#10;	<path
   class="st0"
   d="m 270.5,713.8 c -13.2,0 -28.6,-3.7 -29.5,-4 l 0.3,-1.6 c 0.3,0.2 34.5,8.3 44,0.6 l 1,1.3 c -3.3,2.9 -9.3,3.7 -15.8,3.7 z"
   id="path17" />&#10;</g>&#10;<g
   id="g19"
   transform="matrix(0.9999998,0,0,1.0138857,-119.44805,-155.96675)">&#10;	&#10;		<rect
   x="266"
   y="713.09998"
   transform="matrix(0.9988,-0.04831412,0.04831412,0.9988,-37.353,13.7985)"
   class="st0"
   width="1.6"
   height="132.89999"
   id="rect18" />&#10;</g>&#10;<g
   id="g20"
   transform="translate(-119.44805,-146.0647)">&#10;	<rect
   x="240"
   y="779"
   class="st0"
   width="46.099998"
   height="1.6"
   id="rect19" />&#10;</g>&#10;<g
   id="g21"
   transform="translate(-119.44805,-146.0647)">&#10;	<path
   class="st0"
   d="m 270,849 c -6.7,0 -13.2,-1.8 -13.6,-1.9 l 0.5,-1.6 c 0.2,0 20.6,5.5 26.2,-2.9 l 1.3,1 c -3,4.2 -8.8,5.4 -14.4,5.4 z"
   id="path20" />&#10;</g>&#10;<g
   id="g22"
   transform="translate(-119.44805,-146.0647)">&#10;	&#10;		<rect
   x="269.20001"
   y="868"
   transform="matrix(0.04020624,-0.9992,0.9992,0.04020624,-624.0916,1118.2198)"
   class="st0"
   width="1.6"
   height="32"
   id="rect21" />&#10;</g>&#10;<g
   id="g23"
   transform="translate(-119.44805,-146.0647)">&#10;	<path
   class="st0"
   d="m 294.4,595.4 c -0.6,0 -1.1,0 -1.1,0 -20.7,-3.9 -17.2,-36.8 -17.2,-37.1 2.9,-13.3 18.8,-14 18.9,-14 h 0.2 0.2 c 17.7,3.7 15.9,19.1 15.9,19.3 0.2,14.1 -2.6,23.9 -8.3,28.9 -3.5,2.6 -6.9,2.9 -8.6,2.9 z m 0.6,-49.6 c -1.3,0 -14.8,1 -17.3,12.7 0,0.3 -3.4,31.8 15.9,35.3 0.2,0 4.2,0.6 8.2,-2.9 3.7,-3.2 8,-10.6 7.7,-27.6 0.1,-0.6 1.6,-14.1 -14.5,-17.5 z"
   id="path22" />&#10;</g>&#10;<g
   id="g24"
   transform="translate(-119.44805,-146.0647)">&#10;	<path
   class="st0"
   d="m 441.9,595.8 c -1,0 -2.1,-0.6 -3.5,-1.9 -0.2,-0.3 -12.7,-16.2 -22.6,-40.1 l -7.5,-15.4 v -12.5 l 0.2,-0.2 c 0.5,-0.5 10.9,-13.2 22.6,-12 l -0.2,1.6 c -10.3,-1 -19.7,9.6 -21.2,11.2 V 538 l 7.4,15.1 c 10,23.8 22.3,39.5 22.3,39.7 1.8,1.8 2.6,1.4 2.6,1.4 0.3,-0.2 0.5,-1.1 0.5,-1.9 l 1.6,-0.2 c 0,0.3 0.2,2.7 -1.4,3.4 -0.1,0.3 -0.5,0.3 -0.8,0.3 z"
   id="path23" />&#10;</g>&#10;<g
   id="g25"
   transform="translate(-119.44805,-146.0647)">&#10;	&#10;		<rect
   x="416.70001"
   y="546.59998"
   transform="matrix(0.7597,-0.6503,0.6503,0.7597,-251.1032,415.4004)"
   class="st0"
   width="39.5"
   height="1.6"
   id="rect24" />&#10;</g>&#10;<g
   id="g26"
   transform="translate(-119.44805,-146.0647)">&#10;	<path
   class="st0"
   d="m 450.6,597.5 c -1.3,0 -2.7,-0.8 -4,-1.6 l -0.2,-0.2 c 0,0 -1,-1 -2.1,-2.4 -3.5,-4.5 -9.6,-12.8 -9.5,-18.1 h 1.6 c -0.2,5.1 6.3,13.6 9.2,17.2 1,1.1 1.8,2.1 1.9,2.2 2.6,1.6 3.2,1.3 3.4,1.1 0.2,0 1,-0.8 -0.6,-5.5 -4.3,-6.9 -8.8,-17.3 -9.2,-19.4 l -0.6,-4.3 2.1,3.9 c 0.3,0.5 6.6,11.6 9.2,19.3 3.2,4.8 4.7,5.3 5.1,5.3 0.2,0 0.3,0 0.5,-0.2 1.3,-1.4 0,-6.3 -0.5,-7.7 -1.4,-4.7 -4.2,-10.9 -7.9,-18.1 l -0.2,-0.3 1.4,-0.6 0.2,0.3 c 3.9,7.2 6.6,13.6 8,18.3 1.4,5 1.4,7.7 0.2,9.3 -0.5,0.5 -1.1,0.8 -1.8,0.8 -1.1,-0.2 -2.4,-1 -4,-2.9 0.2,1.6 -0.2,2.7 -0.8,3.4 -0.4,0.1 -0.9,0.2 -1.4,0.2 z"
   id="path25" />&#10;</g>&#10;<g
   id="g27"
   transform="translate(-119.44805,-146.0647)">&#10;	<path
   class="st0"
   d="m 461.7,591 c -1.3,0 -2.6,-1.1 -3.5,-2.2 -0.6,-0.5 -1,-1 -1.3,-1.4 -4.8,-6.4 -8,-17.7 -8.3,-19.1 l 1.6,-0.3 c 0,0.2 2.9,11.7 8,18.5 0.3,0.5 0.6,0.8 1,1.1 l 0.2,0.2 c 1.8,1.9 2.4,1.8 2.4,1.8 0.5,-0.3 0.6,-3.1 0.2,-5.6 0.3,-21.5 -19.1,-36.3 -19.3,-36.4 l 0.8,-1.3 c 6.9,3.7 12.5,11.1 12.8,11.4 l 0.2,0.2 c 3.1,7.9 8.7,7.2 9.6,7.1 0.6,-0.5 1,-1.1 1.1,-1.9 1,-7.5 -14.8,-25.8 -16.2,-27.5 -18.1,-9.3 -20.7,-20.4 -20.9,-20.9 v -0.2 -0.5 c 0.2,-3.7 -1,-15.3 -1.3,-19.6 -0.2,-1.9 -0.3,-3.2 -0.3,-3.2 0.3,-6.9 -1.4,-16.1 -5.5,-28.4 -5.5,-17 -12.5,-32.8 -14.6,-37.1 l -0.5,-1 c -1,-1.9 -1.8,-3.7 -2.4,-5.1 -1.4,-3.1 -2.4,-4.8 -2.4,-4.8 l -0.2,-0.2 v -0.2 c 0.8,-13.2 -3.2,-24.4 -3.5,-25.5 -4.7,-6.3 -3.9,-29.1 -3.9,-29.4 V 359 c 4.3,-28.6 -2.2,-45.8 -8.5,-55.2 -0.3,-0.3 -0.5,-0.6 -0.8,-1.1 -0.6,-0.8 -1.1,-1.6 -1.8,-2.2 -3.4,-4 -6.1,-5.6 -6.1,-5.6 l -58.1,-30.8 v -0.8 h 1 l 0.2,-0.3 57.8,30.5 c 0.2,0.2 2.9,1.8 6.4,5.9 0.6,0.6 1.3,1.6 1.9,2.4 0.3,0.3 0.5,0.8 0.8,1.1 6.4,9.8 13.2,27.3 8.8,56.4 v 0.3 c -0.2,4.8 -0.3,23.6 3.5,28.4 l 0.2,0.2 c 0,0.2 4.5,12 3.7,26.2 0.3,0.5 1.1,2.2 2.2,4.7 0.6,1.4 1.4,3.1 2.4,5.1 l 0.5,1 c 2.1,4.5 9.2,20.2 14.6,37.4 4,12.5 5.8,22 5.5,28.9 0,0 0.2,1.3 0.3,3.1 0.6,7.4 1.4,16.2 1.3,19.7 0.3,1.1 3.4,11.2 20.1,19.7 l 0.2,0.2 c 0.8,0.8 17.8,20.2 16.7,28.9 -0.2,1.4 -0.8,2.4 -1.9,3.2 l -0.3,0.2 c 0,0 -4.5,1 -8.3,-2.6 3.1,5.6 5.3,12.4 5.1,19.9 0.3,1.3 1,6.1 -1.1,7.1 0.4,-0.1 0,0.1 -0.1,0.1 z"
   id="path26" />&#10;</g>&#10;<g
   id="g28"
   transform="translate(-119.44805,-146.0647)">&#10;	<path
   class="st0"
   d="m 410,531.5 h -1.6 c 0,-0.3 -0.2,-1 -0.3,-1.6 -2.1,-9.3 -14.8,-29.4 -14.8,-29.7 -1.3,-1.8 -2.6,-3.7 -3.9,-5.6 -17.7,-27.9 -16.7,-62.3 -16.7,-62.6 v -0.3 l 0.2,-0.2 c 2.9,-3.1 5.1,-5.1 7.1,-6.9 2.1,-1.8 4.2,-3.4 6.4,-4.7 11.9,-6.9 19.1,-2.6 20.4,-1.6 l 0.5,0.5 -1.1,1.1 -0.3,-0.3 c -1.1,-0.8 -7.7,-4.7 -18.6,1.8 -2.1,1.3 -4.2,2.7 -6.1,4.3 -1.9,1.6 -4,3.7 -6.7,6.6 0,3.4 0,35.3 16.4,61.3 1.3,1.9 2.6,3.9 3.9,5.6 0.5,0.8 13,20.7 15.1,30.2 -0.1,0.9 0.1,1.5 0.1,2.1 z"
   id="path27" />&#10;</g>&#10;<g
   id="g29"
   transform="translate(-119.44805,-146.0647)">&#10;	<path
   class="st0"
   d="m 372.9,433 c -0.2,-0.2 -9.5,-16.5 -10.3,-44.2 0,0 -2.2,-12.5 -1,-29.4 1.8,-22.8 8.5,-41.9 20.1,-56.7 1,-1.3 1.9,-2.4 2.9,-3.5 l 0.2,-0.2 1.1,1.1 -0.2,0.2 c -1,1.1 -1.9,2.2 -2.9,3.4 -11.4,14.6 -18,33.2 -19.7,55.7 -1.3,16.5 1,28.9 1,29.1 0.8,27.5 10,43.3 10,43.5 z"
   id="path28" />&#10;</g>&#10;<g
   id="g30"
   transform="translate(-119.44805,-146.0647)">&#10;	<path
   class="st0"
   d="m 331,925.9 c -0.8,0 -1.8,-0.5 -2.9,-1.3 -0.8,-0.5 -4,-2.7 -3.5,-13 h 1.6 c -0.5,10 2.7,11.6 2.7,11.6 l 0.2,0.2 c 0.6,0.6 1.6,1.1 2.2,1 0.5,-0.2 1.6,-1.4 1.8,-7.7 -0.3,-1.4 -0.6,-3.7 -0.5,-6.7 l 0.5,-7.9 1.1,7.7 c 0,0.2 0.5,3.2 0.5,6.6 0.3,1.1 0.8,2.4 1.8,2.7 0.8,0.3 1.8,-0.2 2.2,-0.5 3.2,-9.2 -5,-34.8 -5.1,-35 v -0.2 l -2.4,-37.1 v -0.2 c 0.2,-0.2 8.8,-20.9 14.9,-59.7 4,-26.2 3.1,-34.2 1.8,-43.3 -0.6,-4.5 -1.3,-9.6 -1.4,-17.5 -0.3,-23.8 6.6,-75.9 12.8,-89.4 6.3,-13.3 7.5,-33.2 7.7,-33.4 l -0.5,-35 c 1.1,-46.2 -3.7,-65.7 -6.6,-73.2 -1.1,-2.6 -1.6,-3.5 -1.8,-3.5 l -0.2,-0.3 0.2,-0.3 c 6.9,-28.3 -3.2,-59.2 -3.4,-59.6 l -0.2,-0.3 0.6,-1.4 c 0.5,-1.3 1.1,-2.6 1.6,-4.2 3.2,-10 6.6,-25.4 6.6,-25.5 l 1.6,0.3 c 0,0.2 -3.4,15.6 -6.6,25.5 -0.5,1.6 -1.1,3.1 -1.6,4.3 l -0.3,1 c 1,3.2 10,32.8 3.4,59.9 0.3,0.5 0.8,1.6 1.6,3.5 2.9,7.7 7.7,27.5 6.6,73.9 l 0.5,35 c 0,0.3 -1.4,20.4 -7.7,34 -6.3,13.3 -13.2,65.2 -12.8,88.8 0.2,7.7 0.8,12.7 1.3,17.3 1.3,9.3 2.2,17.3 -1.8,43.8 -5.8,37.1 -14,57.8 -14.9,59.9 l 2.4,36.6 c 0.6,2.1 8.5,27 5,36.3 l -0.2,0.2 -0.2,0.2 c 0,0 -1.9,1.4 -3.9,0.8 -0.5,-0.2 -1,-0.5 -1.4,-1 -0.3,3.4 -1.1,5.5 -2.6,6.1 0.1,0 -0.2,0 -0.7,0 z"
   id="path29" />&#10;</g>&#10;<g
   id="g31"
   transform="translate(-119.44805,-146.0647)">&#10;	<path
   class="st0"
   d="m 322.2,930 c -0.5,0 -1.1,-0.2 -1.8,-0.5 -2.7,-1.6 -4.2,-7.4 -4.2,-16.7 h 1.6 c 0,11.6 2.1,14.6 3.4,15.4 0.8,0.5 1.4,0.2 1.4,0.2 l 0.3,-0.2 h 0.3 c 0.8,0.2 1.3,0 1.8,-0.5 2.6,-2.4 1.3,-12.4 0.6,-15.9 l 1.6,-0.3 c 0.3,1.4 2.6,14 -1.1,17.3 -0.8,0.8 -1.8,1.1 -3.1,1 0,0.2 -0.4,0.2 -0.8,0.2 z"
   id="path30" />&#10;</g>&#10;<g
   id="g32"
   transform="translate(-119.44805,-146.0647)">&#10;	<path
   class="st0"
   d="m 314.4,933.6 c -1.1,0 -1.9,-0.3 -2.7,-1.1 -4.2,-4.2 -2.6,-18.9 -2.6,-19.6 l 1.6,0.2 c -0.5,4 -1,15.3 2.1,18.3 0.5,0.5 1.1,0.8 1.9,0.6 0.6,-0.3 4.2,-2.4 3.4,-8.3 l 1.6,-0.2 c 1,7.7 -4.5,10.1 -4.5,10.1 H 315 c -0.2,0 -0.4,0 -0.6,0 z"
   id="path31" />&#10;</g>&#10;<g
   id="g33"
   transform="translate(-119.44805,-146.0647)">&#10;	<path
   class="st0"
   d="m 305.9,939.2 c -1.4,0 -3.1,-0.8 -5,-2.4 l -0.2,-0.2 c -0.3,-0.3 -6.1,-8.3 -5.1,-24.6 l 0.5,-12.2 c 0.2,-0.2 8,-23 5.3,-35.3 -0.2,-0.5 -3.5,-13.3 2.9,-21.4 -0.2,-3.7 -1,-42.5 -4.8,-75.6 -0.2,-1.9 -2.1,-45.8 2.4,-58 l -6.1,-114.5 1.6,-0.2 6.1,115 v 0.2 c -4.3,11.7 -2.4,57 -2.4,57.5 4,34.5 4.8,75.6 4.8,75.9 v 0.3 l -0.2,0.2 c -6.1,7.2 -2.7,20.1 -2.7,20.1 2.9,12.7 -4.7,34.2 -5.3,36.1 l -0.5,11.9 c -1,14.9 4.2,22.6 4.8,23.4 1.4,1.1 3.4,2.4 4.7,1.8 1.9,-1 2.1,-5.8 1.9,-7.4 l 1.6,-0.2 c 0,0.8 0.5,7.2 -2.7,9 -0.4,0.4 -0.9,0.6 -1.6,0.6 z"
   id="path32" />&#10;</g>&#10;<g
   id="g34"
   transform="translate(-119.44805,-146.0647)">&#10;	<path
   class="st0"
   d="m 321,494.8 h -1.6 v -0.3 l 0.5,-191.1 0.2,-39.3 c -1.8,-16.2 -1.8,-21.8 -1.4,-23.8 0,-0.6 0.2,-1.1 0.3,-1.3 l 0.6,0.6 0.6,0.5 c 0,0 0,0.2 0,0.3 -0.2,1.3 -0.5,5.9 1.4,23.4 l -0.3,95.7 z"
   id="path33" />&#10;</g>&#10;<g
   id="g35"
   transform="translate(-119.44805,-146.0647)">&#10;	<polygon
   class="st0"
   points="307.7,550.8 306.6,549.8 357,495.3 295.7,495.3 295.7,545.5 294.1,545.5 294.1,493.7 360.7,493.7 "
   id="polygon34" />&#10;</g>&#10;<g
   id="g36"
   transform="translate(-119.44805,-146.0647)">&#10;	&#10;		<rect
   x="357.79999"
   y="377.70001"
   transform="matrix(0.7032,-0.711,0.711,0.7032,-156.351,382.5191)"
   class="st0"
   width="44.5"
   height="1.6"
   id="rect35" />&#10;</g>&#10;<g
   id="g37"
   transform="translate(-119.44805,-146.0647)">&#10;	<polygon
   class="st0"
   points="424.9,463.1 424.1,463.5 382,478.1 381.6,476.5 424.3,461.5 "
   id="polygon36" />&#10;</g>&#10;<g
   id="g38"
   transform="translate(-119.44805,-146.0647)">&#10;	<polygon
   class="st0"
   points="372.2,321.5 377.9,359.4 380.6,378.7 380.9,380.3 387.7,421.7 388.9,425.1 411.9,494.1 419.5,516.6 418,517.3 402.3,470.2 387.5,425.7 386.2,422.2 385.9,421.1 379,379 376.3,359.8 370.6,321.9 "
   id="polygon37" />&#10;</g>&#10;<g
   id="g39"
   transform="translate(-119.44805,-146.0647)">&#10;	<rect
   x="298.10001"
   y="619.40002"
   class="st0"
   width="67.400002"
   height="1.6"
   id="rect38" />&#10;</g>&#10;<g
   id="g40"
   transform="translate(-119.44805,-146.0647)">&#10;	&#10;		<rect
   x="232.8"
   y="614.5"
   transform="matrix(0.06054981,-0.9982,0.9982,0.06054981,-303.2909,908.3195)"
   class="st0"
   width="196.2"
   height="1.6"
   id="rect39" />&#10;</g>&#10;<g
   id="g41"
   transform="translate(-119.44805,-146.0647)">&#10;	<path
   class="st0"
   d="m 318,713.8 c -6.6,0 -12.5,-1 -15.7,-3.7 l 1,-1.3 c 9.3,7.7 43.5,-0.5 44,-0.6 l 0.3,1.6 c -1,0.3 -16.5,4 -29.6,4 z"
   id="path40" />&#10;</g>&#10;<g
   id="g42"
   transform="matrix(0.9999998,0,0,1.0111277,-119.44805,-154.00217)">&#10;	&#10;		<rect
   x="255.2"
   y="778.90002"
   transform="matrix(0.04881833,-0.9988,0.9988,0.04881833,-472.7713,1062.9153)"
   class="st0"
   width="132.89999"
   height="1.6"
   id="rect41" />&#10;</g>&#10;<g
   id="g43"
   transform="translate(-119.44805,-146.0647)">&#10;	<rect
   x="302.39999"
   y="779"
   class="st0"
   width="45.900002"
   height="1.6"
   id="rect42" />&#10;</g>&#10;<g
   id="g44"
   transform="translate(-119.44805,-146.0647)">&#10;	<path
   class="st0"
   d="m 318.5,849 c -5.6,0 -11.4,-1.1 -14.1,-5.5 l 1.3,-1 c 5.6,8.3 25.8,2.9 26.2,2.9 l 0.5,1.6 c -0.6,0.4 -7.2,2 -13.9,2 z"
   id="path43" />&#10;</g>&#10;<g
   id="g45"
   transform="translate(-119.44805,-146.0647)">&#10;	&#10;		<rect
   x="302.39999"
   y="883.20001"
   transform="matrix(0.9992,-0.04000697,0.04000697,0.9992,-35.1097,13.4452)"
   class="st0"
   width="32"
   height="1.6"
   id="rect44" />&#10;</g>&#10;<g
   id="g46"
   transform="translate(-119.44805,-146.0647)">&#10;	<path
   class="st0"
   d="m 294.1,595.4 c -1.8,0 -5,-0.5 -8.3,-3.2 -5.8,-5 -8.5,-14.6 -8.3,-28.9 0,0 -1.9,-15.4 15.9,-19.1 h 0.2 0.2 c 0.2,0 16.1,0.6 18.9,14 0,0.5 3.5,33.4 -17.2,37.2 -0.3,0 -0.8,0 -1.4,0 z m -0.5,-49.6 c -16.4,3.4 -14.6,16.9 -14.4,17.3 -0.2,17.3 4.2,24.7 7.9,27.8 4,3.4 8,2.7 8.2,2.7 19.3,-3.5 15.9,-35.2 15.9,-35.3 -2.9,-11.5 -16.3,-12.5 -17.6,-12.5 z"
   id="path45" />&#10;</g>&#10;&#10;&#10;&#10;&#10;&#10;&#10;&#10;&#10;&#10;&#10;&#10;&#10;&#10;&#10;&#10;&#10;&#10;&#10;&#10;&#10;&#10;&#10;&#10;&#10;&#10;&#10;&#10;&#10;&#10;&#10;<g
   id="g93"
   transform="translate(-119.44805,-146.0647)">&#10;	<rect
   x="258.70001"
   y="201.39999"
   class="st0"
   width="80.400002"
   height="1.6"
   id="rect92" />&#10;</g>&#10;&#10;&#10;<g
   id="g96"
   transform="translate(-119.44805,-146.0647)">&#10;	<rect
   x="206.2"
   y="302.60001"
   class="st0"
   width="176"
   height="1.6"
   id="rect95" />&#10;</g>&#10;<g
   id="g97"
   transform="translate(-119.44805,-146.0647)">&#10;	<rect
   x="226"
   y="358.79999"
   class="st0"
   width="136.3"
   height="1.6"
   id="rect96" />&#10;</g>&#10;&#10;<g
   id="g99"
   transform="translate(-119.44805,-146.0647)">&#10;	<rect
   x="231"
   y="424.60001"
   class="st0"
   width="126.5"
   height="1.6"
   id="rect98" />&#10;</g>&#10;&#10;&#10;<g
   id="g102"
   transform="translate(-119.44805,-146.0647)">&#10;	<rect
   x="227.7"
   y="493.70001"
   class="st0"
   width="132.89999"
   height="1.6"
   id="rect101" />&#10;</g>&#10;&#10;&#10;&#10;&#10;<g
   id="g107"
   transform="translate(-119.44805,-146.0647)">&#10;	<path
   class="st0"
   d="m 271.6,359.3 c 0,0.2 0,0.3 0,0.5 -0.2,2.1 -1.9,3.7 -4,3.9 -0.2,0 -0.2,0 -0.3,0 -2.2,0 -4,-1.6 -4.2,-3.9 0,-0.2 0,-0.3 0,-0.5 0,-2.4 1.9,-4.2 4.2,-4.2 h 0.2 c 2.3,0 4.1,1.8 4.1,4.2 z"
   id="path106" />&#10;</g>&#10;<g
   id="g108"
   transform="translate(-119.44805,-146.0647)">&#10;	<ellipse
   class="st0"
   cx="273"
   cy="202.2"
   rx="4.1999998"
   ry="1.8"
   id="ellipse107" />&#10;</g>&#10;<g
   id="g109"
   transform="translate(-119.44805,-146.0647)">&#10;	<ellipse
   class="st0"
   cx="313.20001"
   cy="202.2"
   rx="4.1999998"
   ry="1.8"
   id="ellipse108" />&#10;</g>&#10;<g
   id="g110"
   transform="translate(-119.44805,-146.0647)">&#10;	<circle
   class="st0"
   cx="320.20001"
   cy="359.29999"
   r="4.1999998"
   id="circle109" />&#10;</g>&#10;&#10;<path
   id="line111"
   class="st1"
   style="fill:none;stroke:#231f20;stroke-miterlimit:10"
   d="m 21.251917,385.9353 30.1,25.70001" />&#10;<path
   style="color:#000000;fill:#231f20;stroke-miterlimit:10;-inkscape-stroke:none"
   d="M 174.37695,1.234375 V 146.23437 h 0.75 V 1.234375 Z"
   id="line112" />&#10;<path
   style="fill:#ffff00;stroke:#000000;stroke-width:0;stroke-linecap:square;stroke-linejoin:bevel;paint-order:fill markers stroke"
   d="m 137.57201,49.312432 c -4.9689,-14.33402 1.10975,-35.11477 12.16702,-41.5947696 4.85679,-2.84627 13.96186,-5.20239 20.23909,-5.23727 l 3.68852,-0.0205 v 26.0257996 26.0258 l -17.17215,-0.0749 -17.17215,-0.0749 z"
   id="H1" /><path
   style="fill:#ffff00;stroke:#000000;stroke-width:0;stroke-linecap:square;stroke-linejoin:bevel;paint-order:fill markers stroke"
   d="M 175.63386,28.342442 V 2.2332224 l 5.49106,0.68606 c 11.7599,1.46931 22.39442,6.97994 27.38315,14.1894996 4.40866,6.37125 5.78012,11.63104 5.88279,22.56155 0.0809,8.61242 -0.16692,10.35311 -1.62587,11.41991 -0.94672,0.69226 -1.72131,1.72641 -1.72131,2.29811 0,0.69126 -5.9307,1.04345 -17.7049,1.05138 l -17.70492,0.0119 z"
   id="H2" /><path
   style="fill:#ffff00;stroke:#000000;stroke-width:0;stroke-linecap:square;stroke-linejoin:bevel;paint-order:fill markers stroke"
   d="m 175.63386,84.680602 v -26.95961 l 21.14754,-0.0511 c 17.16605,-0.0415 21.14753,0.1999 21.14753,1.28224 0,0.73336 -0.88417,4.196 -1.96483,7.69475 -2.01376,6.51981 -5.14691,11.54565 -7.20492,11.55735 -0.63697,0.004 -2.82514,3.06768 -4.86261,6.80903 -7.07113,12.98452 -14.02455,20.864198 -22.06633,25.005818 -6.46808,3.33114 -6.19638,4.44217 -6.19638,-25.338428 z"
   id="H4" /><path
   style="fill:#ffff00;stroke:#000000;stroke-width:0;stroke-linecap:square;stroke-linejoin:bevel;paint-order:fill markers stroke"
   d="m 165.08426,110.01325 c -4.92934,-1.74545 -13.23445,-8.94315 -16.7791,-14.541768 -1.39121,-2.19736 -3.53539,-6.87225 -4.76485,-10.38864 -1.91192,-5.46833 -2.62781,-6.46496 -4.94752,-6.88773 -2.5474,-0.46426 -2.78228,-0.94791 -3.8668,-7.96215 -0.63506,-4.10733 -1.6496,-8.39268 -2.25453,-9.52302 -1.59755,-2.98504 -1.409,-8.08612 0.29888,-8.08612 0.76932,0 2.91424,1.7705 4.76648,3.93443 3.27811,3.82973 6.09195,5.27821 5.06753,2.60861 -0.41245,-1.07482 2.47976,-1.35087 15.27676,-1.4581 l 15.78553,-0.13228 v 27.03187 27.031868 l -2.21311,-0.0777 c -1.21721,-0.0427 -4.08338,-0.73991 -6.36927,-1.54932 z"
   id="H3" /><path
   style="fill:#ffff00;stroke:#000000;stroke-width:0;stroke-linecap:square;stroke-linejoin:bevel;paint-order:fill markers stroke"
   d="m 167.765,140.79791 c -6.10342,-4.48502 -14.12914,-13.47511 -16.61633,-18.61298 -1.60223,-3.30975 -2.07219,-6.15157 -2.07219,-12.53029 v -8.24973 l 3.68852,3.55821 c 4.56818,4.40678 10.43436,7.48794 16.09251,8.45248 l 4.31733,0.73596 0.27152,14.97384 c 0.14934,8.23561 -0.072,14.96286 -0.4918,14.94945 -0.41983,-0.0134 -2.75513,-1.48803 -5.18956,-3.27694 z"
   id="N1" /><path
   style="fill:#ffff00;stroke:#000000;stroke-width:0;stroke-linecap:square;stroke-linejoin:bevel;paint-order:fill markers stroke"
   d="m 175.63386,129.56711 v -14.66469 l 4.15774,-1.24569 c 5.25298,-1.57383 11.55366,-5.8831 15.36838,-10.51102 l 2.95572,-3.585798 0.51539,3.335238 c 1.97674,12.79185 1.80849,15.4423 -1.35728,21.38192 -5.15315,9.6683 -12.70725,17.15826 -19.42684,19.26189 l -2.21311,0.69284 z"
   id="N2" /><path
   style="fill:#ffff00;stroke:#000000;stroke-width:0;stroke-linecap:square;stroke-linejoin:bevel;paint-order:fill markers stroke"
   d="m 149.12807,140.41071 c 0.0496,-14.88974 0.11649,-15.39624 1.72131,-13.03279 4.98728,7.34482 19.20356,19.67835 22.66882,19.66665 7.19171,-0.0243 16.94933,-6.84366 22.84548,-15.96615 l 3.86033,-5.9727 v 15.3984 15.39839 h -25.57376 -25.57377 z"
   id="A2" /><path
   style="fill:#ffff00;stroke:#000000;stroke-width:0;stroke-linecap:square;stroke-linejoin:bevel;paint-order:fill markers stroke"
   d="m 202.19122,137.61689 v -18.28563 l 7.13115,3.8807 c 3.92213,2.13439 16.91772,9.04257 28.87908,15.35152 21.38216,11.27791 25.80377,14.21606 24.51987,16.29345 -0.43344,0.70132 -10.5046,1.04558 -30.58815,1.04558 h -29.94195 z"
   id="A3" /><path
   style="fill:#ffff00;stroke:#000000;stroke-width:0;stroke-linecap:square;stroke-linejoin:bevel;paint-order:fill markers stroke"
   d="m 150.79779,209.91891 c -1.54317,-1.69014 -1.72131,-4.43014 -1.72131,-26.47541 v -24.59017 h 25.57377 25.57376 v 25.08197 c 0,20.78317 -0.23483,25.08197 -1.37017,25.08197 -0.75359,0 -1.62494,0.66393 -1.93634,1.47541 -0.48115,1.25386 -3.85702,1.4631 -22.48228,1.39344 -20.28501,-0.0759 -22.04423,-0.22228 -23.63743,-1.96721 z"
   id="A5" /><path
   style="fill:#ffff00;stroke:#000000;stroke-width:0;stroke-linecap:square;stroke-linejoin:bevel;paint-order:fill markers stroke"
   d="m 203.91254,209.91891 c -1.54317,-1.69014 -1.72132,-4.43014 -1.72132,-26.47541 v -24.59017 h 28.52459 c 15.68853,0 28.52458,0.26364 28.52458,0.58587 0,0.32222 -0.82918,1.76075 -1.84263,3.19672 -5.81006,8.23239 -12.08636,25.22958 -13.96499,37.81937 -1.94575,13.03963 0.68706,11.52478 -19.86684,11.43083 -16.35772,-0.0748 -18.08321,-0.24749 -19.65339,-1.96721 z"
   id="A6" /><path
   style="fill:#ffff00;stroke:#000000;stroke-width:0;stroke-linecap:square;stroke-linejoin:bevel;paint-order:fill markers stroke"
   d="m 201.20761,248.02217 c 0,-27.66665 0.13144,-29.96649 1.79877,-31.47541 1.53485,-1.38902 4.42109,-1.62785 19.67213,-1.62785 h 17.87337 l 0.0267,9.59016 c 0.0147,5.27459 0.44755,13.79508 0.96199,18.93443 0.88306,8.822 0.76338,10.04518 -2.14121,21.88524 l -3.07655,12.54099 h -17.55757 -17.55758 z"
   id="A9" /><path
   style="fill:#ffff00;stroke:#000000;stroke-width:0;stroke-linecap:square;stroke-linejoin:bevel;paint-order:fill markers stroke"
   d="m 149.85784,248.11563 c -0.40011,-27.56576 -0.30306,-29.8807 1.31947,-31.47541 1.56207,-1.53529 4.06779,-1.71778 23.18591,-1.68859 19.81433,0.0303 21.60937,0.17836 23.74702,1.95941 l 2.31244,1.92669 -0.72279,29.516 -0.72279,29.516 H 174.63341 150.2897 Z"
   id="A8" /><path
   style="fill:#ffff00;stroke:#000000;stroke-width:0;stroke-linecap:square;stroke-linejoin:bevel;paint-order:fill markers stroke"
   d="m 112.29737,277.05784 c -0.27597,-0.44654 -1.81165,-5.96126 -3.4126,-12.25495 -2.71588,-10.67663 -2.85321,-12.08806 -2.05039,-21.07336 0.47325,-5.29666 0.87625,-13.94587 0.89555,-19.22046 l 0.0351,-9.59016 17.45902,0.0327 c 15.6071,0.0292 17.69377,0.22856 19.67213,1.87898 2.20515,1.8396 2.21312,1.95286 2.21312,31.44268 v 29.59644 h -17.15507 c -9.43528,0 -17.38086,-0.36535 -17.65684,-0.81189 z"
   id="A7" /><path
   style="fill:#ffff00;stroke:#000000;stroke-width:0;stroke-linecap:square;stroke-linejoin:bevel;paint-order:fill markers stroke"
   d="m 107.33013,208.77137 c -2.05872,-12.559 -2.8693,-16.43111 -4.65139,-22.21961 -2.59618,-8.43278 -6.824535,-17.75438 -10.572834,-23.30831 l -2.962849,-4.39012 h 28.983103 28.98312 v 24.6784 c 0,24.38964 -0.0259,24.70001 -2.21312,26.52466 -1.97788,1.65001 -4.06407,1.84973 -19.62756,1.87897 l -17.41444,0.0327 z"
   id="A4" /><path
   style="fill:#ffff00;stroke:#000000;stroke-width:0;stroke-linecap:square;stroke-linejoin:bevel;paint-order:fill markers stroke"
   d="m 86.125677,154.57955 c 0,-0.72763 0.88926,-2.12773 1.97614,-3.11134 2.075479,-1.87829 57.155493,-31.18816 57.660573,-30.68307 0.16058,0.16057 0.59779,8.12767 0.97159,17.70466 l 0.67964,17.41271 h -30.64398 c -25.013944,0 -30.643963,-0.24306 -30.643963,-1.32296 z"
   id="A1" /><path
   style="fill:#ffff00;stroke:#000000;stroke-width:0;stroke-linecap:square;stroke-linejoin:bevel;paint-order:fill markers stroke"
   d="m 97.111135,239.39495 -6.965349,-7.01703 3.83401,-25.72111 c 2.108699,-14.14661 3.955449,-25.84255 4.103879,-25.99098 0.14842,-0.14843 1.14795,2.47679 2.221175,5.83381 2.01314,6.29709 3.5229,13.09644 4.61771,20.79632 0.83254,5.85536 0.71275,28.38897 -0.18371,34.558 l -0.66236,4.55802 z"
   id="RX2" /><path
   style="fill:#ffff00;stroke:#000000;stroke-width:0;stroke-linecap:square;stroke-linejoin:bevel;paint-order:fill markers stroke"
   d="m 80.658258,222.91071 -7.176418,-7.2541 -0.59124,-5.16393 c -1.84625,-16.12557 -0.92786,-28.55585 2.945589,-39.86783 1.37986,-4.02974 4.329119,-9.91627 6.368849,-12.7118 l 1.58316,-2.1698 0.938149,1.18619 c 2.52842,3.19695 7.443739,11.00348 9.417339,14.95668 l 2.209759,4.42623 -3.985179,26.92623 c -2.19184,14.80943 -4.108559,26.92623 -4.259369,26.92623 -0.15081,0 -3.5036,-3.26435 -7.450639,-7.2541 z"
   id="RX1" /><path
   style="fill:#ffff00;stroke:#000000;stroke-width:0;stroke-linecap:square;stroke-linejoin:bevel;paint-order:fill markers stroke"
   d="m 78.010929,271.55061 c -3.09582,-1.27858 -9.249008,-1.74224 -12.197918,-0.91914 -1.28031,0.35736 -1.33973,0.31274 -0.83628,-0.62796 0.29807,-0.55696 0.75942,-4.25955 1.02522,-8.22798 0.58479,-8.7312 1.3996,-12.89284 3.594719,-18.36022 2.14259,-5.33652 2.73421,-8.32045 3.42458,-17.27252 l 0.56345,-7.30629 7.203358,7.26252 7.203359,7.26251 -3.26894,19.51266 c -1.797909,10.73196 -3.379589,19.59871 -3.514829,19.70389 -0.13525,0.10517 -1.57377,-0.35719 -3.196719,-1.02747 z"
   id="RX3" /><path
   style="fill:#ffff00;stroke:#000000;stroke-width:0;stroke-linecap:square;stroke-linejoin:bevel;paint-order:fill markers stroke"
   d="m 92.250506,281.26559 c -1.88095,-1.9086 -4.653419,-4.3434 -6.161039,-5.41065 l -2.741129,-1.94047 3.185049,-19.29286 3.185049,-19.29287 7.129189,7.22529 7.129185,7.2253 -0.33093,3.96817 c -0.8287,9.93677 -4.387125,25.46877 -6.622845,28.90771 l -1.35262,2.08057 z"
   id="RX4" /><path
   style="fill:#ffff00;stroke:#000000;stroke-width:0;stroke-linecap:square;stroke-linejoin:bevel;paint-order:fill markers stroke"
   d="m 56.043853,319.22367 c -4.508129,-1.57107 -8.536158,-2.9868 -8.951198,-3.14607 -0.64543,-0.24767 -0.51729,-0.98688 0.8857,-5.10938 3.050209,-8.96259 10.093988,-26.2202 13.710037,-33.5903 1.26032,-2.56872 1.95201,-3.38391 3.520939,-4.14959 3.45031,-1.68384 8.449329,-1.2131 13.879448,1.307 l 2.061449,0.95671 -7.840138,23.1488 c -4.312079,12.73184 -7.840149,23.22583 -7.840149,23.31999 0,0.44191 -1.822339,-0.0873 -9.426088,-2.73716 z"
   id="RX9" /><path
   style="fill:#ffff00;stroke:#000000;stroke-width:0;stroke-linecap:square;stroke-linejoin:bevel;paint-order:fill markers stroke"
   d="m 77.273219,326.49646 c -6.599749,-2.252 -9.573748,-3.49001 -9.537528,-3.97025 0.0289,-0.38382 3.451189,-10.90168 7.604998,-23.37303 l 7.552379,-22.67518 1.985159,1.51471 c 1.09184,0.8331 3.71432,3.19337 5.827739,5.24505 l 3.842569,3.73033 -0.313989,5.65574 c -0.62172,11.19846 -3.23861,25.43024 -6.241029,33.94136 l -1.13013,3.20366 z"
   id="RX10" /><path
   style="fill:#ffff00;stroke:#000000;stroke-width:0;stroke-linecap:square;stroke-linejoin:bevel;paint-order:fill markers stroke"
   d="m 244.83756,243.12577 c -0.15401,-1.85394 -0.54277,-5.91588 -0.86389,-9.02654 -1.21542,-11.77355 0.21998,-29.58026 3.40118,-42.19285 1.71222,-6.78848 3.77895,-12.47256 4.15003,-11.4137 0.14219,0.40574 0.84132,4.72131 1.55361,9.59016 0.71229,4.86885 2.39681,16.36942 3.74337,25.55681 l 2.4483,16.70434 -7.07629,7.07629 -7.07628,7.07629 z"
   id="LX2" /><path
   style="fill:#ffff00;stroke:#000000;stroke-width:0;stroke-linecap:square;stroke-linejoin:bevel;paint-order:fill markers stroke"
   d="m 260.97483,229.01214 c -0.12561,-0.58324 -1.23592,-8.03176 -2.46736,-16.55225 -1.23144,-8.52049 -2.9849,-20.36066 -3.89658,-26.31147 l -1.6576,-10.81968 2.46413,-4.67213 c 2.65143,-5.02728 7.62068,-12.55743 9.27451,-14.05413 0.9989,-0.90399 1.03416,-0.89866 1.96034,0.2963 1.56452,2.01854 5.67213,10.3479 6.78466,13.75783 3.24355,9.94157 4.23843,22.15081 3.01106,36.95185 l -0.63817,7.69578 -7.30331,7.38418 c -6.21992,6.2888 -7.33718,7.22687 -7.53168,6.32372 z"
   id="LX1" /><path
   style="fill:#ffff00;stroke:#000000;stroke-width:0;stroke-linecap:square;stroke-linejoin:bevel;paint-order:fill markers stroke"
   d="m 252.16766,279.57913 c -3.34816,-8.7474 -5.77974,-18.82938 -6.46157,-26.79137 l -0.31587,-3.68853 7.17098,-7.12478 c 3.94405,-3.91863 7.171,-6.93071 7.171,-6.6935 0,0.57839 5.82419,36.15494 6.1378,37.49217 0.19345,0.82491 -0.30785,1.47127 -2.33092,3.00535 -1.41755,1.07492 -4.15443,3.41903 -6.08195,5.20913 l -3.50458,3.25473 z"
   id="LX3" /><path
   style="fill:#ffff00;stroke:#000000;stroke-width:0;stroke-linecap:square;stroke-linejoin:bevel;paint-order:fill markers stroke"
   d="m 267.92361,271.79884 c -0.13895,-0.58314 -1.63181,-9.54235 -3.31745,-19.90936 l -3.06482,-18.84909 7.08723,-7.10266 7.08723,-7.10266 0.32077,6.38509 c 0.36538,7.27316 1.49527,13.54975 2.95383,16.40878 2.20383,4.31985 4.09872,14.7169 4.46682,24.50897 l 0.14135,3.75999 -4.92499,0.19261 c -4.01057,0.15685 -5.44229,0.43174 -7.71116,1.4806 l -2.78617,1.28799 z"
   id="LX4" /><path
   style="fill:#ffff00;stroke:#000000;stroke-width:0;stroke-linecap:square;stroke-linejoin:bevel;paint-order:fill markers stroke"
   d="m 262.75142,328.64842 c -0.78557,-1.47621 -2.94465,-8.98053 -4.20953,-14.63115 -1.51096,-6.74991 -2.61627,-14.65787 -3.05238,-21.83835 l -0.33555,-5.52477 3.39568,-3.44944 c 4.03056,-4.09437 7.46923,-6.62208 8.12141,-5.96991 0.41773,0.41774 15.76231,45.88083 15.48557,45.88083 -0.0663,0 -4.16498,1.43852 -9.10824,3.19672 -4.94326,1.7582 -9.17927,3.19672 -9.41335,3.19672 -0.23408,0 -0.63171,-0.38729 -0.88361,-0.86065 z"
   id="LX9" /><path
   style="fill:#ffff00;stroke:#000000;stroke-width:0;stroke-linecap:square;stroke-linejoin:bevel;paint-order:fill markers stroke"
   d="m 276.26835,298.71349 c -6.25905,-18.79115 -7.66736,-23.50383 -7.12727,-23.85019 3.41692,-2.19135 10.47466,-3.41349 14.0794,-2.43804 1.96499,0.53173 2.21695,0.80972 4.06477,4.48485 4.18552,8.3246 14.58775,34.15257 15.3101,38.01386 0.14342,0.76663 -1.19803,1.39295 -8.68282,4.054 -4.86886,1.731 -9.07552,3.14881 -9.34815,3.15067 -0.27262,0.002 -4.00584,-10.53496 -8.29603,-23.41515 z"
   id="LX10" /><path
   style="fill:#ffff00;stroke:#000000;stroke-width:0;stroke-linecap:square;stroke-linejoin:bevel;paint-order:fill markers stroke"
   d="m 201.69942,313.77137 v -33.44263 h 17.21312 c 9.65917,0 17.21311,0.19105 17.21311,0.43534 0,0.23944 -0.30071,1.15053 -0.66826,2.02466 -0.58302,1.38661 -0.55521,1.95252 0.21808,4.43709 1.38691,4.45617 3.30184,14.04921 4.1347,20.71323 1.3932,11.14755 0.80654,28.2552 -1.21007,35.28668 -0.3586,1.25036 -0.28754,1.89914 0.30746,2.80722 l 0.77384,1.18103 h -18.99099 -18.99099 z"
   id="A12" /><path
   style="fill:#ffff00;stroke:#000000;stroke-width:0;stroke-linecap:square;stroke-linejoin:bevel;paint-order:fill markers stroke"
   d="m 149.56828,313.77137 v -33.44263 h 25.08197 25.08196 v 33.44263 33.44262 h -25.08196 -25.08197 z"
   id="A11" /><path
   style="fill:#ffff00;stroke:#000000;stroke-width:0;stroke-linecap:square;stroke-linejoin:bevel;paint-order:fill markers stroke"
   d="m 110.39555,345.86153 c 0.60363,-1.18561 0.57068,-1.8985 -0.2671,-5.77869 -1.40217,-6.49415 -1.75066,-21.89387 -0.69982,-30.92458 0.85544,-7.35139 2.68446,-16.85692 4.20412,-21.84906 0.84518,-2.77642 0.87066,-3.27737 0.24312,-4.77929 -0.38556,-0.92277 -0.70102,-1.79554 -0.70102,-1.93947 0,-0.14393 7.60069,-0.2617 16.89043,-0.2617 h 16.89043 l 0.32268,7.45525 c 0.17748,4.10038 0.32269,19.14956 0.32269,33.44262 v 25.98738 h -18.94706 -18.94705 z"
   id="A10" /><path
   style="fill:#ffff00;stroke:#000000;stroke-width:0;stroke-linecap:square;stroke-linejoin:bevel;paint-order:fill markers stroke"
   d="m 57.348783,375.85223 c -1.62648,-1.55021 -3.589639,-3.26369 -4.362589,-3.80773 l -1.40534,-0.98916 7.490288,-22.8633 c 4.11967,-12.57481 7.521349,-22.89722 7.559309,-22.93869 0.0379,-0.0415 4.384569,1.39706 9.659168,3.19672 8.468318,2.88935 9.571208,3.38718 9.428128,4.25572 -0.37467,2.27444 -5.727639,12.3472 -9.820578,18.4795 -5.373679,8.05121 -9.808108,15.71863 -12.980657,22.44444 -1.31265,2.78282 -2.43701,5.05549 -2.49857,5.05037 -0.0616,-0.005 -1.44269,-1.27765 -3.069159,-2.82787 z"
   id="RX12" /><path
   style="fill:#ffff00;stroke:#000000;stroke-width:0;stroke-linecap:square;stroke-linejoin:bevel;paint-order:fill markers stroke"
   d="m 45.797815,368.55579 c -1.75819,-0.62867 -4.026639,-1.15088 -5.040979,-1.16046 -2.165839,-0.0204 -2.123739,0.25684 -1.34678,-8.86987 0.26481,-3.11065 0.71097,-8.97541 0.99146,-13.03278 0.2805,-4.05738 0.84583,-9.2582 1.25629,-11.55738 1.13984,-6.38471 3.707809,-15.7377 4.320959,-15.7377 0.47107,0 17.994747,5.88247 18.415526,6.18185 0.28348,0.20169 -14.749677,45.45842 -15.076907,45.38844 -0.17756,-0.038 -1.761369,-0.58342 -3.519569,-1.2121 z"
   id="RX11" /><path
   style="fill:#ffff00;stroke:#000000;stroke-width:0;stroke-linecap:square;stroke-linejoin:bevel;paint-order:fill markers stroke"
   d="M 36.795187,398.13097 C 29.304008,391.73583 23.17487,386.4079 23.17487,386.29112 c 0,-0.11679 0.940569,-0.80319 2.090159,-1.52535 4.394479,-2.76055 12.049838,-11.14011 13.301638,-14.55998 0.411169,-1.1233 1.949249,-1.09294 5.862358,0.11569 3.749,1.15795 8.339389,4.02008 11.999728,7.48188 l 2.647749,2.50413 v 5.75403 5.75404 l -4.330499,8.97147 -4.330499,8.97146 z"
   id="R9" /><path
   style="fill:#ffff00;stroke:#000000;stroke-width:0;stroke-linecap:square;stroke-linejoin:bevel;paint-order:fill markers stroke"
   d="m 17.930681,447.32514 c 0.16464,-1.20117 0.951789,-3.2483 1.749239,-4.54919 2.75023,-4.48651 7.920419,-15.6484 8.043589,-17.36524 0.10288,-1.43402 -0.0405,-1.72131 -0.85904,-1.72131 -0.75703,0 -1.68707,1.35444 -4.052389,5.90164 -1.68843,3.2459 -3.78757,7.76295 -4.664749,10.03789 -1.82688,4.73795 -5.019249,8.80655 -6.472399,8.24892 -1.22827,-0.47133 -0.64253,-4.23875 1.19918,-7.71304 4.427859,-8.35289 8.059278,-17.54938 7.502588,-19.0001 -0.55412,-1.44401 -1.68683,-0.53035 -3.282409,2.64764 -2.19422,4.37029 -6.058939,13.30533 -6.464729,14.94611 -0.17663,0.71421 -0.9394598,1.89095 -1.6951796,2.61497 l -1.3740198,1.31639 -0.3010099,-1.19932 c -0.16556,-0.65963 -0.0766,-3.56763 0.1976499,-6.46223 0.6359099,-6.71134 2.6709094,-13.12759 5.8314784,-18.38628 2.81617,-4.68567 9.379179,-12.9255 11.712948,-14.70555 1.78104,-1.35847 2.11821,-2.5913 0.7087,-2.5913 -1.27102,0 -6.338059,3.41413 -8.648728,5.82744 -1.06323,1.11046 -3.16568,3.83474 -4.672129,6.05395 -4.0132895,5.91216 -7.6827488,8.43246 -9.5535384,6.56167 -1.4714298,-1.47143 -1.0023798,-4.26528 1.5455897,-9.20618 3.7221092,-7.21773 12.5380677,-18.83156 15.6562967,-20.62505 l 1.41594,-0.8144 13.524587,11.54141 c 7.438519,6.34778 13.821948,11.83305 14.185387,12.18949 0.55145,0.54082 0.0467,1.85841 -3.050039,7.96151 -6.245349,12.30849 -15.827677,27.53326 -18.091816,28.745 -0.82172,0.43977 -1.02951,0.35793 -1.25206,-0.49313 -0.14677,-0.56122 -0.43755,-1.0204 -0.6462,-1.0204 -0.20864,0 1.00845,-2.07565 2.704649,-4.61255 4.49403,-6.72144 6.471199,-12.60057 4.2376,-12.60057 -0.68459,0 -1.01897,0.48503 -1.27147,1.84427 -1.03215,5.55615 -10.669458,18.81147 -13.676937,18.81147 -0.29202,0 -0.36647,-0.87149 -0.18658,-2.18393 z"
   id="R91" /><path
   style="fill:#ffff00;stroke:#000000;stroke-width:0;stroke-linecap:square;stroke-linejoin:bevel;paint-order:fill markers stroke"
   d="m 300.55186,413.06209 c 0,-0.29993 -2.21333,-5.11346 -4.91853,-10.69672 l -4.91854,-10.15138 5.1e-4,-5.92013 5e-4,-5.92013 2.33607,-2.23408 c 5.20099,-4.97395 10.59089,-8.0175 15.12294,-8.53955 l 2.45902,-0.28326 1.4342,3.06165 c 1.91847,4.09545 7.80528,10.1819 13.23897,13.68796 2.30564,1.4877 4.15231,2.84138 4.10371,3.00818 -0.1138,0.39059 -28.25987,24.5328 -28.60143,24.5328 -0.14158,0 -0.25742,-0.2454 -0.25742,-0.54534 z"
   id="S9" /><path
   style="fill:#ffff00;stroke:#000000;stroke-width:0;stroke-linecap:square;stroke-linejoin:bevel;paint-order:fill markers stroke"
   d="m 288.8076,377.6463 c -2.47346,-6.33663 -8.7081,-17.67789 -14.67182,-26.6891 -4.02368,-6.07979 -9.08224,-15.46555 -9.71158,-18.01907 -0.29229,-1.18592 -0.0693,-1.29458 9.03244,-4.40077 5.13268,-1.75166 9.42559,-3.07953 9.53981,-2.95082 0.11422,0.1287 3.59076,10.40309 7.72566,22.83197 l 7.51798,22.59797 -1.67198,1.25449 c -0.91959,0.68997 -2.93914,2.44494 -4.48789,3.89992 -2.78103,2.61265 -2.82157,2.63094 -3.27262,1.47541 z"
   id="LX11" /><path
   style="fill:#ffff00;stroke:#000000;stroke-width:0;stroke-linecap:square;stroke-linejoin:bevel;paint-order:fill markers stroke"
   d="m 298.69073,365.56534 c -11.80188,-34.60399 -13.78492,-40.9044 -12.97593,-41.2265 3.23228,-1.2869 17.90561,-6.18745 18.06108,-6.03198 0.6852,0.6852 3.80497,13.89588 4.38759,18.57926 0.62507,5.02454 2.259,26.51603 2.23407,29.38525 -0.008,0.89191 -0.28731,1.10655 -1.44121,1.10655 -1.25498,0 -5.64572,1.20116 -7.98105,2.18335 -0.65936,0.27732 -1.0752,-0.45005 -2.28455,-3.99593 z"
   id="LX12" /><path
   style="fill:#ffff00;stroke:#000000;stroke-width:0;stroke-linecap:square;stroke-linejoin:bevel;paint-order:fill markers stroke"
   d="m 329.2546,448.87689 c -3.53493,-2.00837 -11.93137,-15.27809 -11.96976,-18.917 -0.008,-0.7748 -0.30657,-1.10656 -0.99527,-1.10656 -2.37036,0 0.0162,6.94223 4.68026,13.61419 1.90825,2.72977 2.1164,3.27608 1.68277,4.41661 l -0.49484,1.30152 -1.47049,-1.40882 c -1.69607,-1.62494 -7.91893,-11.02595 -11.99065,-18.11451 -2.58077,-4.49293 -7.16115,-13.29462 -7.16115,-13.76091 0,-0.11059 0.30446,-0.17034 0.67657,-0.13278 0.37212,0.0376 7.0348,-5.35382 14.80596,-11.98087 7.77116,-6.62705 14.31538,-12.11896 14.54271,-12.20424 0.51215,-0.19214 5.99152,6.67966 9.53523,11.95834 6.49397,9.67337 8.15268,15.9836 4.20144,15.9836 -2.90444,0 -5.54722,-2.12703 -8.0018,-6.44023 -1.50854,-2.65081 -8.64277,-9.54481 -11.54128,-11.15263 -1.94621,-1.07958 -2.02458,-1.08564 -2.31244,-0.17867 -0.22534,0.70997 0.49757,1.70156 2.96591,4.06828 10.71062,10.26961 16.38538,22.72559 15.8601,34.81259 l -0.15863,3.65031 -1.32544,-1.1913 c -0.80036,-0.71935 -2.00002,-2.96633 -3.02823,-5.67189 -0.93653,-2.46433 -2.86189,-6.80613 -4.27859,-9.64844 -2.10056,-4.21436 -2.74414,-5.12383 -3.48817,-4.92926 -1.19831,0.31336 -1.16512,0.67659 0.5085,5.5644 1.86452,5.44536 3.07633,8.17394 5.40427,12.16855 2.55335,4.3814 3.20148,8.94829 1.26993,8.94829 -1.08798,0 -4.10281,-4.11404 -5.45213,-7.43999 -2.16976,-5.34827 -10.00343,-20.58115 -10.58793,-20.58866 -0.17713,-0.002 -0.2073,0.93644 -0.067,2.08603 0.35888,2.94139 3.73809,11.31185 6.8145,16.87983 2.84216,5.14402 3.65656,7.12408 3.65656,8.89028 0,1.2749 -0.68297,1.43178 -2.28087,0.52394 z"
   id="S91" /><path
   style="fill:#ffff00;stroke:#000000;stroke-width:0;stroke-linecap:square;stroke-linejoin:bevel;paint-order:fill markers stroke"
   d="m 212.51909,471.16085 c 0,-1.07513 1.32567,-23.67368 2.94593,-50.21899 l 2.94594,-48.26421 2.83275,-3.03728 c 1.55802,-1.67051 6.35987,-6.84655 10.67077,-11.50233 4.31091,-4.65577 7.99103,-8.46503 8.17804,-8.46503 1.51099,0 4.5229,15.59921 5.88738,30.4918 0.30979,3.38115 0.7314,22.08197 0.93691,41.55738 0.38228,36.22719 0.31408,38.44009 -1.48907,48.31967 l -0.561,3.07377 h -16.17383 -16.17382 z"
   id="L12" /><path
   style="fill:#ffff00;stroke:#000000;stroke-width:0;stroke-linecap:square;stroke-linejoin:bevel;paint-order:fill markers stroke"
   d="m 179.39516,470.04186 c -0.15824,-1.69058 -0.41109,-5.95082 -0.56189,-9.46722 -0.1508,-3.51639 -0.38812,-7.50017 -0.52737,-8.85284 l -0.25318,-2.4594 2.4334,-0.86426 c 1.73793,-0.61727 3.15748,-1.65654 4.96698,-3.63642 4.52233,-4.94816 6.88979,-11.14638 7.93172,-20.76597 0.95608,-8.82706 0.0677,-14.44525 -2.95569,-18.69116 l -0.97861,-1.37432 13.11632,-14.14482 c 7.21398,-7.77965 13.1992,-13.89619 13.3005,-13.59231 0.20456,0.6137 -5.21635,92.78735 -5.6062,95.32413 l -0.24563,1.59836 h -15.16632 -15.16632 z"
   id="L11" /><path
   style="fill:#ffff00;stroke:#000000;stroke-width:0;stroke-linecap:square;stroke-linejoin:bevel;paint-order:fill markers stroke"
   d="m 187.18411,402.28443 c -0.54332,-0.87911 -6.23047,-3.35523 -8.56295,-3.72821 l -2.0037,-0.3204 v -24.28141 -24.2814 h 30.10446 30.10446 l -2.21918,2.33606 c -1.22055,1.28484 -5.07461,5.43443 -8.56458,9.22131 -3.48998,3.78689 -7.4948,8.10246 -8.89962,9.59017 -1.40481,1.4877 -8.25073,8.90164 -15.21315,16.47541 -6.96241,7.57377 -13.04468,14.18011 -13.51614,14.68075 -0.63789,0.67737 -0.95249,0.7561 -1.2296,0.30772 z"
   id="A14" /><path
   style="fill:#ffff00;stroke:#000000;stroke-width:0;stroke-linecap:square;stroke-linejoin:bevel;paint-order:fill markers stroke"
   d="m 147.79038,387.46771 c -7.81312,-8.42504 -14.27725,-15.61726 -14.3647,-15.98271 -0.0875,-0.36545 -0.34511,-0.66445 -0.57255,-0.66445 -0.36124,0 -17.3325,-18.00368 -19.12374,-20.28711 -0.64118,-0.81735 0.83029,-0.86043 29.38988,-0.86043 h 30.06484 l -0.12759,24.1569 -0.12758,24.1569 -3.69261,1.30329 c -2.03093,0.71681 -4.49082,1.79662 -5.46642,2.39958 l -1.77382,1.09627 z"
   id="A13" /><path
   style="fill:#ffff00;stroke:#000000;stroke-width:0;stroke-linecap:square;stroke-linejoin:bevel;paint-order:fill markers stroke"
   d="m 172.92894,447.08679 c -5.34248,-1.31802 -9.24482,-6.17317 -11.29524,-14.05313 -1.75605,-6.74863 -2.26233,-17.97238 -1.00212,-22.21596 1.34824,-4.54003 5.84933,-8.54454 11.43598,-10.1743 2.29712,-0.67013 2.89258,-0.67256 5.40983,-0.0221 3.55415,0.91838 7.54877,3.52962 9.48189,6.19821 2.514,3.47047 3.12013,6.55078 2.78714,14.164 -0.60729,13.8846 -3.8909,22.16741 -9.84601,24.83628 -3.11264,1.39498 -5.03595,1.74453 -6.97147,1.26702 z"
   id="path158" /><path
   style="fill:#ffff00;stroke:#000000;stroke-width:0;stroke-linecap:square;stroke-linejoin:bevel;paint-order:fill markers stroke"
   d="m 139.52341,470.53366 c -0.37867,-3.49699 -5.74099,-94.42351 -5.57695,-94.56599 0.0715,-0.0621 6.05958,6.28131 13.30681,14.09651 l 13.17676,14.20945 -1.2168,1.59531 c -1.73393,2.2733 -2.33067,4.04055 -2.75745,8.1662 -0.84629,8.18113 1.11686,19.89822 4.33138,25.85185 1.68181,3.11491 5.79871,7.19554 8.47874,8.40407 l 2.07311,0.93484 -0.3015,4.93667 c -0.16583,2.71517 -0.44966,8.09035 -0.63075,11.94486 l -0.32925,7.0082 h -15.13726 -15.13724 z"
   id="R12" /><path
   style="fill:#ffff00;stroke:#000000;stroke-width:0;stroke-linecap:square;stroke-linejoin:bevel;paint-order:fill markers stroke"
   d="m 104.12003,471.76317 c -1.84442,-8.89241 -1.91917,-10.63316 -1.82151,-42.41803 0.12778,-41.58496 0.86298,-55.23084 3.74934,-69.59017 1.32946,-6.6139 2.27829,-9.69524 3.06633,-9.95792 0.2924,-0.0975 5.41701,5.0734 11.388,11.49082 8.20093,8.81407 10.91237,12.03842 11.08538,13.18232 0.27804,1.83843 5.71371,94.19468 5.69727,96.80118 l -0.0116,1.84426 h -16.43633 -16.43634 z"
   id="R11" /><path
   style="fill:#ffff00;stroke:#000000;stroke-width:0;stroke-linecap:square;stroke-linejoin:bevel;paint-order:fill markers stroke"
   d="m 138.99452,565.02215 c -1.89344,-0.23544 -6.47555,-1.00507 -10.18246,-1.71029 l -6.73983,-1.28222 -0.25648,-2.03897 c -0.14106,-1.12144 -0.49304,-4.80537 -0.78217,-8.18652 -2.15287,-25.17568 -7.12524,-52.12764 -11.50475,-62.35971 -1.57747,-3.68553 -3.64811,-9.7906 -4.41227,-13.00914 l -0.3211,-1.35246 h 16.48478 c 16.37081,0 16.48478,0.007 16.48478,1.02345 0,1.75125 4.85661,83.1456 5.15496,86.39458 0.15525,1.69058 0.11012,3.04578 -0.10028,3.01156 -0.21041,-0.0342 -1.93173,-0.25484 -3.82518,-0.49028 z"
   id="R13" /><path
   style="fill:#ffff00;stroke:#000000;stroke-width:0;stroke-linecap:square;stroke-linejoin:bevel;paint-order:fill markers stroke"
   d="m 145.14206,565.31183 c 0,-1.03517 -4.96037,-83.41294 -5.20363,-86.41751 l -0.30858,-3.81148 h 15.05118 15.05119 l -0.001,1.84426 c -5.8e-4,1.01435 -0.99503,20.43443 -2.20987,43.15574 -1.21485,22.72131 -2.21028,41.66516 -2.21207,42.09744 -0.004,0.88815 -2.60147,2.15669 -5.90488,2.88344 -2.29182,0.50419 -14.26229,0.71244 -14.26229,0.24811 z"
   id="R14" /><path
   style="fill:#ffff00;stroke:#000000;stroke-width:0;stroke-linecap:square;stroke-linejoin:bevel;paint-order:fill markers stroke"
   d="m 189.65025,564.8833 c -1.35246,-0.33423 -3.12567,-0.95782 -3.94046,-1.38576 l -1.48145,-0.77806 -2.11587,-40.74455 c -1.16373,-22.4095 -2.24281,-42.12774 -2.39795,-43.81832 l -0.28207,-3.07377 h 15.31382 c 8.42259,0 15.31381,0.0969 15.31381,0.21544 0,0.1185 -1.21665,20.20251 -2.70366,44.63115 -1.48701,24.42864 -2.70423,44.69235 -2.70492,45.03046 -0.002,0.82504 -11.5923,0.76586 -15.00125,-0.0766 z"
   id="L13" /><path
   style="fill:#ffff00;stroke:#000000;stroke-width:0;stroke-linecap:square;stroke-linejoin:bevel;paint-order:fill markers stroke"
   d="m 206.86141,562.17152 c 0.34701,-3.91202 5.16588,-83.93397 5.16588,-85.78437 v -1.30431 h 16.22951 c 8.92623,0 16.22951,0.0859 16.22951,0.19089 0,0.93338 -2.92244,9.86712 -4.68828,14.33184 -4.54583,11.49358 -9.0211,35.9352 -11.50017,62.80807 -0.46761,5.06882 -0.94831,9.31415 -1.06822,9.43407 -0.37831,0.37831 -10.31914,2.23381 -15.59276,2.91046 l -5.06254,0.64957 z"
   id="L14" /><path
   style="fill:#ffff00;stroke:#000000;stroke-width:0;stroke-linecap:square;stroke-linejoin:bevel;paint-order:fill markers stroke"
   d="m 182.85979,630.36973 c -2.12668,-15.60726 -1.38301,-61.98227 1.03269,-64.39797 0.22889,-0.22889 1.30482,-0.10263 2.39096,0.28058 2.9931,1.05603 8.45729,1.78132 13.42002,1.78132 h 4.45498 l 10e-4,2.82787 c 0.001,3.22481 -2.29539,51.37895 -2.74462,57.54098 l -0.2958,4.05738 h -8.98735 -8.98737 z"
   id="L19" /><path
   style="fill:#ffff00;stroke:#000000;stroke-width:0;stroke-linecap:square;stroke-linejoin:bevel;paint-order:fill markers stroke"
   d="m 203.4468,630.12383 c 0.1241,-1.28484 0.77999,-14.5082 1.45754,-29.38525 0.67756,-14.87705 1.35402,-28.39706 1.50326,-30.04448 l 0.27134,-2.9953 5.99526,-0.83373 c 3.2974,-0.45855 7.87578,-1.2255 10.17418,-1.70433 l 4.17891,-0.8706 0.004,12.32258 c 0.003,10.19165 0.20488,13.8109 1.16746,20.92914 1.26711,9.37024 1.2691,18.55593 0.006,29.63115 l -0.60276,5.28688 h -12.19043 -12.19043 z"
   id="L20" /><path
   style="fill:#ffff00;stroke:#000000;stroke-width:0;stroke-linecap:square;stroke-linejoin:bevel;paint-order:fill markers stroke"
   d="m 183.20702,736.57053 c 0.1627,-0.59282 0.56162,-3.67698 0.88649,-6.85369 0.49107,-4.80189 0.47033,-6.50196 -0.12301,-10.08197 -0.39253,-2.36837 -0.70973,-6.85121 -0.70488,-9.96186 0.008,-4.86649 0.17013,-6.01531 1.16483,-8.23239 l 1.15602,-2.57665 1.40187,1.17959 c 2.5746,2.16638 6.00331,2.97529 12.49797,2.94857 3.2459,-0.0134 7.19173,-0.30545 8.76851,-0.64909 1.57678,-0.34365 2.98283,-0.50886 3.12456,-0.36713 0.24693,0.24694 2.57989,33.86749 2.36913,34.14176 -0.0563,0.0733 -5.05881,0.34343 -11.1167,0.60038 -6.05789,0.25696 -12.97325,0.5714 -15.36748,0.69876 -4.29046,0.22824 -4.34887,0.21605 -4.05731,-0.84628 z"
   id="L27" /><path
   style="fill:#ffff00;stroke:#000000;stroke-width:0;stroke-linecap:square;stroke-linejoin:bevel;paint-order:fill markers stroke"
   d="m 183.89203,789.96826 c -1.63162,-1.01194 -3.88796,-5.88763 -4.99896,-10.80217 -0.87717,-3.8802 -1.08085,-17.41815 -0.35001,-23.26358 0.30714,-2.4565 3.70347,-15.43809 4.21486,-16.11019 0.0922,-0.12123 17.08524,-0.88179 26.76241,-1.19781 l 4.62419,-0.15101 1.39188,4.89692 c 3.61423,12.71568 4.95656,23.45391 3.55297,28.42275 -0.26863,0.95096 -2.37211,1.19346 -2.90288,0.33466 -0.1788,-0.28929 -0.64967,-3.33233 -1.04639,-6.76229 -0.39671,-3.42997 -0.89344,-7.01089 -1.10384,-7.95762 -0.37171,-1.67257 -0.39358,-1.63857 -0.7724,1.20081 -0.21442,1.60716 -0.26876,5.38084 -0.12075,8.38595 0.26508,5.3824 -0.18959,9.84766 -1.0949,10.75298 -0.28842,0.28842 -0.90752,0.17045 -1.64652,-0.31377 -1.04784,-0.68657 -1.22476,-1.27464 -1.53544,-5.10354 -0.55847,-6.88286 -0.64558,-7.13138 -2.43846,-6.95681 l -1.53165,0.14914 0.15227,3.64363 c 0.0837,2.00399 0.46782,4.54908 0.85349,5.65574 0.90185,2.58772 0.89369,3.92958 -0.0348,5.72505 -0.59913,1.15858 -1.07485,1.45099 -2.36066,1.45099 -2.09702,0 -2.79065,-0.75789 -2.79065,-3.04918 0,-1.25057 -0.22194,-1.86885 -0.67085,-1.86885 -0.77008,0 -1.29636,-3.02273 -1.29636,-7.4457 0,-2.70934 -0.0703,-2.88217 -1.17286,-2.88217 -1.14023,0 -1.16721,0.0924 -0.96936,3.31967 0.11193,1.82582 0.55078,5.1145 0.97521,7.30818 0.849,4.388 0.54926,5.70338 -1.77999,7.81132 l -1.0805,0.97784 -1.16612,-1.35569 c -1.73722,-2.01964 -2.22926,-4.6117 -2.21723,-11.68043 0.01,-5.87042 -0.0615,-6.38089 -0.89343,-6.38089 -0.76624,0 -0.95158,0.54437 -1.21395,3.56557 -0.29997,3.454 0.28978,11.65767 0.91021,12.66155 0.16798,0.2718 -0.0396,0.49419 -0.4613,0.49419 -0.56767,0 -0.76673,0.51484 -0.76673,1.98301 0,1.09065 -0.32068,2.75049 -0.71261,3.68852 -0.81479,1.95005 -2.12199,2.20896 -4.30791,0.85323 z"
   id="L28" /><path
   style="fill:#ffff00;stroke:#000000;stroke-width:0;stroke-linecap:square;stroke-linejoin:bevel;paint-order:fill markers stroke"
   d="m 150.61069,736.91434 c -8.21765,-0.35658 -14.99066,-0.71167 -15.05112,-0.78909 -0.20621,-0.26407 2.10299,-33.89077 2.34388,-34.13166 0.13201,-0.13201 2.75526,0.12884 5.82945,0.57967 8.17354,1.19866 14.94351,0.35915 18.72536,-2.32205 l 1.33259,-0.94476 0.97644,1.91397 c 1.71426,3.36023 2.2242,7.91966 1.45929,13.04759 -0.74659,5.00512 -0.89411,16.24706 -0.27045,20.60991 0.22233,1.55533 0.22233,2.79567 0,2.7563 -0.22233,-0.0394 -7.12778,-0.36331 -15.34544,-0.71988 z"
   id="R27" /><path
   style="fill:#ffff00;stroke:#000000;stroke-width:0;stroke-linecap:square;stroke-linejoin:bevel;paint-order:fill markers stroke"
   d="m 161.66713,790.20579 c -0.3909,-0.6086 -0.86934,-2.21311 -1.06321,-3.56557 -0.19387,-1.35246 -0.54513,-2.584 -0.78058,-2.73676 -0.24024,-0.15586 -0.21029,-1.42618 0.0683,-2.89499 0.273,-1.43949 0.49636,-5.24279 0.49636,-8.45177 0,-5.72255 -0.0212,-5.83453 -1.10656,-5.83516 -1.09246,-6.3e-4 -1.10447,0.0708 -0.9425,5.60629 0.33316,11.38636 -3.28175,17.36686 -6.32185,10.45885 -0.80253,-1.82358 -0.83108,-2.31766 -0.26049,-4.50712 0.35246,-1.35246 0.80385,-4.52481 1.00309,-7.04967 l 0.36224,-4.59066 -1.16205,0.16443 c -1.10736,0.15669 -1.17708,0.3951 -1.48143,5.06597 -0.18608,2.85581 -0.54529,4.97685 -0.86066,5.08197 -0.2977,0.0992 -0.54127,0.77667 -0.54127,1.50542 0,2.09439 -1.2768,3.51107 -3.16438,3.51107 -0.89826,0 -1.89232,-0.31222 -2.20903,-0.69382 -1.03333,-1.2451 -1.18368,-4.13009 -0.35501,-6.81242 0.43766,-1.41665 0.85437,-4.12491 0.92602,-6.01835 0.1182,-3.12336 0.0391,-3.45429 -0.85333,-3.56839 -1.92938,-0.2467 -2.33202,0.58396 -2.83683,5.85247 -0.48202,5.0306 -1.17094,6.81428 -2.63192,6.81428 -1.53944,0 -1.89272,-2.09736 -1.78106,-10.57377 0.0606,-4.59836 -0.0686,-9.13525 -0.28709,-10.08197 -0.36868,-1.59761 -0.44051,-1.43857 -0.99947,2.21312 -0.33123,2.16393 -0.738,5.66726 -0.90394,7.78517 -0.34712,4.43049 -1.40485,6.38313 -2.94691,5.44022 -2.55579,-1.56278 -1.63351,-12.39617 2.38198,-27.97949 0.8364,-3.2459 1.54859,-5.93807 1.58266,-5.98259 0.16037,-0.2096 31.34697,1.28673 31.72816,1.52232 0.23945,0.14799 0.59037,1.09534 0.77983,2.10521 0.18945,1.00988 1.10619,4.48259 2.03719,7.71713 1.66154,5.77267 1.69444,6.06735 1.78597,15.99717 0.10398,11.28193 -0.43652,14.96533 -2.99979,20.44291 -1.39341,2.97765 -3.58642,5.16506 -5.17829,5.16506 -0.42537,0 -1.09322,-0.49795 -1.48411,-1.10656 z"
   id="R28" /><path
   style="fill:#ffff00;stroke:#000000;stroke-width:0;stroke-linecap:square;stroke-linejoin:bevel;paint-order:fill markers stroke"
   d="m 147.2015,603.57689 c -0.7466,-16.03238 -1.48169,-30.58831 -1.63352,-32.34651 l -0.27607,-3.19672 7.05621,-0.0683 c 5.65078,-0.0547 7.68874,-0.27116 10.23184,-1.08668 1.74659,-0.5601 3.25334,-0.94064 3.34835,-0.84563 0.095,0.095 0.49457,2.13319 0.88793,4.5293 1.68939,10.29083 1.97198,41.21522 0.51394,56.24182 l -0.54878,5.65574 -9.11123,0.1334 -9.11122,0.13339 z"
   id="R20" /><path
   style="fill:#ffff00;stroke:#000000;stroke-width:0;stroke-linecap:square;stroke-linejoin:bevel;paint-order:fill markers stroke"
   d="m 121.8001,631.84514 c -0.47063,-1.47363 -1.33147,-11.02758 -1.58417,-17.58197 -0.2209,-5.72944 -0.0499,-8.96787 0.86977,-16.47541 0.90653,-7.40007 1.14916,-11.87797 1.16611,-21.52187 0.0165,-9.40236 0.15874,-12.1249 0.62403,-11.94632 1.21689,0.46705 10.84598,2.17581 15.50393,2.7513 4.37355,0.54036 4.79556,0.68438 4.80058,1.63827 0.003,0.57521 0.66448,14.43518 1.46991,30.79993 0.80543,16.36476 1.46689,30.47336 1.46991,31.35246 l 0.006,1.59836 h -12.06461 c -9.21912,0 -12.11093,-0.14499 -12.26096,-0.61475 z"
   id="R19" /><path
   style="fill:#ffff00;stroke:#000000;stroke-width:0;stroke-linecap:square;stroke-linejoin:bevel;paint-order:fill markers stroke"
   d=""
   id="path221" /><path
   style="fill:#ffff00;stroke:#000000;stroke-width:0;stroke-linecap:square;stroke-linejoin:bevel;paint-order:fill markers stroke"
   d="m 199.9537,699.81179 c 0.0557,-0.59771 0.77032,-15.24916 1.58809,-32.55879 0.81776,-17.30963 1.52531,-31.72635 1.57233,-32.03715 l 0.0855,-0.56511 h 12.07669 c 9.3497,0 12.07669,0.0476 12.07669,0.21094 0,0.58642 -1.69746,11.08069 -2.53435,15.66825 -3.22999,17.70562 -7.98539,36.06767 -12.19874,47.10313 l -0.64533,1.69022 -1.13513,0.25562 c -2.85406,0.64268 -7.92507,1.31963 -9.88532,1.31963 h -1.10165 z"
   id="L24" /><path
   style="fill:#ffff00;stroke:#000000;stroke-width:0;stroke-linecap:square;stroke-linejoin:bevel;paint-order:fill markers stroke"
   d="m 194.05522,700.55339 c -3.06439,-0.55811 -5.26629,-1.56669 -6.71713,-3.07676 l -0.80525,-0.83813 -0.20146,-6.52045 c -0.18957,-6.13553 -0.57741,-15.91765 -0.7928,-19.99605 -0.59441,-11.25494 -1.27789,-21.68928 -1.92234,-29.34724 -0.23564,-2.80013 -0.42844,-5.32355 -0.42844,-5.60759 v -0.51643 h 9.04169 9.04168 v 0.79736 c 0,0.93062 -2.89089,61.24195 -3.05596,63.75511 l -0.11136,1.69532 -1.15492,-0.0142 c -0.63521,-0.008 -1.93738,-0.15673 -2.89371,-0.33091 z"
   id="L23" /><path
   style="fill:#ffff00;stroke:#000000;stroke-width:0;stroke-linecap:square;stroke-linejoin:bevel;paint-order:fill markers stroke"
   d="m 151.36799,700.5566 c 0,-0.69999 -2.91189,-61.88024 -3.05198,-64.1236 l -0.1113,-1.78226 h 9.10728 9.10728 l -0.2195,2.47777 c -1.32937,15.00637 -2.49037,35.34068 -3.03368,53.13346 l -0.21412,7.01213 -0.86126,0.77434 c -0.93433,0.84005 -2.77081,1.79347 -4.28921,2.22679 -1.28868,0.36776 -4.20385,0.79489 -5.43371,0.79615 -0.99269,10e-4 -0.9998,-0.003 -0.9998,-0.51478 z"
   id="R24" /><path
   style="fill:#ffff00;stroke:#000000;stroke-width:0;stroke-linecap:square;stroke-linejoin:bevel;paint-order:fill markers stroke"
   d="m 147.10797,700.95147 c -2.71154,-0.24359 -8.87988,-1.29861 -9.48455,-1.62222 -0.50079,-0.26801 -3.18106,-7.91105 -5.27289,-15.03614 -3.52956,-12.02221 -6.36389,-24.60048 -8.6982,-38.60107 -0.74829,-4.48802 -1.66983,-10.48248 -1.66983,-10.86191 0,-0.12157 3.95095,-0.17939 12.25845,-0.17939 11.9034,0 12.25845,0.01 12.25845,0.32853 0,0.18069 0.70421,15.0951 1.5649,33.14312 0.8607,18.04803 1.5649,32.84506 1.5649,32.88231 0,0.0747 -1.43393,0.0444 -2.52123,-0.0532 z"
   id="R23" /></svg>
